<?xml version="1.0" encoding="utf-8" standalone="no"?>
<!DOCTYPE svg PUBLIC "-//W3C//DTD SVG 1.1//EN"
  "http://www.w3.org/Graphics/SVG/1.1/DTD/svg11.dtd">
<!-- Created with matplotlib (https://matplotlib.org/) -->
<svg height="338.86pt" version="1.1" viewBox="0 0 368.356364 338.86" width="368.356364pt" xmlns="http://www.w3.org/2000/svg" xmlns:xlink="http://www.w3.org/1999/xlink">
 <defs>
  <style type="text/css">
*{stroke-linecap:butt;stroke-linejoin:round;}
  </style>
 </defs>
 <g id="figure_1">
  <g id="patch_1">
   <path d="M 0 338.86 
L 368.356364 338.86 
L 368.356364 0 
L 0 0 
z
" style="fill:#ffffff;"/>
  </g>
  <g id="axes_1">
   <g id="patch_2">
    <path d="M 7.2 331.66 
L 361.156364 331.66 
L 361.156364 7.2 
L 7.2 7.2 
z
" style="fill:#ffffff;"/>
   </g>
   <g id="patch_3">
    <path clip-path="url(#p94b3432e2f)" d="M 7.2 36.696364 
L 36.696364 36.696364 
L 36.696364 7.2 
L 7.2 7.2 
z
" style="fill:#ff8c00;stroke:#ff8c00;stroke-linejoin:miter;"/>
   </g>
   <g id="patch_4">
    <path clip-path="url(#p94b3432e2f)" d="M 36.696364 36.696364 
L 66.192727 36.696364 
L 66.192727 7.2 
L 36.696364 7.2 
z
" style="fill:#ff8c00;stroke:#ff8c00;stroke-linejoin:miter;"/>
   </g>
   <g id="patch_5">
    <path clip-path="url(#p94b3432e2f)" d="M 66.192727 36.696364 
L 95.689091 36.696364 
L 95.689091 7.2 
L 66.192727 7.2 
z
" style="fill:#ff8c00;stroke:#ff8c00;stroke-linejoin:miter;"/>
   </g>
   <g id="patch_6">
    <path clip-path="url(#p94b3432e2f)" d="M 95.689091 36.696364 
L 125.185455 36.696364 
L 125.185455 7.2 
L 95.689091 7.2 
z
" style="fill:#ff8c00;stroke:#ff8c00;stroke-linejoin:miter;"/>
   </g>
   <g id="patch_7">
    <path clip-path="url(#p94b3432e2f)" d="M 125.185455 36.696364 
L 154.681818 36.696364 
L 154.681818 7.2 
L 125.185455 7.2 
z
" style="fill:#ff8c00;stroke:#ff8c00;stroke-linejoin:miter;"/>
   </g>
   <g id="patch_8">
    <path clip-path="url(#p94b3432e2f)" d="M 154.681818 36.696364 
L 184.178182 36.696364 
L 184.178182 7.2 
L 154.681818 7.2 
z
" style="fill:#ff8c00;stroke:#ff8c00;stroke-linejoin:miter;"/>
   </g>
   <g id="patch_9">
    <path clip-path="url(#p94b3432e2f)" d="M 184.178182 36.696364 
L 213.674545 36.696364 
L 213.674545 7.2 
L 184.178182 7.2 
z
" style="fill:#ff8c00;stroke:#ff8c00;stroke-linejoin:miter;"/>
   </g>
   <g id="patch_10">
    <path clip-path="url(#p94b3432e2f)" d="M 213.674545 36.696364 
L 243.170909 36.696364 
L 243.170909 7.2 
L 213.674545 7.2 
z
" style="fill:#ff8c00;stroke:#ff8c00;stroke-linejoin:miter;"/>
   </g>
   <g id="patch_11">
    <path clip-path="url(#p94b3432e2f)" d="M 243.170909 36.696364 
L 272.667273 36.696364 
L 272.667273 7.2 
L 243.170909 7.2 
z
" style="fill:#ff8c00;stroke:#ff8c00;stroke-linejoin:miter;"/>
   </g>
   <g id="patch_12">
    <path clip-path="url(#p94b3432e2f)" d="M 272.667273 36.696364 
L 302.163636 36.696364 
L 302.163636 7.2 
L 272.667273 7.2 
z
" style="fill:#ff8c00;stroke:#ff8c00;stroke-linejoin:miter;"/>
   </g>
   <g id="patch_13">
    <path clip-path="url(#p94b3432e2f)" d="M 302.163636 36.696364 
L 331.66 36.696364 
L 331.66 7.2 
L 302.163636 7.2 
z
" style="fill:#ff8c00;stroke:#ff8c00;stroke-linejoin:miter;"/>
   </g>
   <g id="patch_14">
    <path clip-path="url(#p94b3432e2f)" d="M 331.66 36.696364 
L 361.156364 36.696364 
L 361.156364 7.2 
L 331.66 7.2 
z
" style="fill:#ff8c00;stroke:#ff8c00;stroke-linejoin:miter;"/>
   </g>
   <g id="patch_15">
    <path clip-path="url(#p94b3432e2f)" d="M 7.2 66.192727 
L 36.696364 66.192727 
L 36.696364 36.696364 
L 7.2 36.696364 
z
" style="fill:#ff8c00;stroke:#ff8c00;stroke-linejoin:miter;"/>
   </g>
   <g id="patch_16">
    <path clip-path="url(#p94b3432e2f)" d="M 36.696364 66.192727 
L 66.192727 66.192727 
L 66.192727 36.696364 
L 36.696364 36.696364 
z
" style="fill:#ff8c00;stroke:#ff8c00;stroke-linejoin:miter;"/>
   </g>
   <g id="patch_17">
    <path clip-path="url(#p94b3432e2f)" d="M 66.192727 66.192727 
L 95.689091 66.192727 
L 95.689091 36.696364 
L 66.192727 36.696364 
z
" style="fill:#ff8c00;stroke:#ff8c00;stroke-linejoin:miter;"/>
   </g>
   <g id="patch_18">
    <path clip-path="url(#p94b3432e2f)" d="M 95.689091 66.192727 
L 125.185455 66.192727 
L 125.185455 36.696364 
L 95.689091 36.696364 
z
" style="fill:#ff8c00;stroke:#ff8c00;stroke-linejoin:miter;"/>
   </g>
   <g id="patch_19">
    <path clip-path="url(#p94b3432e2f)" d="M 125.185455 66.192727 
L 154.681818 66.192727 
L 154.681818 36.696364 
L 125.185455 36.696364 
z
" style="fill:#ff8c00;stroke:#ff8c00;stroke-linejoin:miter;"/>
   </g>
   <g id="patch_20">
    <path clip-path="url(#p94b3432e2f)" d="M 154.681818 66.192727 
L 184.178182 66.192727 
L 184.178182 36.696364 
L 154.681818 36.696364 
z
" style="fill:#ff8c00;stroke:#ff8c00;stroke-linejoin:miter;"/>
   </g>
   <g id="patch_21">
    <path clip-path="url(#p94b3432e2f)" d="M 184.178182 66.192727 
L 213.674545 66.192727 
L 213.674545 36.696364 
L 184.178182 36.696364 
z
" style="fill:#ff8c00;stroke:#ff8c00;stroke-linejoin:miter;"/>
   </g>
   <g id="patch_22">
    <path clip-path="url(#p94b3432e2f)" d="M 213.674545 66.192727 
L 243.170909 66.192727 
L 243.170909 36.696364 
L 213.674545 36.696364 
z
" style="fill:#ff8c00;stroke:#ff8c00;stroke-linejoin:miter;"/>
   </g>
   <g id="patch_23">
    <path clip-path="url(#p94b3432e2f)" d="M 243.170909 66.192727 
L 272.667273 66.192727 
L 272.667273 36.696364 
L 243.170909 36.696364 
z
" style="fill:#ff8c00;stroke:#ff8c00;stroke-linejoin:miter;"/>
   </g>
   <g id="patch_24">
    <path clip-path="url(#p94b3432e2f)" d="M 272.667273 66.192727 
L 302.163636 66.192727 
L 302.163636 36.696364 
L 272.667273 36.696364 
z
" style="fill:#ff8c00;stroke:#ff8c00;stroke-linejoin:miter;"/>
   </g>
   <g id="patch_25">
    <path clip-path="url(#p94b3432e2f)" d="M 302.163636 66.192727 
L 331.66 66.192727 
L 331.66 36.696364 
L 302.163636 36.696364 
z
" style="fill:#ff8c00;stroke:#ff8c00;stroke-linejoin:miter;"/>
   </g>
   <g id="patch_26">
    <path clip-path="url(#p94b3432e2f)" d="M 331.66 66.192727 
L 361.156364 66.192727 
L 361.156364 36.696364 
L 331.66 36.696364 
z
" style="fill:#ff8c00;stroke:#ff8c00;stroke-linejoin:miter;"/>
   </g>
   <g id="patch_27">
    <path clip-path="url(#p94b3432e2f)" d="M 7.2 95.689091 
L 36.696364 95.689091 
L 36.696364 66.192727 
L 7.2 66.192727 
z
" style="fill:#ff8c00;stroke:#ff8c00;stroke-linejoin:miter;"/>
   </g>
   <g id="patch_28">
    <path clip-path="url(#p94b3432e2f)" d="M 36.696364 95.689091 
L 66.192727 95.689091 
L 66.192727 66.192727 
L 36.696364 66.192727 
z
" style="fill:#ff8c00;stroke:#ff8c00;stroke-linejoin:miter;"/>
   </g>
   <g id="patch_29">
    <path clip-path="url(#p94b3432e2f)" d="M 66.192727 95.689091 
L 95.689091 95.689091 
L 95.689091 66.192727 
L 66.192727 66.192727 
z
" style="fill:#ff8c00;stroke:#ff8c00;stroke-linejoin:miter;"/>
   </g>
   <g id="patch_30">
    <path clip-path="url(#p94b3432e2f)" d="M 95.689091 95.689091 
L 125.185455 95.689091 
L 125.185455 66.192727 
L 95.689091 66.192727 
z
" style="fill:#ff8c00;stroke:#ff8c00;stroke-linejoin:miter;"/>
   </g>
   <g id="patch_31">
    <path clip-path="url(#p94b3432e2f)" d="M 125.185455 95.689091 
L 154.681818 95.689091 
L 154.681818 66.192727 
L 125.185455 66.192727 
z
" style="fill:#ff8c00;stroke:#ff8c00;stroke-linejoin:miter;"/>
   </g>
   <g id="patch_32">
    <path clip-path="url(#p94b3432e2f)" d="M 154.681818 95.689091 
L 184.178182 95.689091 
L 184.178182 66.192727 
L 154.681818 66.192727 
z
" style="fill:#ff8c00;stroke:#ff8c00;stroke-linejoin:miter;"/>
   </g>
   <g id="patch_33">
    <path clip-path="url(#p94b3432e2f)" d="M 184.178182 95.689091 
L 213.674545 95.689091 
L 213.674545 66.192727 
L 184.178182 66.192727 
z
" style="fill:#ff8c00;stroke:#ff8c00;stroke-linejoin:miter;"/>
   </g>
   <g id="patch_34">
    <path clip-path="url(#p94b3432e2f)" d="M 213.674545 95.689091 
L 243.170909 95.689091 
L 243.170909 66.192727 
L 213.674545 66.192727 
z
" style="fill:#ff8c00;stroke:#ff8c00;stroke-linejoin:miter;"/>
   </g>
   <g id="patch_35">
    <path clip-path="url(#p94b3432e2f)" d="M 243.170909 95.689091 
L 272.667273 95.689091 
L 272.667273 66.192727 
L 243.170909 66.192727 
z
" style="fill:#ff8c00;stroke:#ff8c00;stroke-linejoin:miter;"/>
   </g>
   <g id="patch_36">
    <path clip-path="url(#p94b3432e2f)" d="M 272.667273 95.689091 
L 302.163636 95.689091 
L 302.163636 66.192727 
L 272.667273 66.192727 
z
" style="fill:#ff8c00;stroke:#ff8c00;stroke-linejoin:miter;"/>
   </g>
   <g id="patch_37">
    <path clip-path="url(#p94b3432e2f)" d="M 302.163636 95.689091 
L 331.66 95.689091 
L 331.66 66.192727 
L 302.163636 66.192727 
z
" style="fill:#ff8c00;stroke:#ff8c00;stroke-linejoin:miter;"/>
   </g>
   <g id="patch_38">
    <path clip-path="url(#p94b3432e2f)" d="M 331.66 95.689091 
L 361.156364 95.689091 
L 361.156364 66.192727 
L 331.66 66.192727 
z
" style="fill:#ff8c00;stroke:#ff8c00;stroke-linejoin:miter;"/>
   </g>
   <g id="patch_39">
    <path clip-path="url(#p94b3432e2f)" d="M 7.2 125.185455 
L 36.696364 125.185455 
L 36.696364 95.689091 
L 7.2 95.689091 
z
" style="fill:#ff8c00;stroke:#ff8c00;stroke-linejoin:miter;"/>
   </g>
   <g id="patch_40">
    <path clip-path="url(#p94b3432e2f)" d="M 36.696364 125.185455 
L 66.192727 125.185455 
L 66.192727 95.689091 
L 36.696364 95.689091 
z
" style="fill:#ffd700;stroke:#ffd700;stroke-linejoin:miter;"/>
   </g>
   <g id="patch_41">
    <path clip-path="url(#p94b3432e2f)" d="M 66.192727 125.185455 
L 95.689091 125.185455 
L 95.689091 95.689091 
L 66.192727 95.689091 
z
" style="fill:#ffd700;stroke:#ffd700;stroke-linejoin:miter;"/>
   </g>
   <g id="patch_42">
    <path clip-path="url(#p94b3432e2f)" d="M 95.689091 125.185455 
L 125.185455 125.185455 
L 125.185455 95.689091 
L 95.689091 95.689091 
z
" style="fill:#ff8c00;stroke:#ff8c00;stroke-linejoin:miter;"/>
   </g>
   <g id="patch_43">
    <path clip-path="url(#p94b3432e2f)" d="M 125.185455 125.185455 
L 154.681818 125.185455 
L 154.681818 95.689091 
L 125.185455 95.689091 
z
" style="fill:#ff8c00;stroke:#ff8c00;stroke-linejoin:miter;"/>
   </g>
   <g id="patch_44">
    <path clip-path="url(#p94b3432e2f)" d="M 154.681818 125.185455 
L 184.178182 125.185455 
L 184.178182 95.689091 
L 154.681818 95.689091 
z
" style="fill:#ff8c00;stroke:#ff8c00;stroke-linejoin:miter;"/>
   </g>
   <g id="patch_45">
    <path clip-path="url(#p94b3432e2f)" d="M 184.178182 125.185455 
L 213.674545 125.185455 
L 213.674545 95.689091 
L 184.178182 95.689091 
z
" style="fill:#ff8c00;stroke:#ff8c00;stroke-linejoin:miter;"/>
   </g>
   <g id="patch_46">
    <path clip-path="url(#p94b3432e2f)" d="M 213.674545 125.185455 
L 243.170909 125.185455 
L 243.170909 95.689091 
L 213.674545 95.689091 
z
" style="fill:#ff8c00;stroke:#ff8c00;stroke-linejoin:miter;"/>
   </g>
   <g id="patch_47">
    <path clip-path="url(#p94b3432e2f)" d="M 243.170909 125.185455 
L 272.667273 125.185455 
L 272.667273 95.689091 
L 243.170909 95.689091 
z
" style="fill:#ff8c00;stroke:#ff8c00;stroke-linejoin:miter;"/>
   </g>
   <g id="patch_48">
    <path clip-path="url(#p94b3432e2f)" d="M 272.667273 125.185455 
L 302.163636 125.185455 
L 302.163636 95.689091 
L 272.667273 95.689091 
z
" style="fill:#ff8c00;stroke:#ff8c00;stroke-linejoin:miter;"/>
   </g>
   <g id="patch_49">
    <path clip-path="url(#p94b3432e2f)" d="M 302.163636 125.185455 
L 331.66 125.185455 
L 331.66 95.689091 
L 302.163636 95.689091 
z
" style="fill:#ff8c00;stroke:#ff8c00;stroke-linejoin:miter;"/>
   </g>
   <g id="patch_50">
    <path clip-path="url(#p94b3432e2f)" d="M 331.66 125.185455 
L 361.156364 125.185455 
L 361.156364 95.689091 
L 331.66 95.689091 
z
" style="fill:#ff8c00;stroke:#ff8c00;stroke-linejoin:miter;"/>
   </g>
   <g id="patch_51">
    <path clip-path="url(#p94b3432e2f)" d="M 7.2 154.681818 
L 36.696364 154.681818 
L 36.696364 125.185455 
L 7.2 125.185455 
z
" style="fill:#ffd700;stroke:#ffd700;stroke-linejoin:miter;"/>
   </g>
   <g id="patch_52">
    <path clip-path="url(#p94b3432e2f)" d="M 36.696364 154.681818 
L 66.192727 154.681818 
L 66.192727 125.185455 
L 36.696364 125.185455 
z
" style="fill:#ff8c00;stroke:#ff8c00;stroke-linejoin:miter;"/>
   </g>
   <g id="patch_53">
    <path clip-path="url(#p94b3432e2f)" d="M 66.192727 154.681818 
L 95.689091 154.681818 
L 95.689091 125.185455 
L 66.192727 125.185455 
z
" style="fill:#ff8c00;stroke:#ff8c00;stroke-linejoin:miter;"/>
   </g>
   <g id="patch_54">
    <path clip-path="url(#p94b3432e2f)" d="M 95.689091 154.681818 
L 125.185455 154.681818 
L 125.185455 125.185455 
L 95.689091 125.185455 
z
" style="fill:#ffd700;stroke:#ffd700;stroke-linejoin:miter;"/>
   </g>
   <g id="patch_55">
    <path clip-path="url(#p94b3432e2f)" d="M 125.185455 154.681818 
L 154.681818 154.681818 
L 154.681818 125.185455 
L 125.185455 125.185455 
z
" style="fill:#ffd700;stroke:#ffd700;stroke-linejoin:miter;"/>
   </g>
   <g id="patch_56">
    <path clip-path="url(#p94b3432e2f)" d="M 154.681818 154.681818 
L 184.178182 154.681818 
L 184.178182 125.185455 
L 154.681818 125.185455 
z
" style="fill:#ff8c00;stroke:#ff8c00;stroke-linejoin:miter;"/>
   </g>
   <g id="patch_57">
    <path clip-path="url(#p94b3432e2f)" d="M 184.178182 154.681818 
L 213.674545 154.681818 
L 213.674545 125.185455 
L 184.178182 125.185455 
z
" style="fill:#ff8c00;stroke:#ff8c00;stroke-linejoin:miter;"/>
   </g>
   <g id="patch_58">
    <path clip-path="url(#p94b3432e2f)" d="M 213.674545 154.681818 
L 243.170909 154.681818 
L 243.170909 125.185455 
L 213.674545 125.185455 
z
" style="fill:#ff8c00;stroke:#ff8c00;stroke-linejoin:miter;"/>
   </g>
   <g id="patch_59">
    <path clip-path="url(#p94b3432e2f)" d="M 243.170909 154.681818 
L 272.667273 154.681818 
L 272.667273 125.185455 
L 243.170909 125.185455 
z
" style="fill:#ff8c00;stroke:#ff8c00;stroke-linejoin:miter;"/>
   </g>
   <g id="patch_60">
    <path clip-path="url(#p94b3432e2f)" d="M 272.667273 154.681818 
L 302.163636 154.681818 
L 302.163636 125.185455 
L 272.667273 125.185455 
z
" style="fill:#ff8c00;stroke:#ff8c00;stroke-linejoin:miter;"/>
   </g>
   <g id="patch_61">
    <path clip-path="url(#p94b3432e2f)" d="M 302.163636 154.681818 
L 331.66 154.681818 
L 331.66 125.185455 
L 302.163636 125.185455 
z
" style="fill:#ff8c00;stroke:#ff8c00;stroke-linejoin:miter;"/>
   </g>
   <g id="patch_62">
    <path clip-path="url(#p94b3432e2f)" d="M 331.66 154.681818 
L 361.156364 154.681818 
L 361.156364 125.185455 
L 331.66 125.185455 
z
" style="fill:#ff8c00;stroke:#ff8c00;stroke-linejoin:miter;"/>
   </g>
   <g id="patch_63">
    <path clip-path="url(#p94b3432e2f)" d="M 7.2 184.178182 
L 36.696364 184.178182 
L 36.696364 154.681818 
L 7.2 154.681818 
z
" style="fill:#ff8c00;stroke:#ff8c00;stroke-linejoin:miter;"/>
   </g>
   <g id="patch_64">
    <path clip-path="url(#p94b3432e2f)" d="M 36.696364 184.178182 
L 66.192727 184.178182 
L 66.192727 154.681818 
L 36.696364 154.681818 
z
" style="fill:#ff8c00;stroke:#ff8c00;stroke-linejoin:miter;"/>
   </g>
   <g id="patch_65">
    <path clip-path="url(#p94b3432e2f)" d="M 66.192727 184.178182 
L 95.689091 184.178182 
L 95.689091 154.681818 
L 66.192727 154.681818 
z
" style="fill:#ff8c00;stroke:#ff8c00;stroke-linejoin:miter;"/>
   </g>
   <g id="patch_66">
    <path clip-path="url(#p94b3432e2f)" d="M 95.689091 184.178182 
L 125.185455 184.178182 
L 125.185455 154.681818 
L 95.689091 154.681818 
z
" style="fill:#ff8c00;stroke:#ff8c00;stroke-linejoin:miter;"/>
   </g>
   <g id="patch_67">
    <path clip-path="url(#p94b3432e2f)" d="M 125.185455 184.178182 
L 154.681818 184.178182 
L 154.681818 154.681818 
L 125.185455 154.681818 
z
" style="fill:#ff8c00;stroke:#ff8c00;stroke-linejoin:miter;"/>
   </g>
   <g id="patch_68">
    <path clip-path="url(#p94b3432e2f)" d="M 154.681818 184.178182 
L 184.178182 184.178182 
L 184.178182 154.681818 
L 154.681818 154.681818 
z
" style="fill:#ffd700;stroke:#ffd700;stroke-linejoin:miter;"/>
   </g>
   <g id="patch_69">
    <path clip-path="url(#p94b3432e2f)" d="M 184.178182 184.178182 
L 213.674545 184.178182 
L 213.674545 154.681818 
L 184.178182 154.681818 
z
" style="fill:#ff8c00;stroke:#ff8c00;stroke-linejoin:miter;"/>
   </g>
   <g id="patch_70">
    <path clip-path="url(#p94b3432e2f)" d="M 213.674545 184.178182 
L 243.170909 184.178182 
L 243.170909 154.681818 
L 213.674545 154.681818 
z
" style="fill:#ff8c00;stroke:#ff8c00;stroke-linejoin:miter;"/>
   </g>
   <g id="patch_71">
    <path clip-path="url(#p94b3432e2f)" d="M 243.170909 184.178182 
L 272.667273 184.178182 
L 272.667273 154.681818 
L 243.170909 154.681818 
z
" style="fill:#ff8c00;stroke:#ff8c00;stroke-linejoin:miter;"/>
   </g>
   <g id="patch_72">
    <path clip-path="url(#p94b3432e2f)" d="M 272.667273 184.178182 
L 302.163636 184.178182 
L 302.163636 154.681818 
L 272.667273 154.681818 
z
" style="fill:#ff8c00;stroke:#ff8c00;stroke-linejoin:miter;"/>
   </g>
   <g id="patch_73">
    <path clip-path="url(#p94b3432e2f)" d="M 302.163636 184.178182 
L 331.66 184.178182 
L 331.66 154.681818 
L 302.163636 154.681818 
z
" style="fill:#ff8c00;stroke:#ff8c00;stroke-linejoin:miter;"/>
   </g>
   <g id="patch_74">
    <path clip-path="url(#p94b3432e2f)" d="M 331.66 184.178182 
L 361.156364 184.178182 
L 361.156364 154.681818 
L 331.66 154.681818 
z
" style="fill:#ff8c00;stroke:#ff8c00;stroke-linejoin:miter;"/>
   </g>
   <g id="patch_75">
    <path clip-path="url(#p94b3432e2f)" d="M 7.2 213.674545 
L 36.696364 213.674545 
L 36.696364 184.178182 
L 7.2 184.178182 
z
" style="fill:#ff8c00;stroke:#ff8c00;stroke-linejoin:miter;"/>
   </g>
   <g id="patch_76">
    <path clip-path="url(#p94b3432e2f)" d="M 36.696364 213.674545 
L 66.192727 213.674545 
L 66.192727 184.178182 
L 36.696364 184.178182 
z
" style="fill:#ff8c00;stroke:#ff8c00;stroke-linejoin:miter;"/>
   </g>
   <g id="patch_77">
    <path clip-path="url(#p94b3432e2f)" d="M 66.192727 213.674545 
L 95.689091 213.674545 
L 95.689091 184.178182 
L 66.192727 184.178182 
z
" style="fill:#ff8c00;stroke:#ff8c00;stroke-linejoin:miter;"/>
   </g>
   <g id="patch_78">
    <path clip-path="url(#p94b3432e2f)" d="M 95.689091 213.674545 
L 125.185455 213.674545 
L 125.185455 184.178182 
L 95.689091 184.178182 
z
" style="fill:#ff8c00;stroke:#ff8c00;stroke-linejoin:miter;"/>
   </g>
   <g id="patch_79">
    <path clip-path="url(#p94b3432e2f)" d="M 125.185455 213.674545 
L 154.681818 213.674545 
L 154.681818 184.178182 
L 125.185455 184.178182 
z
" style="fill:#ff8c00;stroke:#ff8c00;stroke-linejoin:miter;"/>
   </g>
   <g id="patch_80">
    <path clip-path="url(#p94b3432e2f)" d="M 154.681818 213.674545 
L 184.178182 213.674545 
L 184.178182 184.178182 
L 154.681818 184.178182 
z
" style="fill:#ff8c00;stroke:#ff8c00;stroke-linejoin:miter;"/>
   </g>
   <g id="patch_81">
    <path clip-path="url(#p94b3432e2f)" d="M 184.178182 213.674545 
L 213.674545 213.674545 
L 213.674545 184.178182 
L 184.178182 184.178182 
z
" style="fill:#ffd700;stroke:#ffd700;stroke-linejoin:miter;"/>
   </g>
   <g id="patch_82">
    <path clip-path="url(#p94b3432e2f)" d="M 213.674545 213.674545 
L 243.170909 213.674545 
L 243.170909 184.178182 
L 213.674545 184.178182 
z
" style="fill:#ff8c00;stroke:#ff8c00;stroke-linejoin:miter;"/>
   </g>
   <g id="patch_83">
    <path clip-path="url(#p94b3432e2f)" d="M 243.170909 213.674545 
L 272.667273 213.674545 
L 272.667273 184.178182 
L 243.170909 184.178182 
z
" style="fill:#ff8c00;stroke:#ff8c00;stroke-linejoin:miter;"/>
   </g>
   <g id="patch_84">
    <path clip-path="url(#p94b3432e2f)" d="M 272.667273 213.674545 
L 302.163636 213.674545 
L 302.163636 184.178182 
L 272.667273 184.178182 
z
" style="fill:#ff8c00;stroke:#ff8c00;stroke-linejoin:miter;"/>
   </g>
   <g id="patch_85">
    <path clip-path="url(#p94b3432e2f)" d="M 302.163636 213.674545 
L 331.66 213.674545 
L 331.66 184.178182 
L 302.163636 184.178182 
z
" style="fill:#ff8c00;stroke:#ff8c00;stroke-linejoin:miter;"/>
   </g>
   <g id="patch_86">
    <path clip-path="url(#p94b3432e2f)" d="M 331.66 213.674545 
L 361.156364 213.674545 
L 361.156364 184.178182 
L 331.66 184.178182 
z
" style="fill:#ff8c00;stroke:#ff8c00;stroke-linejoin:miter;"/>
   </g>
   <g id="patch_87">
    <path clip-path="url(#p94b3432e2f)" d="M 7.2 243.170909 
L 36.696364 243.170909 
L 36.696364 213.674545 
L 7.2 213.674545 
z
" style="fill:#ff8c00;stroke:#ff8c00;stroke-linejoin:miter;"/>
   </g>
   <g id="patch_88">
    <path clip-path="url(#p94b3432e2f)" d="M 36.696364 243.170909 
L 66.192727 243.170909 
L 66.192727 213.674545 
L 36.696364 213.674545 
z
" style="fill:#ff8c00;stroke:#ff8c00;stroke-linejoin:miter;"/>
   </g>
   <g id="patch_89">
    <path clip-path="url(#p94b3432e2f)" d="M 66.192727 243.170909 
L 95.689091 243.170909 
L 95.689091 213.674545 
L 66.192727 213.674545 
z
" style="fill:#ff8c00;stroke:#ff8c00;stroke-linejoin:miter;"/>
   </g>
   <g id="patch_90">
    <path clip-path="url(#p94b3432e2f)" d="M 95.689091 243.170909 
L 125.185455 243.170909 
L 125.185455 213.674545 
L 95.689091 213.674545 
z
" style="fill:#ff8c00;stroke:#ff8c00;stroke-linejoin:miter;"/>
   </g>
   <g id="patch_91">
    <path clip-path="url(#p94b3432e2f)" d="M 125.185455 243.170909 
L 154.681818 243.170909 
L 154.681818 213.674545 
L 125.185455 213.674545 
z
" style="fill:#ff8c00;stroke:#ff8c00;stroke-linejoin:miter;"/>
   </g>
   <g id="patch_92">
    <path clip-path="url(#p94b3432e2f)" d="M 154.681818 243.170909 
L 184.178182 243.170909 
L 184.178182 213.674545 
L 154.681818 213.674545 
z
" style="fill:#ffd700;stroke:#ffd700;stroke-linejoin:miter;"/>
   </g>
   <g id="patch_93">
    <path clip-path="url(#p94b3432e2f)" d="M 184.178182 243.170909 
L 213.674545 243.170909 
L 213.674545 213.674545 
L 184.178182 213.674545 
z
" style="fill:#ff8c00;stroke:#ff8c00;stroke-linejoin:miter;"/>
   </g>
   <g id="patch_94">
    <path clip-path="url(#p94b3432e2f)" d="M 213.674545 243.170909 
L 243.170909 243.170909 
L 243.170909 213.674545 
L 213.674545 213.674545 
z
" style="fill:#ff8c00;stroke:#ff8c00;stroke-linejoin:miter;"/>
   </g>
   <g id="patch_95">
    <path clip-path="url(#p94b3432e2f)" d="M 243.170909 243.170909 
L 272.667273 243.170909 
L 272.667273 213.674545 
L 243.170909 213.674545 
z
" style="fill:#ff8c00;stroke:#ff8c00;stroke-linejoin:miter;"/>
   </g>
   <g id="patch_96">
    <path clip-path="url(#p94b3432e2f)" d="M 272.667273 243.170909 
L 302.163636 243.170909 
L 302.163636 213.674545 
L 272.667273 213.674545 
z
" style="fill:#ff8c00;stroke:#ff8c00;stroke-linejoin:miter;"/>
   </g>
   <g id="patch_97">
    <path clip-path="url(#p94b3432e2f)" d="M 302.163636 243.170909 
L 331.66 243.170909 
L 331.66 213.674545 
L 302.163636 213.674545 
z
" style="fill:#ff8c00;stroke:#ff8c00;stroke-linejoin:miter;"/>
   </g>
   <g id="patch_98">
    <path clip-path="url(#p94b3432e2f)" d="M 331.66 243.170909 
L 361.156364 243.170909 
L 361.156364 213.674545 
L 331.66 213.674545 
z
" style="fill:#ff8c00;stroke:#ff8c00;stroke-linejoin:miter;"/>
   </g>
   <g id="patch_99">
    <path clip-path="url(#p94b3432e2f)" d="M 7.2 272.667273 
L 36.696364 272.667273 
L 36.696364 243.170909 
L 7.2 243.170909 
z
" style="fill:#ff8c00;stroke:#ff8c00;stroke-linejoin:miter;"/>
   </g>
   <g id="patch_100">
    <path clip-path="url(#p94b3432e2f)" d="M 36.696364 272.667273 
L 66.192727 272.667273 
L 66.192727 243.170909 
L 36.696364 243.170909 
z
" style="fill:#ff8c00;stroke:#ff8c00;stroke-linejoin:miter;"/>
   </g>
   <g id="patch_101">
    <path clip-path="url(#p94b3432e2f)" d="M 66.192727 272.667273 
L 95.689091 272.667273 
L 95.689091 243.170909 
L 66.192727 243.170909 
z
" style="fill:#ff8c00;stroke:#ff8c00;stroke-linejoin:miter;"/>
   </g>
   <g id="patch_102">
    <path clip-path="url(#p94b3432e2f)" d="M 95.689091 272.667273 
L 125.185455 272.667273 
L 125.185455 243.170909 
L 95.689091 243.170909 
z
" style="fill:#ff8c00;stroke:#ff8c00;stroke-linejoin:miter;"/>
   </g>
   <g id="patch_103">
    <path clip-path="url(#p94b3432e2f)" d="M 125.185455 272.667273 
L 154.681818 272.667273 
L 154.681818 243.170909 
L 125.185455 243.170909 
z
" style="fill:#ff8c00;stroke:#ff8c00;stroke-linejoin:miter;"/>
   </g>
   <g id="patch_104">
    <path clip-path="url(#p94b3432e2f)" d="M 154.681818 272.667273 
L 184.178182 272.667273 
L 184.178182 243.170909 
L 154.681818 243.170909 
z
" style="fill:#ff8c00;stroke:#ff8c00;stroke-linejoin:miter;"/>
   </g>
   <g id="patch_105">
    <path clip-path="url(#p94b3432e2f)" d="M 184.178182 272.667273 
L 213.674545 272.667273 
L 213.674545 243.170909 
L 184.178182 243.170909 
z
" style="fill:#ffd700;stroke:#ffd700;stroke-linejoin:miter;"/>
   </g>
   <g id="patch_106">
    <path clip-path="url(#p94b3432e2f)" d="M 213.674545 272.667273 
L 243.170909 272.667273 
L 243.170909 243.170909 
L 213.674545 243.170909 
z
" style="fill:#ff8c00;stroke:#ff8c00;stroke-linejoin:miter;"/>
   </g>
   <g id="patch_107">
    <path clip-path="url(#p94b3432e2f)" d="M 243.170909 272.667273 
L 272.667273 272.667273 
L 272.667273 243.170909 
L 243.170909 243.170909 
z
" style="fill:#ff8c00;stroke:#ff8c00;stroke-linejoin:miter;"/>
   </g>
   <g id="patch_108">
    <path clip-path="url(#p94b3432e2f)" d="M 272.667273 272.667273 
L 302.163636 272.667273 
L 302.163636 243.170909 
L 272.667273 243.170909 
z
" style="fill:#ff8c00;stroke:#ff8c00;stroke-linejoin:miter;"/>
   </g>
   <g id="patch_109">
    <path clip-path="url(#p94b3432e2f)" d="M 302.163636 272.667273 
L 331.66 272.667273 
L 331.66 243.170909 
L 302.163636 243.170909 
z
" style="fill:#ff8c00;stroke:#ff8c00;stroke-linejoin:miter;"/>
   </g>
   <g id="patch_110">
    <path clip-path="url(#p94b3432e2f)" d="M 331.66 272.667273 
L 361.156364 272.667273 
L 361.156364 243.170909 
L 331.66 243.170909 
z
" style="fill:#ff8c00;stroke:#ff8c00;stroke-linejoin:miter;"/>
   </g>
   <g id="patch_111">
    <path clip-path="url(#p94b3432e2f)" d="M 7.2 302.163636 
L 36.696364 302.163636 
L 36.696364 272.667273 
L 7.2 272.667273 
z
" style="fill:#ff8c00;stroke:#ff8c00;stroke-linejoin:miter;"/>
   </g>
   <g id="patch_112">
    <path clip-path="url(#p94b3432e2f)" d="M 36.696364 302.163636 
L 66.192727 302.163636 
L 66.192727 272.667273 
L 36.696364 272.667273 
z
" style="fill:#ff8c00;stroke:#ff8c00;stroke-linejoin:miter;"/>
   </g>
   <g id="patch_113">
    <path clip-path="url(#p94b3432e2f)" d="M 66.192727 302.163636 
L 95.689091 302.163636 
L 95.689091 272.667273 
L 66.192727 272.667273 
z
" style="fill:#ff8c00;stroke:#ff8c00;stroke-linejoin:miter;"/>
   </g>
   <g id="patch_114">
    <path clip-path="url(#p94b3432e2f)" d="M 95.689091 302.163636 
L 125.185455 302.163636 
L 125.185455 272.667273 
L 95.689091 272.667273 
z
" style="fill:#ff8c00;stroke:#ff8c00;stroke-linejoin:miter;"/>
   </g>
   <g id="patch_115">
    <path clip-path="url(#p94b3432e2f)" d="M 125.185455 302.163636 
L 154.681818 302.163636 
L 154.681818 272.667273 
L 125.185455 272.667273 
z
" style="fill:#ff8c00;stroke:#ff8c00;stroke-linejoin:miter;"/>
   </g>
   <g id="patch_116">
    <path clip-path="url(#p94b3432e2f)" d="M 154.681818 302.163636 
L 184.178182 302.163636 
L 184.178182 272.667273 
L 154.681818 272.667273 
z
" style="fill:#ff8c00;stroke:#ff8c00;stroke-linejoin:miter;"/>
   </g>
   <g id="patch_117">
    <path clip-path="url(#p94b3432e2f)" d="M 184.178182 302.163636 
L 213.674545 302.163636 
L 213.674545 272.667273 
L 184.178182 272.667273 
z
" style="fill:#ff8c00;stroke:#ff8c00;stroke-linejoin:miter;"/>
   </g>
   <g id="patch_118">
    <path clip-path="url(#p94b3432e2f)" d="M 213.674545 302.163636 
L 243.170909 302.163636 
L 243.170909 272.667273 
L 213.674545 272.667273 
z
" style="fill:#ffd700;stroke:#ffd700;stroke-linejoin:miter;"/>
   </g>
   <g id="patch_119">
    <path clip-path="url(#p94b3432e2f)" d="M 243.170909 302.163636 
L 272.667273 302.163636 
L 272.667273 272.667273 
L 243.170909 272.667273 
z
" style="fill:#ff8c00;stroke:#ff8c00;stroke-linejoin:miter;"/>
   </g>
   <g id="patch_120">
    <path clip-path="url(#p94b3432e2f)" d="M 272.667273 302.163636 
L 302.163636 302.163636 
L 302.163636 272.667273 
L 272.667273 272.667273 
z
" style="fill:#ff8c00;stroke:#ff8c00;stroke-linejoin:miter;"/>
   </g>
   <g id="patch_121">
    <path clip-path="url(#p94b3432e2f)" d="M 302.163636 302.163636 
L 331.66 302.163636 
L 331.66 272.667273 
L 302.163636 272.667273 
z
" style="fill:#ff8c00;stroke:#ff8c00;stroke-linejoin:miter;"/>
   </g>
   <g id="patch_122">
    <path clip-path="url(#p94b3432e2f)" d="M 331.66 302.163636 
L 361.156364 302.163636 
L 361.156364 272.667273 
L 331.66 272.667273 
z
" style="fill:#ff8c00;stroke:#ff8c00;stroke-linejoin:miter;"/>
   </g>
   <g id="patch_123">
    <path clip-path="url(#p94b3432e2f)" d="M 7.2 331.66 
L 36.696364 331.66 
L 36.696364 302.163636 
L 7.2 302.163636 
z
" style="fill:#ff8c00;stroke:#ff8c00;stroke-linejoin:miter;"/>
   </g>
   <g id="patch_124">
    <path clip-path="url(#p94b3432e2f)" d="M 36.696364 331.66 
L 66.192727 331.66 
L 66.192727 302.163636 
L 36.696364 302.163636 
z
" style="fill:#ff8c00;stroke:#ff8c00;stroke-linejoin:miter;"/>
   </g>
   <g id="patch_125">
    <path clip-path="url(#p94b3432e2f)" d="M 66.192727 331.66 
L 95.689091 331.66 
L 95.689091 302.163636 
L 66.192727 302.163636 
z
" style="fill:#ff8c00;stroke:#ff8c00;stroke-linejoin:miter;"/>
   </g>
   <g id="patch_126">
    <path clip-path="url(#p94b3432e2f)" d="M 95.689091 331.66 
L 125.185455 331.66 
L 125.185455 302.163636 
L 95.689091 302.163636 
z
" style="fill:#ff8c00;stroke:#ff8c00;stroke-linejoin:miter;"/>
   </g>
   <g id="patch_127">
    <path clip-path="url(#p94b3432e2f)" d="M 125.185455 331.66 
L 154.681818 331.66 
L 154.681818 302.163636 
L 125.185455 302.163636 
z
" style="fill:#ff8c00;stroke:#ff8c00;stroke-linejoin:miter;"/>
   </g>
   <g id="patch_128">
    <path clip-path="url(#p94b3432e2f)" d="M 154.681818 331.66 
L 184.178182 331.66 
L 184.178182 302.163636 
L 154.681818 302.163636 
z
" style="fill:#ff8c00;stroke:#ff8c00;stroke-linejoin:miter;"/>
   </g>
   <g id="patch_129">
    <path clip-path="url(#p94b3432e2f)" d="M 184.178182 331.66 
L 213.674545 331.66 
L 213.674545 302.163636 
L 184.178182 302.163636 
z
" style="fill:#ffd700;stroke:#ffd700;stroke-linejoin:miter;"/>
   </g>
   <g id="patch_130">
    <path clip-path="url(#p94b3432e2f)" d="M 213.674545 331.66 
L 243.170909 331.66 
L 243.170909 302.163636 
L 213.674545 302.163636 
z
" style="fill:#ff8c00;stroke:#ff8c00;stroke-linejoin:miter;"/>
   </g>
   <g id="patch_131">
    <path clip-path="url(#p94b3432e2f)" d="M 243.170909 331.66 
L 272.667273 331.66 
L 272.667273 302.163636 
L 243.170909 302.163636 
z
" style="fill:#ff8c00;stroke:#ff8c00;stroke-linejoin:miter;"/>
   </g>
   <g id="patch_132">
    <path clip-path="url(#p94b3432e2f)" d="M 272.667273 331.66 
L 302.163636 331.66 
L 302.163636 302.163636 
L 272.667273 302.163636 
z
" style="fill:#ff8c00;stroke:#ff8c00;stroke-linejoin:miter;"/>
   </g>
   <g id="patch_133">
    <path clip-path="url(#p94b3432e2f)" d="M 302.163636 331.66 
L 331.66 331.66 
L 331.66 302.163636 
L 302.163636 302.163636 
z
" style="fill:#ff8c00;stroke:#ff8c00;stroke-linejoin:miter;"/>
   </g>
   <g id="patch_134">
    <path clip-path="url(#p94b3432e2f)" d="M 331.66 331.66 
L 361.156364 331.66 
L 361.156364 302.163636 
L 331.66 302.163636 
z
" style="fill:#ff8c00;stroke:#ff8c00;stroke-linejoin:miter;"/>
   </g>
   <g id="matplotlib.axis_1">
    <g id="xtick_1">
     <g id="line2d_1">
      <path clip-path="url(#p94b3432e2f)" d="M 7.2 331.66 
L 7.2 7.2 
" style="fill:none;stroke:#000000;stroke-linecap:square;stroke-width:2;"/>
     </g>
    </g>
    <g id="xtick_2">
     <g id="line2d_2">
      <path clip-path="url(#p94b3432e2f)" d="M 36.696364 331.66 
L 36.696364 7.2 
" style="fill:none;stroke:#000000;stroke-linecap:square;stroke-width:2;"/>
     </g>
    </g>
    <g id="xtick_3">
     <g id="line2d_3">
      <path clip-path="url(#p94b3432e2f)" d="M 66.192727 331.66 
L 66.192727 7.2 
" style="fill:none;stroke:#000000;stroke-linecap:square;stroke-width:2;"/>
     </g>
    </g>
    <g id="xtick_4">
     <g id="line2d_4">
      <path clip-path="url(#p94b3432e2f)" d="M 95.689091 331.66 
L 95.689091 7.2 
" style="fill:none;stroke:#000000;stroke-linecap:square;stroke-width:2;"/>
     </g>
    </g>
    <g id="xtick_5">
     <g id="line2d_5">
      <path clip-path="url(#p94b3432e2f)" d="M 125.185455 331.66 
L 125.185455 7.2 
" style="fill:none;stroke:#000000;stroke-linecap:square;stroke-width:2;"/>
     </g>
    </g>
    <g id="xtick_6">
     <g id="line2d_6">
      <path clip-path="url(#p94b3432e2f)" d="M 154.681818 331.66 
L 154.681818 7.2 
" style="fill:none;stroke:#000000;stroke-linecap:square;stroke-width:2;"/>
     </g>
    </g>
    <g id="xtick_7">
     <g id="line2d_7">
      <path clip-path="url(#p94b3432e2f)" d="M 184.178182 331.66 
L 184.178182 7.2 
" style="fill:none;stroke:#000000;stroke-linecap:square;stroke-width:2;"/>
     </g>
    </g>
    <g id="xtick_8">
     <g id="line2d_8">
      <path clip-path="url(#p94b3432e2f)" d="M 213.674545 331.66 
L 213.674545 7.2 
" style="fill:none;stroke:#000000;stroke-linecap:square;stroke-width:2;"/>
     </g>
    </g>
    <g id="xtick_9">
     <g id="line2d_9">
      <path clip-path="url(#p94b3432e2f)" d="M 243.170909 331.66 
L 243.170909 7.2 
" style="fill:none;stroke:#000000;stroke-linecap:square;stroke-width:2;"/>
     </g>
    </g>
    <g id="xtick_10">
     <g id="line2d_10">
      <path clip-path="url(#p94b3432e2f)" d="M 272.667273 331.66 
L 272.667273 7.2 
" style="fill:none;stroke:#000000;stroke-linecap:square;stroke-width:2;"/>
     </g>
    </g>
    <g id="xtick_11">
     <g id="line2d_11">
      <path clip-path="url(#p94b3432e2f)" d="M 302.163636 331.66 
L 302.163636 7.2 
" style="fill:none;stroke:#000000;stroke-linecap:square;stroke-width:2;"/>
     </g>
    </g>
    <g id="xtick_12">
     <g id="line2d_12">
      <path clip-path="url(#p94b3432e2f)" d="M 331.66 331.66 
L 331.66 7.2 
" style="fill:none;stroke:#000000;stroke-linecap:square;stroke-width:2;"/>
     </g>
    </g>
    <g id="xtick_13">
     <g id="line2d_13">
      <path clip-path="url(#p94b3432e2f)" d="M 361.156364 331.66 
L 361.156364 7.2 
" style="fill:none;stroke:#000000;stroke-linecap:square;stroke-width:2;"/>
     </g>
    </g>
   </g>
   <g id="matplotlib.axis_2">
    <g id="ytick_1">
     <g id="line2d_14">
      <path clip-path="url(#p94b3432e2f)" d="M 7.2 331.66 
L 361.156364 331.66 
" style="fill:none;stroke:#000000;stroke-linecap:square;stroke-width:2;"/>
     </g>
    </g>
    <g id="ytick_2">
     <g id="line2d_15">
      <path clip-path="url(#p94b3432e2f)" d="M 7.2 302.163636 
L 361.156364 302.163636 
" style="fill:none;stroke:#000000;stroke-linecap:square;stroke-width:2;"/>
     </g>
    </g>
    <g id="ytick_3">
     <g id="line2d_16">
      <path clip-path="url(#p94b3432e2f)" d="M 7.2 272.667273 
L 361.156364 272.667273 
" style="fill:none;stroke:#000000;stroke-linecap:square;stroke-width:2;"/>
     </g>
    </g>
    <g id="ytick_4">
     <g id="line2d_17">
      <path clip-path="url(#p94b3432e2f)" d="M 7.2 243.170909 
L 361.156364 243.170909 
" style="fill:none;stroke:#000000;stroke-linecap:square;stroke-width:2;"/>
     </g>
    </g>
    <g id="ytick_5">
     <g id="line2d_18">
      <path clip-path="url(#p94b3432e2f)" d="M 7.2 213.674545 
L 361.156364 213.674545 
" style="fill:none;stroke:#000000;stroke-linecap:square;stroke-width:2;"/>
     </g>
    </g>
    <g id="ytick_6">
     <g id="line2d_19">
      <path clip-path="url(#p94b3432e2f)" d="M 7.2 184.178182 
L 361.156364 184.178182 
" style="fill:none;stroke:#000000;stroke-linecap:square;stroke-width:2;"/>
     </g>
    </g>
    <g id="ytick_7">
     <g id="line2d_20">
      <path clip-path="url(#p94b3432e2f)" d="M 7.2 154.681818 
L 361.156364 154.681818 
" style="fill:none;stroke:#000000;stroke-linecap:square;stroke-width:2;"/>
     </g>
    </g>
    <g id="ytick_8">
     <g id="line2d_21">
      <path clip-path="url(#p94b3432e2f)" d="M 7.2 125.185455 
L 361.156364 125.185455 
" style="fill:none;stroke:#000000;stroke-linecap:square;stroke-width:2;"/>
     </g>
    </g>
    <g id="ytick_9">
     <g id="line2d_22">
      <path clip-path="url(#p94b3432e2f)" d="M 7.2 95.689091 
L 361.156364 95.689091 
" style="fill:none;stroke:#000000;stroke-linecap:square;stroke-width:2;"/>
     </g>
    </g>
    <g id="ytick_10">
     <g id="line2d_23">
      <path clip-path="url(#p94b3432e2f)" d="M 7.2 66.192727 
L 361.156364 66.192727 
" style="fill:none;stroke:#000000;stroke-linecap:square;stroke-width:2;"/>
     </g>
    </g>
    <g id="ytick_11">
     <g id="line2d_24">
      <path clip-path="url(#p94b3432e2f)" d="M 7.2 36.696364 
L 361.156364 36.696364 
" style="fill:none;stroke:#000000;stroke-linecap:square;stroke-width:2;"/>
     </g>
    </g>
    <g id="ytick_12">
     <g id="line2d_25">
      <path clip-path="url(#p94b3432e2f)" d="M 7.2 7.2 
L 361.156364 7.2 
" style="fill:none;stroke:#000000;stroke-linecap:square;stroke-width:2;"/>
     </g>
    </g>
   </g>
   <g id="patch_135">
    <path d="M 7.2 331.66 
L 7.2 7.2 
" style="fill:none;stroke:#000000;stroke-linecap:square;stroke-linejoin:miter;stroke-width:2;"/>
   </g>
   <g id="patch_136">
    <path d="M 361.156364 331.66 
L 361.156364 7.2 
" style="fill:none;stroke:#000000;stroke-linecap:square;stroke-linejoin:miter;stroke-width:2;"/>
   </g>
   <g id="patch_137">
    <path d="M 7.2 331.66 
L 361.156364 331.66 
" style="fill:none;stroke:#000000;stroke-linecap:square;stroke-linejoin:miter;stroke-width:2;"/>
   </g>
   <g id="patch_138">
    <path d="M 7.2 7.2 
L 361.156364 7.2 
" style="fill:none;stroke:#000000;stroke-linecap:square;stroke-linejoin:miter;stroke-width:2;"/>
   </g>
  </g>
 </g>
 <defs>
  <clipPath id="p94b3432e2f">
   <rect height="324.46" width="353.956364" x="7.2" y="7.2"/>
  </clipPath>
 </defs>
</svg>
