<?xml version="1.0" encoding="utf-8" standalone="no"?>
<!DOCTYPE svg PUBLIC "-//W3C//DTD SVG 1.1//EN"
  "http://www.w3.org/Graphics/SVG/1.1/DTD/svg11.dtd">
<!-- Created with matplotlib (https://matplotlib.org/) -->
<svg height="338.86pt" version="1.1" viewBox="0 0 403.752 338.86" width="403.752pt" xmlns="http://www.w3.org/2000/svg" xmlns:xlink="http://www.w3.org/1999/xlink">
 <defs>
  <style type="text/css">
*{stroke-linecap:butt;stroke-linejoin:round;}
  </style>
 </defs>
 <g id="figure_1">
  <g id="patch_1">
   <path d="M 0 338.86 
L 403.752 338.86 
L 403.752 0 
L 0 0 
z
" style="fill:#ffffff;"/>
  </g>
  <g id="axes_1">
   <g id="patch_2">
    <path d="M 7.2 331.66 
L 396.552 331.66 
L 396.552 7.2 
L 7.2 7.2 
z
" style="fill:#ffffff;"/>
   </g>
   <g id="patch_3">
    <path clip-path="url(#p14b62985f6)" d="M 7.2 39.646 
L 39.646 39.646 
L 39.646 7.2 
L 7.2 7.2 
z
" style="fill:#ff1493;stroke:#ff1493;stroke-linejoin:miter;"/>
   </g>
   <g id="patch_4">
    <path clip-path="url(#p14b62985f6)" d="M 39.646 39.646 
L 72.092 39.646 
L 72.092 7.2 
L 39.646 7.2 
z
" style="fill:#ff8c00;stroke:#ff8c00;stroke-linejoin:miter;"/>
   </g>
   <g id="patch_5">
    <path clip-path="url(#p14b62985f6)" d="M 72.092 39.646 
L 104.538 39.646 
L 104.538 7.2 
L 72.092 7.2 
z
" style="fill:#6a5acd;stroke:#6a5acd;stroke-linejoin:miter;"/>
   </g>
   <g id="patch_6">
    <path clip-path="url(#p14b62985f6)" d="M 104.538 39.646 
L 136.984 39.646 
L 136.984 7.2 
L 104.538 7.2 
z
" style="fill:#228b22;stroke:#228b22;stroke-linejoin:miter;"/>
   </g>
   <g id="patch_7">
    <path clip-path="url(#p14b62985f6)" d="M 136.984 39.646 
L 169.43 39.646 
L 169.43 7.2 
L 136.984 7.2 
z
" style="fill:#6a5acd;stroke:#6a5acd;stroke-linejoin:miter;"/>
   </g>
   <g id="patch_8">
    <path clip-path="url(#p14b62985f6)" d="M 169.43 39.646 
L 201.876 39.646 
L 201.876 7.2 
L 169.43 7.2 
z
" style="fill:#ff1493;stroke:#ff1493;stroke-linejoin:miter;"/>
   </g>
   <g id="patch_9">
    <path clip-path="url(#p14b62985f6)" d="M 201.876 39.646 
L 234.322 39.646 
L 234.322 7.2 
L 201.876 7.2 
z
" style="fill:#ff1493;stroke:#ff1493;stroke-linejoin:miter;"/>
   </g>
   <g id="patch_10">
    <path clip-path="url(#p14b62985f6)" d="M 234.322 39.646 
L 266.768 39.646 
L 266.768 7.2 
L 234.322 7.2 
z
" style="fill:#6a5acd;stroke:#6a5acd;stroke-linejoin:miter;"/>
   </g>
   <g id="patch_11">
    <path clip-path="url(#p14b62985f6)" d="M 266.768 39.646 
L 299.214 39.646 
L 299.214 7.2 
L 266.768 7.2 
z
" style="fill:#228b22;stroke:#228b22;stroke-linejoin:miter;"/>
   </g>
   <g id="patch_12">
    <path clip-path="url(#p14b62985f6)" d="M 299.214 39.646 
L 331.66 39.646 
L 331.66 7.2 
L 299.214 7.2 
z
" style="fill:#6a5acd;stroke:#6a5acd;stroke-linejoin:miter;"/>
   </g>
   <g id="patch_13">
    <path clip-path="url(#p14b62985f6)" d="M 331.66 39.646 
L 364.106 39.646 
L 364.106 7.2 
L 331.66 7.2 
z
" style="fill:#ff8c00;stroke:#ff8c00;stroke-linejoin:miter;"/>
   </g>
   <g id="patch_14">
    <path clip-path="url(#p14b62985f6)" d="M 364.106 39.646 
L 396.552 39.646 
L 396.552 7.2 
L 364.106 7.2 
z
" style="fill:#ff1493;stroke:#ff1493;stroke-linejoin:miter;"/>
   </g>
   <g id="patch_15">
    <path clip-path="url(#p14b62985f6)" d="M 7.2 72.092 
L 39.646 72.092 
L 39.646 39.646 
L 7.2 39.646 
z
" style="fill:#ff8c00;stroke:#ff8c00;stroke-linejoin:miter;"/>
   </g>
   <g id="patch_16">
    <path clip-path="url(#p14b62985f6)" d="M 39.646 72.092 
L 72.092 72.092 
L 72.092 39.646 
L 39.646 39.646 
z
" style="fill:#228b22;stroke:#228b22;stroke-linejoin:miter;"/>
   </g>
   <g id="patch_17">
    <path clip-path="url(#p14b62985f6)" d="M 72.092 72.092 
L 104.538 72.092 
L 104.538 39.646 
L 72.092 39.646 
z
" style="fill:#6a5acd;stroke:#6a5acd;stroke-linejoin:miter;"/>
   </g>
   <g id="patch_18">
    <path clip-path="url(#p14b62985f6)" d="M 104.538 72.092 
L 136.984 72.092 
L 136.984 39.646 
L 104.538 39.646 
z
" style="fill:#228b22;stroke:#228b22;stroke-linejoin:miter;"/>
   </g>
   <g id="patch_19">
    <path clip-path="url(#p14b62985f6)" d="M 136.984 72.092 
L 169.43 72.092 
L 169.43 39.646 
L 136.984 39.646 
z
" style="fill:#6a5acd;stroke:#6a5acd;stroke-linejoin:miter;"/>
   </g>
   <g id="patch_20">
    <path clip-path="url(#p14b62985f6)" d="M 169.43 72.092 
L 201.876 72.092 
L 201.876 39.646 
L 169.43 39.646 
z
" style="fill:#ff1493;stroke:#ff1493;stroke-linejoin:miter;"/>
   </g>
   <g id="patch_21">
    <path clip-path="url(#p14b62985f6)" d="M 201.876 72.092 
L 234.322 72.092 
L 234.322 39.646 
L 201.876 39.646 
z
" style="fill:#ff1493;stroke:#ff1493;stroke-linejoin:miter;"/>
   </g>
   <g id="patch_22">
    <path clip-path="url(#p14b62985f6)" d="M 234.322 72.092 
L 266.768 72.092 
L 266.768 39.646 
L 234.322 39.646 
z
" style="fill:#6a5acd;stroke:#6a5acd;stroke-linejoin:miter;"/>
   </g>
   <g id="patch_23">
    <path clip-path="url(#p14b62985f6)" d="M 266.768 72.092 
L 299.214 72.092 
L 299.214 39.646 
L 266.768 39.646 
z
" style="fill:#228b22;stroke:#228b22;stroke-linejoin:miter;"/>
   </g>
   <g id="patch_24">
    <path clip-path="url(#p14b62985f6)" d="M 299.214 72.092 
L 331.66 72.092 
L 331.66 39.646 
L 299.214 39.646 
z
" style="fill:#6a5acd;stroke:#6a5acd;stroke-linejoin:miter;"/>
   </g>
   <g id="patch_25">
    <path clip-path="url(#p14b62985f6)" d="M 331.66 72.092 
L 364.106 72.092 
L 364.106 39.646 
L 331.66 39.646 
z
" style="fill:#228b22;stroke:#228b22;stroke-linejoin:miter;"/>
   </g>
   <g id="patch_26">
    <path clip-path="url(#p14b62985f6)" d="M 364.106 72.092 
L 396.552 72.092 
L 396.552 39.646 
L 364.106 39.646 
z
" style="fill:#ff8c00;stroke:#ff8c00;stroke-linejoin:miter;"/>
   </g>
   <g id="patch_27">
    <path clip-path="url(#p14b62985f6)" d="M 7.2 104.538 
L 39.646 104.538 
L 39.646 72.092 
L 7.2 72.092 
z
" style="fill:#228b22;stroke:#228b22;stroke-linejoin:miter;"/>
   </g>
   <g id="patch_28">
    <path clip-path="url(#p14b62985f6)" d="M 39.646 104.538 
L 72.092 104.538 
L 72.092 72.092 
L 39.646 72.092 
z
" style="fill:#ffd700;stroke:#ffd700;stroke-linejoin:miter;"/>
   </g>
   <g id="patch_29">
    <path clip-path="url(#p14b62985f6)" d="M 72.092 104.538 
L 104.538 104.538 
L 104.538 72.092 
L 72.092 72.092 
z
" style="fill:#6a5acd;stroke:#6a5acd;stroke-linejoin:miter;"/>
   </g>
   <g id="patch_30">
    <path clip-path="url(#p14b62985f6)" d="M 104.538 104.538 
L 136.984 104.538 
L 136.984 72.092 
L 104.538 72.092 
z
" style="fill:#6a5acd;stroke:#6a5acd;stroke-linejoin:miter;"/>
   </g>
   <g id="patch_31">
    <path clip-path="url(#p14b62985f6)" d="M 136.984 104.538 
L 169.43 104.538 
L 169.43 72.092 
L 136.984 72.092 
z
" style="fill:#ff1493;stroke:#ff1493;stroke-linejoin:miter;"/>
   </g>
   <g id="patch_32">
    <path clip-path="url(#p14b62985f6)" d="M 169.43 104.538 
L 201.876 104.538 
L 201.876 72.092 
L 169.43 72.092 
z
" style="fill:#ffd700;stroke:#ffd700;stroke-linejoin:miter;"/>
   </g>
   <g id="patch_33">
    <path clip-path="url(#p14b62985f6)" d="M 201.876 104.538 
L 234.322 104.538 
L 234.322 72.092 
L 201.876 72.092 
z
" style="fill:#ffd700;stroke:#ffd700;stroke-linejoin:miter;"/>
   </g>
   <g id="patch_34">
    <path clip-path="url(#p14b62985f6)" d="M 234.322 104.538 
L 266.768 104.538 
L 266.768 72.092 
L 234.322 72.092 
z
" style="fill:#ff1493;stroke:#ff1493;stroke-linejoin:miter;"/>
   </g>
   <g id="patch_35">
    <path clip-path="url(#p14b62985f6)" d="M 266.768 104.538 
L 299.214 104.538 
L 299.214 72.092 
L 266.768 72.092 
z
" style="fill:#6a5acd;stroke:#6a5acd;stroke-linejoin:miter;"/>
   </g>
   <g id="patch_36">
    <path clip-path="url(#p14b62985f6)" d="M 299.214 104.538 
L 331.66 104.538 
L 331.66 72.092 
L 299.214 72.092 
z
" style="fill:#6a5acd;stroke:#6a5acd;stroke-linejoin:miter;"/>
   </g>
   <g id="patch_37">
    <path clip-path="url(#p14b62985f6)" d="M 331.66 104.538 
L 364.106 104.538 
L 364.106 72.092 
L 331.66 72.092 
z
" style="fill:#ffd700;stroke:#ffd700;stroke-linejoin:miter;"/>
   </g>
   <g id="patch_38">
    <path clip-path="url(#p14b62985f6)" d="M 364.106 104.538 
L 396.552 104.538 
L 396.552 72.092 
L 364.106 72.092 
z
" style="fill:#228b22;stroke:#228b22;stroke-linejoin:miter;"/>
   </g>
   <g id="patch_39">
    <path clip-path="url(#p14b62985f6)" d="M 7.2 136.984 
L 39.646 136.984 
L 39.646 104.538 
L 7.2 104.538 
z
" style="fill:#ffd700;stroke:#ffd700;stroke-linejoin:miter;"/>
   </g>
   <g id="patch_40">
    <path clip-path="url(#p14b62985f6)" d="M 39.646 136.984 
L 72.092 136.984 
L 72.092 104.538 
L 39.646 104.538 
z
" style="fill:#228b22;stroke:#228b22;stroke-linejoin:miter;"/>
   </g>
   <g id="patch_41">
    <path clip-path="url(#p14b62985f6)" d="M 72.092 136.984 
L 104.538 136.984 
L 104.538 104.538 
L 72.092 104.538 
z
" style="fill:#6a5acd;stroke:#6a5acd;stroke-linejoin:miter;"/>
   </g>
   <g id="patch_42">
    <path clip-path="url(#p14b62985f6)" d="M 104.538 136.984 
L 136.984 136.984 
L 136.984 104.538 
L 104.538 104.538 
z
" style="fill:#ff8c00;stroke:#ff8c00;stroke-linejoin:miter;"/>
   </g>
   <g id="patch_43">
    <path clip-path="url(#p14b62985f6)" d="M 136.984 136.984 
L 169.43 136.984 
L 169.43 104.538 
L 136.984 104.538 
z
" style="fill:#228b22;stroke:#228b22;stroke-linejoin:miter;"/>
   </g>
   <g id="patch_44">
    <path clip-path="url(#p14b62985f6)" d="M 169.43 136.984 
L 201.876 136.984 
L 201.876 104.538 
L 169.43 104.538 
z
" style="fill:#ff1493;stroke:#ff1493;stroke-linejoin:miter;"/>
   </g>
   <g id="patch_45">
    <path clip-path="url(#p14b62985f6)" d="M 201.876 136.984 
L 234.322 136.984 
L 234.322 104.538 
L 201.876 104.538 
z
" style="fill:#ff1493;stroke:#ff1493;stroke-linejoin:miter;"/>
   </g>
   <g id="patch_46">
    <path clip-path="url(#p14b62985f6)" d="M 234.322 136.984 
L 266.768 136.984 
L 266.768 104.538 
L 234.322 104.538 
z
" style="fill:#228b22;stroke:#228b22;stroke-linejoin:miter;"/>
   </g>
   <g id="patch_47">
    <path clip-path="url(#p14b62985f6)" d="M 266.768 136.984 
L 299.214 136.984 
L 299.214 104.538 
L 266.768 104.538 
z
" style="fill:#ff8c00;stroke:#ff8c00;stroke-linejoin:miter;"/>
   </g>
   <g id="patch_48">
    <path clip-path="url(#p14b62985f6)" d="M 299.214 136.984 
L 331.66 136.984 
L 331.66 104.538 
L 299.214 104.538 
z
" style="fill:#6a5acd;stroke:#6a5acd;stroke-linejoin:miter;"/>
   </g>
   <g id="patch_49">
    <path clip-path="url(#p14b62985f6)" d="M 331.66 136.984 
L 364.106 136.984 
L 364.106 104.538 
L 331.66 104.538 
z
" style="fill:#228b22;stroke:#228b22;stroke-linejoin:miter;"/>
   </g>
   <g id="patch_50">
    <path clip-path="url(#p14b62985f6)" d="M 364.106 136.984 
L 396.552 136.984 
L 396.552 104.538 
L 364.106 104.538 
z
" style="fill:#ffd700;stroke:#ffd700;stroke-linejoin:miter;"/>
   </g>
   <g id="patch_51">
    <path clip-path="url(#p14b62985f6)" d="M 7.2 169.43 
L 39.646 169.43 
L 39.646 136.984 
L 7.2 136.984 
z
" style="fill:#6a5acd;stroke:#6a5acd;stroke-linejoin:miter;"/>
   </g>
   <g id="patch_52">
    <path clip-path="url(#p14b62985f6)" d="M 39.646 169.43 
L 72.092 169.43 
L 72.092 136.984 
L 39.646 136.984 
z
" style="fill:#fffafa;stroke:#fffafa;stroke-linejoin:miter;"/>
   </g>
   <g id="patch_53">
    <path clip-path="url(#p14b62985f6)" d="M 72.092 169.43 
L 104.538 169.43 
L 104.538 136.984 
L 72.092 136.984 
z
" style="fill:#fffafa;stroke:#fffafa;stroke-linejoin:miter;"/>
   </g>
   <g id="patch_54">
    <path clip-path="url(#p14b62985f6)" d="M 104.538 169.43 
L 136.984 169.43 
L 136.984 136.984 
L 104.538 136.984 
z
" style="fill:#ff8c00;stroke:#ff8c00;stroke-linejoin:miter;"/>
   </g>
   <g id="patch_55">
    <path clip-path="url(#p14b62985f6)" d="M 136.984 169.43 
L 169.43 169.43 
L 169.43 136.984 
L 136.984 136.984 
z
" style="fill:#228b22;stroke:#228b22;stroke-linejoin:miter;"/>
   </g>
   <g id="patch_56">
    <path clip-path="url(#p14b62985f6)" d="M 169.43 169.43 
L 201.876 169.43 
L 201.876 136.984 
L 169.43 136.984 
z
" style="fill:#ffd700;stroke:#ffd700;stroke-linejoin:miter;"/>
   </g>
   <g id="patch_57">
    <path clip-path="url(#p14b62985f6)" d="M 201.876 169.43 
L 234.322 169.43 
L 234.322 136.984 
L 201.876 136.984 
z
" style="fill:#ffd700;stroke:#ffd700;stroke-linejoin:miter;"/>
   </g>
   <g id="patch_58">
    <path clip-path="url(#p14b62985f6)" d="M 234.322 169.43 
L 266.768 169.43 
L 266.768 136.984 
L 234.322 136.984 
z
" style="fill:#228b22;stroke:#228b22;stroke-linejoin:miter;"/>
   </g>
   <g id="patch_59">
    <path clip-path="url(#p14b62985f6)" d="M 266.768 169.43 
L 299.214 169.43 
L 299.214 136.984 
L 266.768 136.984 
z
" style="fill:#ff8c00;stroke:#ff8c00;stroke-linejoin:miter;"/>
   </g>
   <g id="patch_60">
    <path clip-path="url(#p14b62985f6)" d="M 299.214 169.43 
L 331.66 169.43 
L 331.66 136.984 
L 299.214 136.984 
z
" style="fill:#ffd700;stroke:#ffd700;stroke-linejoin:miter;"/>
   </g>
   <g id="patch_61">
    <path clip-path="url(#p14b62985f6)" d="M 331.66 169.43 
L 364.106 169.43 
L 364.106 136.984 
L 331.66 136.984 
z
" style="fill:#ff1493;stroke:#ff1493;stroke-linejoin:miter;"/>
   </g>
   <g id="patch_62">
    <path clip-path="url(#p14b62985f6)" d="M 364.106 169.43 
L 396.552 169.43 
L 396.552 136.984 
L 364.106 136.984 
z
" style="fill:#6a5acd;stroke:#6a5acd;stroke-linejoin:miter;"/>
   </g>
   <g id="patch_63">
    <path clip-path="url(#p14b62985f6)" d="M 7.2 201.876 
L 39.646 201.876 
L 39.646 169.43 
L 7.2 169.43 
z
" style="fill:#6a5acd;stroke:#6a5acd;stroke-linejoin:miter;"/>
   </g>
   <g id="patch_64">
    <path clip-path="url(#p14b62985f6)" d="M 39.646 201.876 
L 72.092 201.876 
L 72.092 169.43 
L 39.646 169.43 
z
" style="fill:#fffafa;stroke:#fffafa;stroke-linejoin:miter;"/>
   </g>
   <g id="patch_65">
    <path clip-path="url(#p14b62985f6)" d="M 72.092 201.876 
L 104.538 201.876 
L 104.538 169.43 
L 72.092 169.43 
z
" style="fill:#fffafa;stroke:#fffafa;stroke-linejoin:miter;"/>
   </g>
   <g id="patch_66">
    <path clip-path="url(#p14b62985f6)" d="M 104.538 201.876 
L 136.984 201.876 
L 136.984 169.43 
L 104.538 169.43 
z
" style="fill:#ff8c00;stroke:#ff8c00;stroke-linejoin:miter;"/>
   </g>
   <g id="patch_67">
    <path clip-path="url(#p14b62985f6)" d="M 136.984 201.876 
L 169.43 201.876 
L 169.43 169.43 
L 136.984 169.43 
z
" style="fill:#228b22;stroke:#228b22;stroke-linejoin:miter;"/>
   </g>
   <g id="patch_68">
    <path clip-path="url(#p14b62985f6)" d="M 169.43 201.876 
L 201.876 201.876 
L 201.876 169.43 
L 169.43 169.43 
z
" style="fill:#ffd700;stroke:#ffd700;stroke-linejoin:miter;"/>
   </g>
   <g id="patch_69">
    <path clip-path="url(#p14b62985f6)" d="M 201.876 201.876 
L 234.322 201.876 
L 234.322 169.43 
L 201.876 169.43 
z
" style="fill:#ffd700;stroke:#ffd700;stroke-linejoin:miter;"/>
   </g>
   <g id="patch_70">
    <path clip-path="url(#p14b62985f6)" d="M 234.322 201.876 
L 266.768 201.876 
L 266.768 169.43 
L 234.322 169.43 
z
" style="fill:#228b22;stroke:#228b22;stroke-linejoin:miter;"/>
   </g>
   <g id="patch_71">
    <path clip-path="url(#p14b62985f6)" d="M 266.768 201.876 
L 299.214 201.876 
L 299.214 169.43 
L 266.768 169.43 
z
" style="fill:#ff8c00;stroke:#ff8c00;stroke-linejoin:miter;"/>
   </g>
   <g id="patch_72">
    <path clip-path="url(#p14b62985f6)" d="M 299.214 201.876 
L 331.66 201.876 
L 331.66 169.43 
L 299.214 169.43 
z
" style="fill:#ffd700;stroke:#ffd700;stroke-linejoin:miter;"/>
   </g>
   <g id="patch_73">
    <path clip-path="url(#p14b62985f6)" d="M 331.66 201.876 
L 364.106 201.876 
L 364.106 169.43 
L 331.66 169.43 
z
" style="fill:#ff1493;stroke:#ff1493;stroke-linejoin:miter;"/>
   </g>
   <g id="patch_74">
    <path clip-path="url(#p14b62985f6)" d="M 364.106 201.876 
L 396.552 201.876 
L 396.552 169.43 
L 364.106 169.43 
z
" style="fill:#6a5acd;stroke:#6a5acd;stroke-linejoin:miter;"/>
   </g>
   <g id="patch_75">
    <path clip-path="url(#p14b62985f6)" d="M 7.2 234.322 
L 39.646 234.322 
L 39.646 201.876 
L 7.2 201.876 
z
" style="fill:#ffd700;stroke:#ffd700;stroke-linejoin:miter;"/>
   </g>
   <g id="patch_76">
    <path clip-path="url(#p14b62985f6)" d="M 39.646 234.322 
L 72.092 234.322 
L 72.092 201.876 
L 39.646 201.876 
z
" style="fill:#fffafa;stroke:#fffafa;stroke-linejoin:miter;"/>
   </g>
   <g id="patch_77">
    <path clip-path="url(#p14b62985f6)" d="M 72.092 234.322 
L 104.538 234.322 
L 104.538 201.876 
L 72.092 201.876 
z
" style="fill:#fffafa;stroke:#fffafa;stroke-linejoin:miter;"/>
   </g>
   <g id="patch_78">
    <path clip-path="url(#p14b62985f6)" d="M 104.538 234.322 
L 136.984 234.322 
L 136.984 201.876 
L 104.538 201.876 
z
" style="fill:#ff8c00;stroke:#ff8c00;stroke-linejoin:miter;"/>
   </g>
   <g id="patch_79">
    <path clip-path="url(#p14b62985f6)" d="M 136.984 234.322 
L 169.43 234.322 
L 169.43 201.876 
L 136.984 201.876 
z
" style="fill:#fffafa;stroke:#fffafa;stroke-linejoin:miter;"/>
   </g>
   <g id="patch_80">
    <path clip-path="url(#p14b62985f6)" d="M 169.43 234.322 
L 201.876 234.322 
L 201.876 201.876 
L 169.43 201.876 
z
" style="fill:#fffafa;stroke:#fffafa;stroke-linejoin:miter;"/>
   </g>
   <g id="patch_81">
    <path clip-path="url(#p14b62985f6)" d="M 201.876 234.322 
L 234.322 234.322 
L 234.322 201.876 
L 201.876 201.876 
z
" style="fill:#fffafa;stroke:#fffafa;stroke-linejoin:miter;"/>
   </g>
   <g id="patch_82">
    <path clip-path="url(#p14b62985f6)" d="M 234.322 234.322 
L 266.768 234.322 
L 266.768 201.876 
L 234.322 201.876 
z
" style="fill:#fffafa;stroke:#fffafa;stroke-linejoin:miter;"/>
   </g>
   <g id="patch_83">
    <path clip-path="url(#p14b62985f6)" d="M 266.768 234.322 
L 299.214 234.322 
L 299.214 201.876 
L 266.768 201.876 
z
" style="fill:#fffafa;stroke:#fffafa;stroke-linejoin:miter;"/>
   </g>
   <g id="patch_84">
    <path clip-path="url(#p14b62985f6)" d="M 299.214 234.322 
L 331.66 234.322 
L 331.66 201.876 
L 299.214 201.876 
z
" style="fill:#fffafa;stroke:#fffafa;stroke-linejoin:miter;"/>
   </g>
   <g id="patch_85">
    <path clip-path="url(#p14b62985f6)" d="M 331.66 234.322 
L 364.106 234.322 
L 364.106 201.876 
L 331.66 201.876 
z
" style="fill:#228b22;stroke:#228b22;stroke-linejoin:miter;"/>
   </g>
   <g id="patch_86">
    <path clip-path="url(#p14b62985f6)" d="M 364.106 234.322 
L 396.552 234.322 
L 396.552 201.876 
L 364.106 201.876 
z
" style="fill:#ffd700;stroke:#ffd700;stroke-linejoin:miter;"/>
   </g>
   <g id="patch_87">
    <path clip-path="url(#p14b62985f6)" d="M 7.2 266.768 
L 39.646 266.768 
L 39.646 234.322 
L 7.2 234.322 
z
" style="fill:#228b22;stroke:#228b22;stroke-linejoin:miter;"/>
   </g>
   <g id="patch_88">
    <path clip-path="url(#p14b62985f6)" d="M 39.646 266.768 
L 72.092 266.768 
L 72.092 234.322 
L 39.646 234.322 
z
" style="fill:#ffd700;stroke:#ffd700;stroke-linejoin:miter;"/>
   </g>
   <g id="patch_89">
    <path clip-path="url(#p14b62985f6)" d="M 72.092 266.768 
L 104.538 266.768 
L 104.538 234.322 
L 72.092 234.322 
z
" style="fill:#6a5acd;stroke:#6a5acd;stroke-linejoin:miter;"/>
   </g>
   <g id="patch_90">
    <path clip-path="url(#p14b62985f6)" d="M 104.538 266.768 
L 136.984 266.768 
L 136.984 234.322 
L 104.538 234.322 
z
" style="fill:#6a5acd;stroke:#6a5acd;stroke-linejoin:miter;"/>
   </g>
   <g id="patch_91">
    <path clip-path="url(#p14b62985f6)" d="M 136.984 266.768 
L 169.43 266.768 
L 169.43 234.322 
L 136.984 234.322 
z
" style="fill:#fffafa;stroke:#fffafa;stroke-linejoin:miter;"/>
   </g>
   <g id="patch_92">
    <path clip-path="url(#p14b62985f6)" d="M 169.43 266.768 
L 201.876 266.768 
L 201.876 234.322 
L 169.43 234.322 
z
" style="fill:#fffafa;stroke:#fffafa;stroke-linejoin:miter;"/>
   </g>
   <g id="patch_93">
    <path clip-path="url(#p14b62985f6)" d="M 201.876 266.768 
L 234.322 266.768 
L 234.322 234.322 
L 201.876 234.322 
z
" style="fill:#fffafa;stroke:#fffafa;stroke-linejoin:miter;"/>
   </g>
   <g id="patch_94">
    <path clip-path="url(#p14b62985f6)" d="M 234.322 266.768 
L 266.768 266.768 
L 266.768 234.322 
L 234.322 234.322 
z
" style="fill:#fffafa;stroke:#fffafa;stroke-linejoin:miter;"/>
   </g>
   <g id="patch_95">
    <path clip-path="url(#p14b62985f6)" d="M 266.768 266.768 
L 299.214 266.768 
L 299.214 234.322 
L 266.768 234.322 
z
" style="fill:#fffafa;stroke:#fffafa;stroke-linejoin:miter;"/>
   </g>
   <g id="patch_96">
    <path clip-path="url(#p14b62985f6)" d="M 299.214 266.768 
L 331.66 266.768 
L 331.66 234.322 
L 299.214 234.322 
z
" style="fill:#fffafa;stroke:#fffafa;stroke-linejoin:miter;"/>
   </g>
   <g id="patch_97">
    <path clip-path="url(#p14b62985f6)" d="M 331.66 266.768 
L 364.106 266.768 
L 364.106 234.322 
L 331.66 234.322 
z
" style="fill:#ffd700;stroke:#ffd700;stroke-linejoin:miter;"/>
   </g>
   <g id="patch_98">
    <path clip-path="url(#p14b62985f6)" d="M 364.106 266.768 
L 396.552 266.768 
L 396.552 234.322 
L 364.106 234.322 
z
" style="fill:#228b22;stroke:#228b22;stroke-linejoin:miter;"/>
   </g>
   <g id="patch_99">
    <path clip-path="url(#p14b62985f6)" d="M 7.2 299.214 
L 39.646 299.214 
L 39.646 266.768 
L 7.2 266.768 
z
" style="fill:#ff8c00;stroke:#ff8c00;stroke-linejoin:miter;"/>
   </g>
   <g id="patch_100">
    <path clip-path="url(#p14b62985f6)" d="M 39.646 299.214 
L 72.092 299.214 
L 72.092 266.768 
L 39.646 266.768 
z
" style="fill:#228b22;stroke:#228b22;stroke-linejoin:miter;"/>
   </g>
   <g id="patch_101">
    <path clip-path="url(#p14b62985f6)" d="M 72.092 299.214 
L 104.538 299.214 
L 104.538 266.768 
L 72.092 266.768 
z
" style="fill:#6a5acd;stroke:#6a5acd;stroke-linejoin:miter;"/>
   </g>
   <g id="patch_102">
    <path clip-path="url(#p14b62985f6)" d="M 104.538 299.214 
L 136.984 299.214 
L 136.984 266.768 
L 104.538 266.768 
z
" style="fill:#228b22;stroke:#228b22;stroke-linejoin:miter;"/>
   </g>
   <g id="patch_103">
    <path clip-path="url(#p14b62985f6)" d="M 136.984 299.214 
L 169.43 299.214 
L 169.43 266.768 
L 136.984 266.768 
z
" style="fill:#6a5acd;stroke:#6a5acd;stroke-linejoin:miter;"/>
   </g>
   <g id="patch_104">
    <path clip-path="url(#p14b62985f6)" d="M 169.43 299.214 
L 201.876 299.214 
L 201.876 266.768 
L 169.43 266.768 
z
" style="fill:#ff1493;stroke:#ff1493;stroke-linejoin:miter;"/>
   </g>
   <g id="patch_105">
    <path clip-path="url(#p14b62985f6)" d="M 201.876 299.214 
L 234.322 299.214 
L 234.322 266.768 
L 201.876 266.768 
z
" style="fill:#ff1493;stroke:#ff1493;stroke-linejoin:miter;"/>
   </g>
   <g id="patch_106">
    <path clip-path="url(#p14b62985f6)" d="M 234.322 299.214 
L 266.768 299.214 
L 266.768 266.768 
L 234.322 266.768 
z
" style="fill:#6a5acd;stroke:#6a5acd;stroke-linejoin:miter;"/>
   </g>
   <g id="patch_107">
    <path clip-path="url(#p14b62985f6)" d="M 266.768 299.214 
L 299.214 299.214 
L 299.214 266.768 
L 266.768 266.768 
z
" style="fill:#228b22;stroke:#228b22;stroke-linejoin:miter;"/>
   </g>
   <g id="patch_108">
    <path clip-path="url(#p14b62985f6)" d="M 299.214 299.214 
L 331.66 299.214 
L 331.66 266.768 
L 299.214 266.768 
z
" style="fill:#6a5acd;stroke:#6a5acd;stroke-linejoin:miter;"/>
   </g>
   <g id="patch_109">
    <path clip-path="url(#p14b62985f6)" d="M 331.66 299.214 
L 364.106 299.214 
L 364.106 266.768 
L 331.66 266.768 
z
" style="fill:#228b22;stroke:#228b22;stroke-linejoin:miter;"/>
   </g>
   <g id="patch_110">
    <path clip-path="url(#p14b62985f6)" d="M 364.106 299.214 
L 396.552 299.214 
L 396.552 266.768 
L 364.106 266.768 
z
" style="fill:#ff8c00;stroke:#ff8c00;stroke-linejoin:miter;"/>
   </g>
   <g id="patch_111">
    <path clip-path="url(#p14b62985f6)" d="M 7.2 331.66 
L 39.646 331.66 
L 39.646 299.214 
L 7.2 299.214 
z
" style="fill:#ff1493;stroke:#ff1493;stroke-linejoin:miter;"/>
   </g>
   <g id="patch_112">
    <path clip-path="url(#p14b62985f6)" d="M 39.646 331.66 
L 72.092 331.66 
L 72.092 299.214 
L 39.646 299.214 
z
" style="fill:#ff8c00;stroke:#ff8c00;stroke-linejoin:miter;"/>
   </g>
   <g id="patch_113">
    <path clip-path="url(#p14b62985f6)" d="M 72.092 331.66 
L 104.538 331.66 
L 104.538 299.214 
L 72.092 299.214 
z
" style="fill:#6a5acd;stroke:#6a5acd;stroke-linejoin:miter;"/>
   </g>
   <g id="patch_114">
    <path clip-path="url(#p14b62985f6)" d="M 104.538 331.66 
L 136.984 331.66 
L 136.984 299.214 
L 104.538 299.214 
z
" style="fill:#228b22;stroke:#228b22;stroke-linejoin:miter;"/>
   </g>
   <g id="patch_115">
    <path clip-path="url(#p14b62985f6)" d="M 136.984 331.66 
L 169.43 331.66 
L 169.43 299.214 
L 136.984 299.214 
z
" style="fill:#6a5acd;stroke:#6a5acd;stroke-linejoin:miter;"/>
   </g>
   <g id="patch_116">
    <path clip-path="url(#p14b62985f6)" d="M 169.43 331.66 
L 201.876 331.66 
L 201.876 299.214 
L 169.43 299.214 
z
" style="fill:#ff1493;stroke:#ff1493;stroke-linejoin:miter;"/>
   </g>
   <g id="patch_117">
    <path clip-path="url(#p14b62985f6)" d="M 201.876 331.66 
L 234.322 331.66 
L 234.322 299.214 
L 201.876 299.214 
z
" style="fill:#ff1493;stroke:#ff1493;stroke-linejoin:miter;"/>
   </g>
   <g id="patch_118">
    <path clip-path="url(#p14b62985f6)" d="M 234.322 331.66 
L 266.768 331.66 
L 266.768 299.214 
L 234.322 299.214 
z
" style="fill:#6a5acd;stroke:#6a5acd;stroke-linejoin:miter;"/>
   </g>
   <g id="patch_119">
    <path clip-path="url(#p14b62985f6)" d="M 266.768 331.66 
L 299.214 331.66 
L 299.214 299.214 
L 266.768 299.214 
z
" style="fill:#228b22;stroke:#228b22;stroke-linejoin:miter;"/>
   </g>
   <g id="patch_120">
    <path clip-path="url(#p14b62985f6)" d="M 299.214 331.66 
L 331.66 331.66 
L 331.66 299.214 
L 299.214 299.214 
z
" style="fill:#6a5acd;stroke:#6a5acd;stroke-linejoin:miter;"/>
   </g>
   <g id="patch_121">
    <path clip-path="url(#p14b62985f6)" d="M 331.66 331.66 
L 364.106 331.66 
L 364.106 299.214 
L 331.66 299.214 
z
" style="fill:#ff8c00;stroke:#ff8c00;stroke-linejoin:miter;"/>
   </g>
   <g id="patch_122">
    <path clip-path="url(#p14b62985f6)" d="M 364.106 331.66 
L 396.552 331.66 
L 396.552 299.214 
L 364.106 299.214 
z
" style="fill:#ff1493;stroke:#ff1493;stroke-linejoin:miter;"/>
   </g>
   <g id="matplotlib.axis_1">
    <g id="xtick_1">
     <g id="line2d_1">
      <path clip-path="url(#p14b62985f6)" d="M 7.2 331.66 
L 7.2 7.2 
" style="fill:none;stroke:#000000;stroke-linecap:square;stroke-width:2;"/>
     </g>
    </g>
    <g id="xtick_2">
     <g id="line2d_2">
      <path clip-path="url(#p14b62985f6)" d="M 39.646 331.66 
L 39.646 7.2 
" style="fill:none;stroke:#000000;stroke-linecap:square;stroke-width:2;"/>
     </g>
    </g>
    <g id="xtick_3">
     <g id="line2d_3">
      <path clip-path="url(#p14b62985f6)" d="M 72.092 331.66 
L 72.092 7.2 
" style="fill:none;stroke:#000000;stroke-linecap:square;stroke-width:2;"/>
     </g>
    </g>
    <g id="xtick_4">
     <g id="line2d_4">
      <path clip-path="url(#p14b62985f6)" d="M 104.538 331.66 
L 104.538 7.2 
" style="fill:none;stroke:#000000;stroke-linecap:square;stroke-width:2;"/>
     </g>
    </g>
    <g id="xtick_5">
     <g id="line2d_5">
      <path clip-path="url(#p14b62985f6)" d="M 136.984 331.66 
L 136.984 7.2 
" style="fill:none;stroke:#000000;stroke-linecap:square;stroke-width:2;"/>
     </g>
    </g>
    <g id="xtick_6">
     <g id="line2d_6">
      <path clip-path="url(#p14b62985f6)" d="M 169.43 331.66 
L 169.43 7.2 
" style="fill:none;stroke:#000000;stroke-linecap:square;stroke-width:2;"/>
     </g>
    </g>
    <g id="xtick_7">
     <g id="line2d_7">
      <path clip-path="url(#p14b62985f6)" d="M 201.876 331.66 
L 201.876 7.2 
" style="fill:none;stroke:#000000;stroke-linecap:square;stroke-width:2;"/>
     </g>
    </g>
    <g id="xtick_8">
     <g id="line2d_8">
      <path clip-path="url(#p14b62985f6)" d="M 234.322 331.66 
L 234.322 7.2 
" style="fill:none;stroke:#000000;stroke-linecap:square;stroke-width:2;"/>
     </g>
    </g>
    <g id="xtick_9">
     <g id="line2d_9">
      <path clip-path="url(#p14b62985f6)" d="M 266.768 331.66 
L 266.768 7.2 
" style="fill:none;stroke:#000000;stroke-linecap:square;stroke-width:2;"/>
     </g>
    </g>
    <g id="xtick_10">
     <g id="line2d_10">
      <path clip-path="url(#p14b62985f6)" d="M 299.214 331.66 
L 299.214 7.2 
" style="fill:none;stroke:#000000;stroke-linecap:square;stroke-width:2;"/>
     </g>
    </g>
    <g id="xtick_11">
     <g id="line2d_11">
      <path clip-path="url(#p14b62985f6)" d="M 331.66 331.66 
L 331.66 7.2 
" style="fill:none;stroke:#000000;stroke-linecap:square;stroke-width:2;"/>
     </g>
    </g>
    <g id="xtick_12">
     <g id="line2d_12">
      <path clip-path="url(#p14b62985f6)" d="M 364.106 331.66 
L 364.106 7.2 
" style="fill:none;stroke:#000000;stroke-linecap:square;stroke-width:2;"/>
     </g>
    </g>
    <g id="xtick_13">
     <g id="line2d_13">
      <path clip-path="url(#p14b62985f6)" d="M 396.552 331.66 
L 396.552 7.2 
" style="fill:none;stroke:#000000;stroke-linecap:square;stroke-width:2;"/>
     </g>
    </g>
   </g>
   <g id="matplotlib.axis_2">
    <g id="ytick_1">
     <g id="line2d_14">
      <path clip-path="url(#p14b62985f6)" d="M 7.2 331.66 
L 396.552 331.66 
" style="fill:none;stroke:#000000;stroke-linecap:square;stroke-width:2;"/>
     </g>
    </g>
    <g id="ytick_2">
     <g id="line2d_15">
      <path clip-path="url(#p14b62985f6)" d="M 7.2 299.214 
L 396.552 299.214 
" style="fill:none;stroke:#000000;stroke-linecap:square;stroke-width:2;"/>
     </g>
    </g>
    <g id="ytick_3">
     <g id="line2d_16">
      <path clip-path="url(#p14b62985f6)" d="M 7.2 266.768 
L 396.552 266.768 
" style="fill:none;stroke:#000000;stroke-linecap:square;stroke-width:2;"/>
     </g>
    </g>
    <g id="ytick_4">
     <g id="line2d_17">
      <path clip-path="url(#p14b62985f6)" d="M 7.2 234.322 
L 396.552 234.322 
" style="fill:none;stroke:#000000;stroke-linecap:square;stroke-width:2;"/>
     </g>
    </g>
    <g id="ytick_5">
     <g id="line2d_18">
      <path clip-path="url(#p14b62985f6)" d="M 7.2 201.876 
L 396.552 201.876 
" style="fill:none;stroke:#000000;stroke-linecap:square;stroke-width:2;"/>
     </g>
    </g>
    <g id="ytick_6">
     <g id="line2d_19">
      <path clip-path="url(#p14b62985f6)" d="M 7.2 169.43 
L 396.552 169.43 
" style="fill:none;stroke:#000000;stroke-linecap:square;stroke-width:2;"/>
     </g>
    </g>
    <g id="ytick_7">
     <g id="line2d_20">
      <path clip-path="url(#p14b62985f6)" d="M 7.2 136.984 
L 396.552 136.984 
" style="fill:none;stroke:#000000;stroke-linecap:square;stroke-width:2;"/>
     </g>
    </g>
    <g id="ytick_8">
     <g id="line2d_21">
      <path clip-path="url(#p14b62985f6)" d="M 7.2 104.538 
L 396.552 104.538 
" style="fill:none;stroke:#000000;stroke-linecap:square;stroke-width:2;"/>
     </g>
    </g>
    <g id="ytick_9">
     <g id="line2d_22">
      <path clip-path="url(#p14b62985f6)" d="M 7.2 72.092 
L 396.552 72.092 
" style="fill:none;stroke:#000000;stroke-linecap:square;stroke-width:2;"/>
     </g>
    </g>
    <g id="ytick_10">
     <g id="line2d_23">
      <path clip-path="url(#p14b62985f6)" d="M 7.2 39.646 
L 396.552 39.646 
" style="fill:none;stroke:#000000;stroke-linecap:square;stroke-width:2;"/>
     </g>
    </g>
    <g id="ytick_11">
     <g id="line2d_24">
      <path clip-path="url(#p14b62985f6)" d="M 7.2 7.2 
L 396.552 7.2 
" style="fill:none;stroke:#000000;stroke-linecap:square;stroke-width:2;"/>
     </g>
    </g>
   </g>
   <g id="patch_123">
    <path d="M 7.2 331.66 
L 7.2 7.2 
" style="fill:none;stroke:#000000;stroke-linecap:square;stroke-linejoin:miter;stroke-width:2;"/>
   </g>
   <g id="patch_124">
    <path d="M 396.552 331.66 
L 396.552 7.2 
" style="fill:none;stroke:#000000;stroke-linecap:square;stroke-linejoin:miter;stroke-width:2;"/>
   </g>
   <g id="patch_125">
    <path d="M 7.2 331.66 
L 396.552 331.66 
" style="fill:none;stroke:#000000;stroke-linecap:square;stroke-linejoin:miter;stroke-width:2;"/>
   </g>
   <g id="patch_126">
    <path d="M 7.2 7.2 
L 396.552 7.2 
" style="fill:none;stroke:#000000;stroke-linecap:square;stroke-linejoin:miter;stroke-width:2;"/>
   </g>
  </g>
 </g>
 <defs>
  <clipPath id="p14b62985f6">
   <rect height="324.46" width="389.352" x="7.2" y="7.2"/>
  </clipPath>
 </defs>
</svg>
