<?xml version="1.0" encoding="utf-8" standalone="no"?>
<!DOCTYPE svg PUBLIC "-//W3C//DTD SVG 1.1//EN"
  "http://www.w3.org/Graphics/SVG/1.1/DTD/svg11.dtd">
<!-- Created with matplotlib (https://matplotlib.org/) -->
<svg height="302.3375pt" version="1.1" viewBox="0 0 475.1 302.3375" width="475.1pt" xmlns="http://www.w3.org/2000/svg" xmlns:xlink="http://www.w3.org/1999/xlink">
 <defs>
  <style type="text/css">
*{stroke-linecap:butt;stroke-linejoin:round;}
  </style>
 </defs>
 <g id="figure_1">
  <g id="patch_1">
   <path d="M 0 302.3375 
L 475.1 302.3375 
L 475.1 0 
L 0 0 
z
" style="fill:#ffffff;"/>
  </g>
  <g id="axes_1">
   <g id="patch_2">
    <path d="M 7.2 295.1375 
L 467.9 295.1375 
L 467.9 7.2 
L 7.2 7.2 
z
" style="fill:#ffffff;"/>
   </g>
   <g id="patch_3">
    <path clip-path="url(#p8e3c0e713e)" d="M 7.2 35.99375 
L 35.99375 35.99375 
L 35.99375 7.2 
L 7.2 7.2 
z
" style="fill:#40e0d0;stroke:#40e0d0;stroke-linejoin:miter;"/>
   </g>
   <g id="patch_4">
    <path clip-path="url(#p8e3c0e713e)" d="M 35.99375 35.99375 
L 64.7875 35.99375 
L 64.7875 7.2 
L 35.99375 7.2 
z
" style="fill:#4169e1;stroke:#4169e1;stroke-linejoin:miter;"/>
   </g>
   <g id="patch_5">
    <path clip-path="url(#p8e3c0e713e)" d="M 64.7875 35.99375 
L 93.58125 35.99375 
L 93.58125 7.2 
L 64.7875 7.2 
z
" style="fill:#6a5acd;stroke:#6a5acd;stroke-linejoin:miter;"/>
   </g>
   <g id="patch_6">
    <path clip-path="url(#p8e3c0e713e)" d="M 93.58125 35.99375 
L 122.375 35.99375 
L 122.375 7.2 
L 93.58125 7.2 
z
" style="fill:#4169e1;stroke:#4169e1;stroke-linejoin:miter;"/>
   </g>
   <g id="patch_7">
    <path clip-path="url(#p8e3c0e713e)" d="M 122.375 35.99375 
L 151.16875 35.99375 
L 151.16875 7.2 
L 122.375 7.2 
z
" style="fill:#4169e1;stroke:#4169e1;stroke-linejoin:miter;"/>
   </g>
   <g id="patch_8">
    <path clip-path="url(#p8e3c0e713e)" d="M 151.16875 35.99375 
L 179.9625 35.99375 
L 179.9625 7.2 
L 151.16875 7.2 
z
" style="fill:#6a5acd;stroke:#6a5acd;stroke-linejoin:miter;"/>
   </g>
   <g id="patch_9">
    <path clip-path="url(#p8e3c0e713e)" d="M 179.9625 35.99375 
L 208.75625 35.99375 
L 208.75625 7.2 
L 179.9625 7.2 
z
" style="fill:#4169e1;stroke:#4169e1;stroke-linejoin:miter;"/>
   </g>
   <g id="patch_10">
    <path clip-path="url(#p8e3c0e713e)" d="M 208.75625 35.99375 
L 237.55 35.99375 
L 237.55 7.2 
L 208.75625 7.2 
z
" style="fill:#4169e1;stroke:#4169e1;stroke-linejoin:miter;"/>
   </g>
   <g id="patch_11">
    <path clip-path="url(#p8e3c0e713e)" d="M 237.55 35.99375 
L 266.34375 35.99375 
L 266.34375 7.2 
L 237.55 7.2 
z
" style="fill:#4169e1;stroke:#4169e1;stroke-linejoin:miter;"/>
   </g>
   <g id="patch_12">
    <path clip-path="url(#p8e3c0e713e)" d="M 266.34375 35.99375 
L 295.1375 35.99375 
L 295.1375 7.2 
L 266.34375 7.2 
z
" style="fill:#4169e1;stroke:#4169e1;stroke-linejoin:miter;"/>
   </g>
   <g id="patch_13">
    <path clip-path="url(#p8e3c0e713e)" d="M 295.1375 35.99375 
L 323.93125 35.99375 
L 323.93125 7.2 
L 295.1375 7.2 
z
" style="fill:#6a5acd;stroke:#6a5acd;stroke-linejoin:miter;"/>
   </g>
   <g id="patch_14">
    <path clip-path="url(#p8e3c0e713e)" d="M 323.93125 35.99375 
L 352.725 35.99375 
L 352.725 7.2 
L 323.93125 7.2 
z
" style="fill:#4169e1;stroke:#4169e1;stroke-linejoin:miter;"/>
   </g>
   <g id="patch_15">
    <path clip-path="url(#p8e3c0e713e)" d="M 352.725 35.99375 
L 381.51875 35.99375 
L 381.51875 7.2 
L 352.725 7.2 
z
" style="fill:#4169e1;stroke:#4169e1;stroke-linejoin:miter;"/>
   </g>
   <g id="patch_16">
    <path clip-path="url(#p8e3c0e713e)" d="M 381.51875 35.99375 
L 410.3125 35.99375 
L 410.3125 7.2 
L 381.51875 7.2 
z
" style="fill:#6a5acd;stroke:#6a5acd;stroke-linejoin:miter;"/>
   </g>
   <g id="patch_17">
    <path clip-path="url(#p8e3c0e713e)" d="M 410.3125 35.99375 
L 439.10625 35.99375 
L 439.10625 7.2 
L 410.3125 7.2 
z
" style="fill:#4169e1;stroke:#4169e1;stroke-linejoin:miter;"/>
   </g>
   <g id="patch_18">
    <path clip-path="url(#p8e3c0e713e)" d="M 439.10625 35.99375 
L 467.9 35.99375 
L 467.9 7.2 
L 439.10625 7.2 
z
" style="fill:#40e0d0;stroke:#40e0d0;stroke-linejoin:miter;"/>
   </g>
   <g id="patch_19">
    <path clip-path="url(#p8e3c0e713e)" d="M 7.2 64.7875 
L 35.99375 64.7875 
L 35.99375 35.99375 
L 7.2 35.99375 
z
" style="fill:#4169e1;stroke:#4169e1;stroke-linejoin:miter;"/>
   </g>
   <g id="patch_20">
    <path clip-path="url(#p8e3c0e713e)" d="M 35.99375 64.7875 
L 64.7875 64.7875 
L 64.7875 35.99375 
L 35.99375 35.99375 
z
" style="fill:#6a5acd;stroke:#6a5acd;stroke-linejoin:miter;"/>
   </g>
   <g id="patch_21">
    <path clip-path="url(#p8e3c0e713e)" d="M 64.7875 64.7875 
L 93.58125 64.7875 
L 93.58125 35.99375 
L 64.7875 35.99375 
z
" style="fill:#4169e1;stroke:#4169e1;stroke-linejoin:miter;"/>
   </g>
   <g id="patch_22">
    <path clip-path="url(#p8e3c0e713e)" d="M 93.58125 64.7875 
L 122.375 64.7875 
L 122.375 35.99375 
L 93.58125 35.99375 
z
" style="fill:#40e0d0;stroke:#40e0d0;stroke-linejoin:miter;"/>
   </g>
   <g id="patch_23">
    <path clip-path="url(#p8e3c0e713e)" d="M 122.375 64.7875 
L 151.16875 64.7875 
L 151.16875 35.99375 
L 122.375 35.99375 
z
" style="fill:#40e0d0;stroke:#40e0d0;stroke-linejoin:miter;"/>
   </g>
   <g id="patch_24">
    <path clip-path="url(#p8e3c0e713e)" d="M 151.16875 64.7875 
L 179.9625 64.7875 
L 179.9625 35.99375 
L 151.16875 35.99375 
z
" style="fill:#6a5acd;stroke:#6a5acd;stroke-linejoin:miter;"/>
   </g>
   <g id="patch_25">
    <path clip-path="url(#p8e3c0e713e)" d="M 179.9625 64.7875 
L 208.75625 64.7875 
L 208.75625 35.99375 
L 179.9625 35.99375 
z
" style="fill:#4169e1;stroke:#4169e1;stroke-linejoin:miter;"/>
   </g>
   <g id="patch_26">
    <path clip-path="url(#p8e3c0e713e)" d="M 208.75625 64.7875 
L 237.55 64.7875 
L 237.55 35.99375 
L 208.75625 35.99375 
z
" style="fill:#4169e1;stroke:#4169e1;stroke-linejoin:miter;"/>
   </g>
   <g id="patch_27">
    <path clip-path="url(#p8e3c0e713e)" d="M 237.55 64.7875 
L 266.34375 64.7875 
L 266.34375 35.99375 
L 237.55 35.99375 
z
" style="fill:#4169e1;stroke:#4169e1;stroke-linejoin:miter;"/>
   </g>
   <g id="patch_28">
    <path clip-path="url(#p8e3c0e713e)" d="M 266.34375 64.7875 
L 295.1375 64.7875 
L 295.1375 35.99375 
L 266.34375 35.99375 
z
" style="fill:#4169e1;stroke:#4169e1;stroke-linejoin:miter;"/>
   </g>
   <g id="patch_29">
    <path clip-path="url(#p8e3c0e713e)" d="M 295.1375 64.7875 
L 323.93125 64.7875 
L 323.93125 35.99375 
L 295.1375 35.99375 
z
" style="fill:#6a5acd;stroke:#6a5acd;stroke-linejoin:miter;"/>
   </g>
   <g id="patch_30">
    <path clip-path="url(#p8e3c0e713e)" d="M 323.93125 64.7875 
L 352.725 64.7875 
L 352.725 35.99375 
L 323.93125 35.99375 
z
" style="fill:#40e0d0;stroke:#40e0d0;stroke-linejoin:miter;"/>
   </g>
   <g id="patch_31">
    <path clip-path="url(#p8e3c0e713e)" d="M 352.725 64.7875 
L 381.51875 64.7875 
L 381.51875 35.99375 
L 352.725 35.99375 
z
" style="fill:#40e0d0;stroke:#40e0d0;stroke-linejoin:miter;"/>
   </g>
   <g id="patch_32">
    <path clip-path="url(#p8e3c0e713e)" d="M 381.51875 64.7875 
L 410.3125 64.7875 
L 410.3125 35.99375 
L 381.51875 35.99375 
z
" style="fill:#4169e1;stroke:#4169e1;stroke-linejoin:miter;"/>
   </g>
   <g id="patch_33">
    <path clip-path="url(#p8e3c0e713e)" d="M 410.3125 64.7875 
L 439.10625 64.7875 
L 439.10625 35.99375 
L 410.3125 35.99375 
z
" style="fill:#6a5acd;stroke:#6a5acd;stroke-linejoin:miter;"/>
   </g>
   <g id="patch_34">
    <path clip-path="url(#p8e3c0e713e)" d="M 439.10625 64.7875 
L 467.9 64.7875 
L 467.9 35.99375 
L 439.10625 35.99375 
z
" style="fill:#4169e1;stroke:#4169e1;stroke-linejoin:miter;"/>
   </g>
   <g id="patch_35">
    <path clip-path="url(#p8e3c0e713e)" d="M 7.2 93.58125 
L 35.99375 93.58125 
L 35.99375 64.7875 
L 7.2 64.7875 
z
" style="fill:#6a5acd;stroke:#6a5acd;stroke-linejoin:miter;"/>
   </g>
   <g id="patch_36">
    <path clip-path="url(#p8e3c0e713e)" d="M 35.99375 93.58125 
L 64.7875 93.58125 
L 64.7875 64.7875 
L 35.99375 64.7875 
z
" style="fill:#fffafa;stroke:#fffafa;stroke-linejoin:miter;"/>
   </g>
   <g id="patch_37">
    <path clip-path="url(#p8e3c0e713e)" d="M 64.7875 93.58125 
L 93.58125 93.58125 
L 93.58125 64.7875 
L 64.7875 64.7875 
z
" style="fill:#fffafa;stroke:#fffafa;stroke-linejoin:miter;"/>
   </g>
   <g id="patch_38">
    <path clip-path="url(#p8e3c0e713e)" d="M 93.58125 93.58125 
L 122.375 93.58125 
L 122.375 64.7875 
L 93.58125 64.7875 
z
" style="fill:#fffafa;stroke:#fffafa;stroke-linejoin:miter;"/>
   </g>
   <g id="patch_39">
    <path clip-path="url(#p8e3c0e713e)" d="M 122.375 93.58125 
L 151.16875 93.58125 
L 151.16875 64.7875 
L 122.375 64.7875 
z
" style="fill:#fffafa;stroke:#fffafa;stroke-linejoin:miter;"/>
   </g>
   <g id="patch_40">
    <path clip-path="url(#p8e3c0e713e)" d="M 151.16875 93.58125 
L 179.9625 93.58125 
L 179.9625 64.7875 
L 151.16875 64.7875 
z
" style="fill:#fffafa;stroke:#fffafa;stroke-linejoin:miter;"/>
   </g>
   <g id="patch_41">
    <path clip-path="url(#p8e3c0e713e)" d="M 179.9625 93.58125 
L 208.75625 93.58125 
L 208.75625 64.7875 
L 179.9625 64.7875 
z
" style="fill:#40e0d0;stroke:#40e0d0;stroke-linejoin:miter;"/>
   </g>
   <g id="patch_42">
    <path clip-path="url(#p8e3c0e713e)" d="M 208.75625 93.58125 
L 237.55 93.58125 
L 237.55 64.7875 
L 208.75625 64.7875 
z
" style="fill:#40e0d0;stroke:#40e0d0;stroke-linejoin:miter;"/>
   </g>
   <g id="patch_43">
    <path clip-path="url(#p8e3c0e713e)" d="M 237.55 93.58125 
L 266.34375 93.58125 
L 266.34375 64.7875 
L 237.55 64.7875 
z
" style="fill:#40e0d0;stroke:#40e0d0;stroke-linejoin:miter;"/>
   </g>
   <g id="patch_44">
    <path clip-path="url(#p8e3c0e713e)" d="M 266.34375 93.58125 
L 295.1375 93.58125 
L 295.1375 64.7875 
L 266.34375 64.7875 
z
" style="fill:#40e0d0;stroke:#40e0d0;stroke-linejoin:miter;"/>
   </g>
   <g id="patch_45">
    <path clip-path="url(#p8e3c0e713e)" d="M 295.1375 93.58125 
L 323.93125 93.58125 
L 323.93125 64.7875 
L 295.1375 64.7875 
z
" style="fill:#6a5acd;stroke:#6a5acd;stroke-linejoin:miter;"/>
   </g>
   <g id="patch_46">
    <path clip-path="url(#p8e3c0e713e)" d="M 323.93125 93.58125 
L 352.725 93.58125 
L 352.725 64.7875 
L 323.93125 64.7875 
z
" style="fill:#6a5acd;stroke:#6a5acd;stroke-linejoin:miter;"/>
   </g>
   <g id="patch_47">
    <path clip-path="url(#p8e3c0e713e)" d="M 352.725 93.58125 
L 381.51875 93.58125 
L 381.51875 64.7875 
L 352.725 64.7875 
z
" style="fill:#4169e1;stroke:#4169e1;stroke-linejoin:miter;"/>
   </g>
   <g id="patch_48">
    <path clip-path="url(#p8e3c0e713e)" d="M 381.51875 93.58125 
L 410.3125 93.58125 
L 410.3125 64.7875 
L 381.51875 64.7875 
z
" style="fill:#4169e1;stroke:#4169e1;stroke-linejoin:miter;"/>
   </g>
   <g id="patch_49">
    <path clip-path="url(#p8e3c0e713e)" d="M 410.3125 93.58125 
L 439.10625 93.58125 
L 439.10625 64.7875 
L 410.3125 64.7875 
z
" style="fill:#40e0d0;stroke:#40e0d0;stroke-linejoin:miter;"/>
   </g>
   <g id="patch_50">
    <path clip-path="url(#p8e3c0e713e)" d="M 439.10625 93.58125 
L 467.9 93.58125 
L 467.9 64.7875 
L 439.10625 64.7875 
z
" style="fill:#6a5acd;stroke:#6a5acd;stroke-linejoin:miter;"/>
   </g>
   <g id="patch_51">
    <path clip-path="url(#p8e3c0e713e)" d="M 7.2 122.375 
L 35.99375 122.375 
L 35.99375 93.58125 
L 7.2 93.58125 
z
" style="fill:#6a5acd;stroke:#6a5acd;stroke-linejoin:miter;"/>
   </g>
   <g id="patch_52">
    <path clip-path="url(#p8e3c0e713e)" d="M 35.99375 122.375 
L 64.7875 122.375 
L 64.7875 93.58125 
L 35.99375 93.58125 
z
" style="fill:#fffafa;stroke:#fffafa;stroke-linejoin:miter;"/>
   </g>
   <g id="patch_53">
    <path clip-path="url(#p8e3c0e713e)" d="M 64.7875 122.375 
L 93.58125 122.375 
L 93.58125 93.58125 
L 64.7875 93.58125 
z
" style="fill:#fffafa;stroke:#fffafa;stroke-linejoin:miter;"/>
   </g>
   <g id="patch_54">
    <path clip-path="url(#p8e3c0e713e)" d="M 93.58125 122.375 
L 122.375 122.375 
L 122.375 93.58125 
L 93.58125 93.58125 
z
" style="fill:#fffafa;stroke:#fffafa;stroke-linejoin:miter;"/>
   </g>
   <g id="patch_55">
    <path clip-path="url(#p8e3c0e713e)" d="M 122.375 122.375 
L 151.16875 122.375 
L 151.16875 93.58125 
L 122.375 93.58125 
z
" style="fill:#fffafa;stroke:#fffafa;stroke-linejoin:miter;"/>
   </g>
   <g id="patch_56">
    <path clip-path="url(#p8e3c0e713e)" d="M 151.16875 122.375 
L 179.9625 122.375 
L 179.9625 93.58125 
L 151.16875 93.58125 
z
" style="fill:#fffafa;stroke:#fffafa;stroke-linejoin:miter;"/>
   </g>
   <g id="patch_57">
    <path clip-path="url(#p8e3c0e713e)" d="M 179.9625 122.375 
L 208.75625 122.375 
L 208.75625 93.58125 
L 179.9625 93.58125 
z
" style="fill:#4169e1;stroke:#4169e1;stroke-linejoin:miter;"/>
   </g>
   <g id="patch_58">
    <path clip-path="url(#p8e3c0e713e)" d="M 208.75625 122.375 
L 237.55 122.375 
L 237.55 93.58125 
L 208.75625 93.58125 
z
" style="fill:#4169e1;stroke:#4169e1;stroke-linejoin:miter;"/>
   </g>
   <g id="patch_59">
    <path clip-path="url(#p8e3c0e713e)" d="M 237.55 122.375 
L 266.34375 122.375 
L 266.34375 93.58125 
L 237.55 93.58125 
z
" style="fill:#4169e1;stroke:#4169e1;stroke-linejoin:miter;"/>
   </g>
   <g id="patch_60">
    <path clip-path="url(#p8e3c0e713e)" d="M 266.34375 122.375 
L 295.1375 122.375 
L 295.1375 93.58125 
L 266.34375 93.58125 
z
" style="fill:#4169e1;stroke:#4169e1;stroke-linejoin:miter;"/>
   </g>
   <g id="patch_61">
    <path clip-path="url(#p8e3c0e713e)" d="M 295.1375 122.375 
L 323.93125 122.375 
L 323.93125 93.58125 
L 295.1375 93.58125 
z
" style="fill:#6a5acd;stroke:#6a5acd;stroke-linejoin:miter;"/>
   </g>
   <g id="patch_62">
    <path clip-path="url(#p8e3c0e713e)" d="M 323.93125 122.375 
L 352.725 122.375 
L 352.725 93.58125 
L 323.93125 93.58125 
z
" style="fill:#6a5acd;stroke:#6a5acd;stroke-linejoin:miter;"/>
   </g>
   <g id="patch_63">
    <path clip-path="url(#p8e3c0e713e)" d="M 352.725 122.375 
L 381.51875 122.375 
L 381.51875 93.58125 
L 352.725 93.58125 
z
" style="fill:#40e0d0;stroke:#40e0d0;stroke-linejoin:miter;"/>
   </g>
   <g id="patch_64">
    <path clip-path="url(#p8e3c0e713e)" d="M 381.51875 122.375 
L 410.3125 122.375 
L 410.3125 93.58125 
L 381.51875 93.58125 
z
" style="fill:#6a5acd;stroke:#6a5acd;stroke-linejoin:miter;"/>
   </g>
   <g id="patch_65">
    <path clip-path="url(#p8e3c0e713e)" d="M 410.3125 122.375 
L 439.10625 122.375 
L 439.10625 93.58125 
L 410.3125 93.58125 
z
" style="fill:#40e0d0;stroke:#40e0d0;stroke-linejoin:miter;"/>
   </g>
   <g id="patch_66">
    <path clip-path="url(#p8e3c0e713e)" d="M 439.10625 122.375 
L 467.9 122.375 
L 467.9 93.58125 
L 439.10625 93.58125 
z
" style="fill:#6a5acd;stroke:#6a5acd;stroke-linejoin:miter;"/>
   </g>
   <g id="patch_67">
    <path clip-path="url(#p8e3c0e713e)" d="M 7.2 151.16875 
L 35.99375 151.16875 
L 35.99375 122.375 
L 7.2 122.375 
z
" style="fill:#6a5acd;stroke:#6a5acd;stroke-linejoin:miter;"/>
   </g>
   <g id="patch_68">
    <path clip-path="url(#p8e3c0e713e)" d="M 35.99375 151.16875 
L 64.7875 151.16875 
L 64.7875 122.375 
L 35.99375 122.375 
z
" style="fill:#fffafa;stroke:#fffafa;stroke-linejoin:miter;"/>
   </g>
   <g id="patch_69">
    <path clip-path="url(#p8e3c0e713e)" d="M 64.7875 151.16875 
L 93.58125 151.16875 
L 93.58125 122.375 
L 64.7875 122.375 
z
" style="fill:#fffafa;stroke:#fffafa;stroke-linejoin:miter;"/>
   </g>
   <g id="patch_70">
    <path clip-path="url(#p8e3c0e713e)" d="M 93.58125 151.16875 
L 122.375 151.16875 
L 122.375 122.375 
L 93.58125 122.375 
z
" style="fill:#fffafa;stroke:#fffafa;stroke-linejoin:miter;"/>
   </g>
   <g id="patch_71">
    <path clip-path="url(#p8e3c0e713e)" d="M 122.375 151.16875 
L 151.16875 151.16875 
L 151.16875 122.375 
L 122.375 122.375 
z
" style="fill:#fffafa;stroke:#fffafa;stroke-linejoin:miter;"/>
   </g>
   <g id="patch_72">
    <path clip-path="url(#p8e3c0e713e)" d="M 151.16875 151.16875 
L 179.9625 151.16875 
L 179.9625 122.375 
L 151.16875 122.375 
z
" style="fill:#fffafa;stroke:#fffafa;stroke-linejoin:miter;"/>
   </g>
   <g id="patch_73">
    <path clip-path="url(#p8e3c0e713e)" d="M 179.9625 151.16875 
L 208.75625 151.16875 
L 208.75625 122.375 
L 179.9625 122.375 
z
" style="fill:#40e0d0;stroke:#40e0d0;stroke-linejoin:miter;"/>
   </g>
   <g id="patch_74">
    <path clip-path="url(#p8e3c0e713e)" d="M 208.75625 151.16875 
L 237.55 151.16875 
L 237.55 122.375 
L 208.75625 122.375 
z
" style="fill:#6a5acd;stroke:#6a5acd;stroke-linejoin:miter;"/>
   </g>
   <g id="patch_75">
    <path clip-path="url(#p8e3c0e713e)" d="M 237.55 151.16875 
L 266.34375 151.16875 
L 266.34375 122.375 
L 237.55 122.375 
z
" style="fill:#6a5acd;stroke:#6a5acd;stroke-linejoin:miter;"/>
   </g>
   <g id="patch_76">
    <path clip-path="url(#p8e3c0e713e)" d="M 266.34375 151.16875 
L 295.1375 151.16875 
L 295.1375 122.375 
L 266.34375 122.375 
z
" style="fill:#40e0d0;stroke:#40e0d0;stroke-linejoin:miter;"/>
   </g>
   <g id="patch_77">
    <path clip-path="url(#p8e3c0e713e)" d="M 295.1375 151.16875 
L 323.93125 151.16875 
L 323.93125 122.375 
L 295.1375 122.375 
z
" style="fill:#6a5acd;stroke:#6a5acd;stroke-linejoin:miter;"/>
   </g>
   <g id="patch_78">
    <path clip-path="url(#p8e3c0e713e)" d="M 323.93125 151.16875 
L 352.725 151.16875 
L 352.725 122.375 
L 323.93125 122.375 
z
" style="fill:#6a5acd;stroke:#6a5acd;stroke-linejoin:miter;"/>
   </g>
   <g id="patch_79">
    <path clip-path="url(#p8e3c0e713e)" d="M 352.725 151.16875 
L 381.51875 151.16875 
L 381.51875 122.375 
L 352.725 122.375 
z
" style="fill:#6a5acd;stroke:#6a5acd;stroke-linejoin:miter;"/>
   </g>
   <g id="patch_80">
    <path clip-path="url(#p8e3c0e713e)" d="M 381.51875 151.16875 
L 410.3125 151.16875 
L 410.3125 122.375 
L 381.51875 122.375 
z
" style="fill:#40e0d0;stroke:#40e0d0;stroke-linejoin:miter;"/>
   </g>
   <g id="patch_81">
    <path clip-path="url(#p8e3c0e713e)" d="M 410.3125 151.16875 
L 439.10625 151.16875 
L 439.10625 122.375 
L 410.3125 122.375 
z
" style="fill:#40e0d0;stroke:#40e0d0;stroke-linejoin:miter;"/>
   </g>
   <g id="patch_82">
    <path clip-path="url(#p8e3c0e713e)" d="M 439.10625 151.16875 
L 467.9 151.16875 
L 467.9 122.375 
L 439.10625 122.375 
z
" style="fill:#6a5acd;stroke:#6a5acd;stroke-linejoin:miter;"/>
   </g>
   <g id="patch_83">
    <path clip-path="url(#p8e3c0e713e)" d="M 7.2 179.9625 
L 35.99375 179.9625 
L 35.99375 151.16875 
L 7.2 151.16875 
z
" style="fill:#6a5acd;stroke:#6a5acd;stroke-linejoin:miter;"/>
   </g>
   <g id="patch_84">
    <path clip-path="url(#p8e3c0e713e)" d="M 35.99375 179.9625 
L 64.7875 179.9625 
L 64.7875 151.16875 
L 35.99375 151.16875 
z
" style="fill:#40e0d0;stroke:#40e0d0;stroke-linejoin:miter;"/>
   </g>
   <g id="patch_85">
    <path clip-path="url(#p8e3c0e713e)" d="M 64.7875 179.9625 
L 93.58125 179.9625 
L 93.58125 151.16875 
L 64.7875 151.16875 
z
" style="fill:#40e0d0;stroke:#40e0d0;stroke-linejoin:miter;"/>
   </g>
   <g id="patch_86">
    <path clip-path="url(#p8e3c0e713e)" d="M 93.58125 179.9625 
L 122.375 179.9625 
L 122.375 151.16875 
L 93.58125 151.16875 
z
" style="fill:#6a5acd;stroke:#6a5acd;stroke-linejoin:miter;"/>
   </g>
   <g id="patch_87">
    <path clip-path="url(#p8e3c0e713e)" d="M 122.375 179.9625 
L 151.16875 179.9625 
L 151.16875 151.16875 
L 122.375 151.16875 
z
" style="fill:#6a5acd;stroke:#6a5acd;stroke-linejoin:miter;"/>
   </g>
   <g id="patch_88">
    <path clip-path="url(#p8e3c0e713e)" d="M 151.16875 179.9625 
L 179.9625 179.9625 
L 179.9625 151.16875 
L 151.16875 151.16875 
z
" style="fill:#6a5acd;stroke:#6a5acd;stroke-linejoin:miter;"/>
   </g>
   <g id="patch_89">
    <path clip-path="url(#p8e3c0e713e)" d="M 179.9625 179.9625 
L 208.75625 179.9625 
L 208.75625 151.16875 
L 179.9625 151.16875 
z
" style="fill:#40e0d0;stroke:#40e0d0;stroke-linejoin:miter;"/>
   </g>
   <g id="patch_90">
    <path clip-path="url(#p8e3c0e713e)" d="M 208.75625 179.9625 
L 237.55 179.9625 
L 237.55 151.16875 
L 208.75625 151.16875 
z
" style="fill:#6a5acd;stroke:#6a5acd;stroke-linejoin:miter;"/>
   </g>
   <g id="patch_91">
    <path clip-path="url(#p8e3c0e713e)" d="M 237.55 179.9625 
L 266.34375 179.9625 
L 266.34375 151.16875 
L 237.55 151.16875 
z
" style="fill:#6a5acd;stroke:#6a5acd;stroke-linejoin:miter;"/>
   </g>
   <g id="patch_92">
    <path clip-path="url(#p8e3c0e713e)" d="M 266.34375 179.9625 
L 295.1375 179.9625 
L 295.1375 151.16875 
L 266.34375 151.16875 
z
" style="fill:#40e0d0;stroke:#40e0d0;stroke-linejoin:miter;"/>
   </g>
   <g id="patch_93">
    <path clip-path="url(#p8e3c0e713e)" d="M 295.1375 179.9625 
L 323.93125 179.9625 
L 323.93125 151.16875 
L 295.1375 151.16875 
z
" style="fill:#6a5acd;stroke:#6a5acd;stroke-linejoin:miter;"/>
   </g>
   <g id="patch_94">
    <path clip-path="url(#p8e3c0e713e)" d="M 323.93125 179.9625 
L 352.725 179.9625 
L 352.725 151.16875 
L 323.93125 151.16875 
z
" style="fill:#6a5acd;stroke:#6a5acd;stroke-linejoin:miter;"/>
   </g>
   <g id="patch_95">
    <path clip-path="url(#p8e3c0e713e)" d="M 352.725 179.9625 
L 381.51875 179.9625 
L 381.51875 151.16875 
L 352.725 151.16875 
z
" style="fill:#6a5acd;stroke:#6a5acd;stroke-linejoin:miter;"/>
   </g>
   <g id="patch_96">
    <path clip-path="url(#p8e3c0e713e)" d="M 381.51875 179.9625 
L 410.3125 179.9625 
L 410.3125 151.16875 
L 381.51875 151.16875 
z
" style="fill:#40e0d0;stroke:#40e0d0;stroke-linejoin:miter;"/>
   </g>
   <g id="patch_97">
    <path clip-path="url(#p8e3c0e713e)" d="M 410.3125 179.9625 
L 439.10625 179.9625 
L 439.10625 151.16875 
L 410.3125 151.16875 
z
" style="fill:#40e0d0;stroke:#40e0d0;stroke-linejoin:miter;"/>
   </g>
   <g id="patch_98">
    <path clip-path="url(#p8e3c0e713e)" d="M 439.10625 179.9625 
L 467.9 179.9625 
L 467.9 151.16875 
L 439.10625 151.16875 
z
" style="fill:#6a5acd;stroke:#6a5acd;stroke-linejoin:miter;"/>
   </g>
   <g id="patch_99">
    <path clip-path="url(#p8e3c0e713e)" d="M 7.2 208.75625 
L 35.99375 208.75625 
L 35.99375 179.9625 
L 7.2 179.9625 
z
" style="fill:#6a5acd;stroke:#6a5acd;stroke-linejoin:miter;"/>
   </g>
   <g id="patch_100">
    <path clip-path="url(#p8e3c0e713e)" d="M 35.99375 208.75625 
L 64.7875 208.75625 
L 64.7875 179.9625 
L 35.99375 179.9625 
z
" style="fill:#fffafa;stroke:#fffafa;stroke-linejoin:miter;"/>
   </g>
   <g id="patch_101">
    <path clip-path="url(#p8e3c0e713e)" d="M 64.7875 208.75625 
L 93.58125 208.75625 
L 93.58125 179.9625 
L 64.7875 179.9625 
z
" style="fill:#fffafa;stroke:#fffafa;stroke-linejoin:miter;"/>
   </g>
   <g id="patch_102">
    <path clip-path="url(#p8e3c0e713e)" d="M 93.58125 208.75625 
L 122.375 208.75625 
L 122.375 179.9625 
L 93.58125 179.9625 
z
" style="fill:#fffafa;stroke:#fffafa;stroke-linejoin:miter;"/>
   </g>
   <g id="patch_103">
    <path clip-path="url(#p8e3c0e713e)" d="M 122.375 208.75625 
L 151.16875 208.75625 
L 151.16875 179.9625 
L 122.375 179.9625 
z
" style="fill:#fffafa;stroke:#fffafa;stroke-linejoin:miter;"/>
   </g>
   <g id="patch_104">
    <path clip-path="url(#p8e3c0e713e)" d="M 151.16875 208.75625 
L 179.9625 208.75625 
L 179.9625 179.9625 
L 151.16875 179.9625 
z
" style="fill:#fffafa;stroke:#fffafa;stroke-linejoin:miter;"/>
   </g>
   <g id="patch_105">
    <path clip-path="url(#p8e3c0e713e)" d="M 179.9625 208.75625 
L 208.75625 208.75625 
L 208.75625 179.9625 
L 179.9625 179.9625 
z
" style="fill:#fffafa;stroke:#fffafa;stroke-linejoin:miter;"/>
   </g>
   <g id="patch_106">
    <path clip-path="url(#p8e3c0e713e)" d="M 208.75625 208.75625 
L 237.55 208.75625 
L 237.55 179.9625 
L 208.75625 179.9625 
z
" style="fill:#fffafa;stroke:#fffafa;stroke-linejoin:miter;"/>
   </g>
   <g id="patch_107">
    <path clip-path="url(#p8e3c0e713e)" d="M 237.55 208.75625 
L 266.34375 208.75625 
L 266.34375 179.9625 
L 237.55 179.9625 
z
" style="fill:#fffafa;stroke:#fffafa;stroke-linejoin:miter;"/>
   </g>
   <g id="patch_108">
    <path clip-path="url(#p8e3c0e713e)" d="M 266.34375 208.75625 
L 295.1375 208.75625 
L 295.1375 179.9625 
L 266.34375 179.9625 
z
" style="fill:#4169e1;stroke:#4169e1;stroke-linejoin:miter;"/>
   </g>
   <g id="patch_109">
    <path clip-path="url(#p8e3c0e713e)" d="M 295.1375 208.75625 
L 323.93125 208.75625 
L 323.93125 179.9625 
L 295.1375 179.9625 
z
" style="fill:#6a5acd;stroke:#6a5acd;stroke-linejoin:miter;"/>
   </g>
   <g id="patch_110">
    <path clip-path="url(#p8e3c0e713e)" d="M 323.93125 208.75625 
L 352.725 208.75625 
L 352.725 179.9625 
L 323.93125 179.9625 
z
" style="fill:#6a5acd;stroke:#6a5acd;stroke-linejoin:miter;"/>
   </g>
   <g id="patch_111">
    <path clip-path="url(#p8e3c0e713e)" d="M 352.725 208.75625 
L 381.51875 208.75625 
L 381.51875 179.9625 
L 352.725 179.9625 
z
" style="fill:#40e0d0;stroke:#40e0d0;stroke-linejoin:miter;"/>
   </g>
   <g id="patch_112">
    <path clip-path="url(#p8e3c0e713e)" d="M 381.51875 208.75625 
L 410.3125 208.75625 
L 410.3125 179.9625 
L 381.51875 179.9625 
z
" style="fill:#6a5acd;stroke:#6a5acd;stroke-linejoin:miter;"/>
   </g>
   <g id="patch_113">
    <path clip-path="url(#p8e3c0e713e)" d="M 410.3125 208.75625 
L 439.10625 208.75625 
L 439.10625 179.9625 
L 410.3125 179.9625 
z
" style="fill:#40e0d0;stroke:#40e0d0;stroke-linejoin:miter;"/>
   </g>
   <g id="patch_114">
    <path clip-path="url(#p8e3c0e713e)" d="M 439.10625 208.75625 
L 467.9 208.75625 
L 467.9 179.9625 
L 439.10625 179.9625 
z
" style="fill:#6a5acd;stroke:#6a5acd;stroke-linejoin:miter;"/>
   </g>
   <g id="patch_115">
    <path clip-path="url(#p8e3c0e713e)" d="M 7.2 237.55 
L 35.99375 237.55 
L 35.99375 208.75625 
L 7.2 208.75625 
z
" style="fill:#6a5acd;stroke:#6a5acd;stroke-linejoin:miter;"/>
   </g>
   <g id="patch_116">
    <path clip-path="url(#p8e3c0e713e)" d="M 35.99375 237.55 
L 64.7875 237.55 
L 64.7875 208.75625 
L 35.99375 208.75625 
z
" style="fill:#fffafa;stroke:#fffafa;stroke-linejoin:miter;"/>
   </g>
   <g id="patch_117">
    <path clip-path="url(#p8e3c0e713e)" d="M 64.7875 237.55 
L 93.58125 237.55 
L 93.58125 208.75625 
L 64.7875 208.75625 
z
" style="fill:#fffafa;stroke:#fffafa;stroke-linejoin:miter;"/>
   </g>
   <g id="patch_118">
    <path clip-path="url(#p8e3c0e713e)" d="M 93.58125 237.55 
L 122.375 237.55 
L 122.375 208.75625 
L 93.58125 208.75625 
z
" style="fill:#fffafa;stroke:#fffafa;stroke-linejoin:miter;"/>
   </g>
   <g id="patch_119">
    <path clip-path="url(#p8e3c0e713e)" d="M 122.375 237.55 
L 151.16875 237.55 
L 151.16875 208.75625 
L 122.375 208.75625 
z
" style="fill:#fffafa;stroke:#fffafa;stroke-linejoin:miter;"/>
   </g>
   <g id="patch_120">
    <path clip-path="url(#p8e3c0e713e)" d="M 151.16875 237.55 
L 179.9625 237.55 
L 179.9625 208.75625 
L 151.16875 208.75625 
z
" style="fill:#fffafa;stroke:#fffafa;stroke-linejoin:miter;"/>
   </g>
   <g id="patch_121">
    <path clip-path="url(#p8e3c0e713e)" d="M 179.9625 237.55 
L 208.75625 237.55 
L 208.75625 208.75625 
L 179.9625 208.75625 
z
" style="fill:#fffafa;stroke:#fffafa;stroke-linejoin:miter;"/>
   </g>
   <g id="patch_122">
    <path clip-path="url(#p8e3c0e713e)" d="M 208.75625 237.55 
L 237.55 237.55 
L 237.55 208.75625 
L 208.75625 208.75625 
z
" style="fill:#fffafa;stroke:#fffafa;stroke-linejoin:miter;"/>
   </g>
   <g id="patch_123">
    <path clip-path="url(#p8e3c0e713e)" d="M 237.55 237.55 
L 266.34375 237.55 
L 266.34375 208.75625 
L 237.55 208.75625 
z
" style="fill:#fffafa;stroke:#fffafa;stroke-linejoin:miter;"/>
   </g>
   <g id="patch_124">
    <path clip-path="url(#p8e3c0e713e)" d="M 266.34375 237.55 
L 295.1375 237.55 
L 295.1375 208.75625 
L 266.34375 208.75625 
z
" style="fill:#40e0d0;stroke:#40e0d0;stroke-linejoin:miter;"/>
   </g>
   <g id="patch_125">
    <path clip-path="url(#p8e3c0e713e)" d="M 295.1375 237.55 
L 323.93125 237.55 
L 323.93125 208.75625 
L 295.1375 208.75625 
z
" style="fill:#6a5acd;stroke:#6a5acd;stroke-linejoin:miter;"/>
   </g>
   <g id="patch_126">
    <path clip-path="url(#p8e3c0e713e)" d="M 323.93125 237.55 
L 352.725 237.55 
L 352.725 208.75625 
L 323.93125 208.75625 
z
" style="fill:#6a5acd;stroke:#6a5acd;stroke-linejoin:miter;"/>
   </g>
   <g id="patch_127">
    <path clip-path="url(#p8e3c0e713e)" d="M 352.725 237.55 
L 381.51875 237.55 
L 381.51875 208.75625 
L 352.725 208.75625 
z
" style="fill:#4169e1;stroke:#4169e1;stroke-linejoin:miter;"/>
   </g>
   <g id="patch_128">
    <path clip-path="url(#p8e3c0e713e)" d="M 381.51875 237.55 
L 410.3125 237.55 
L 410.3125 208.75625 
L 381.51875 208.75625 
z
" style="fill:#4169e1;stroke:#4169e1;stroke-linejoin:miter;"/>
   </g>
   <g id="patch_129">
    <path clip-path="url(#p8e3c0e713e)" d="M 410.3125 237.55 
L 439.10625 237.55 
L 439.10625 208.75625 
L 410.3125 208.75625 
z
" style="fill:#40e0d0;stroke:#40e0d0;stroke-linejoin:miter;"/>
   </g>
   <g id="patch_130">
    <path clip-path="url(#p8e3c0e713e)" d="M 439.10625 237.55 
L 467.9 237.55 
L 467.9 208.75625 
L 439.10625 208.75625 
z
" style="fill:#6a5acd;stroke:#6a5acd;stroke-linejoin:miter;"/>
   </g>
   <g id="patch_131">
    <path clip-path="url(#p8e3c0e713e)" d="M 7.2 266.34375 
L 35.99375 266.34375 
L 35.99375 237.55 
L 7.2 237.55 
z
" style="fill:#4169e1;stroke:#4169e1;stroke-linejoin:miter;"/>
   </g>
   <g id="patch_132">
    <path clip-path="url(#p8e3c0e713e)" d="M 35.99375 266.34375 
L 64.7875 266.34375 
L 64.7875 237.55 
L 35.99375 237.55 
z
" style="fill:#6a5acd;stroke:#6a5acd;stroke-linejoin:miter;"/>
   </g>
   <g id="patch_133">
    <path clip-path="url(#p8e3c0e713e)" d="M 64.7875 266.34375 
L 93.58125 266.34375 
L 93.58125 237.55 
L 64.7875 237.55 
z
" style="fill:#4169e1;stroke:#4169e1;stroke-linejoin:miter;"/>
   </g>
   <g id="patch_134">
    <path clip-path="url(#p8e3c0e713e)" d="M 93.58125 266.34375 
L 122.375 266.34375 
L 122.375 237.55 
L 93.58125 237.55 
z
" style="fill:#40e0d0;stroke:#40e0d0;stroke-linejoin:miter;"/>
   </g>
   <g id="patch_135">
    <path clip-path="url(#p8e3c0e713e)" d="M 122.375 266.34375 
L 151.16875 266.34375 
L 151.16875 237.55 
L 122.375 237.55 
z
" style="fill:#40e0d0;stroke:#40e0d0;stroke-linejoin:miter;"/>
   </g>
   <g id="patch_136">
    <path clip-path="url(#p8e3c0e713e)" d="M 151.16875 266.34375 
L 179.9625 266.34375 
L 179.9625 237.55 
L 151.16875 237.55 
z
" style="fill:#6a5acd;stroke:#6a5acd;stroke-linejoin:miter;"/>
   </g>
   <g id="patch_137">
    <path clip-path="url(#p8e3c0e713e)" d="M 179.9625 266.34375 
L 208.75625 266.34375 
L 208.75625 237.55 
L 179.9625 237.55 
z
" style="fill:#4169e1;stroke:#4169e1;stroke-linejoin:miter;"/>
   </g>
   <g id="patch_138">
    <path clip-path="url(#p8e3c0e713e)" d="M 208.75625 266.34375 
L 237.55 266.34375 
L 237.55 237.55 
L 208.75625 237.55 
z
" style="fill:#4169e1;stroke:#4169e1;stroke-linejoin:miter;"/>
   </g>
   <g id="patch_139">
    <path clip-path="url(#p8e3c0e713e)" d="M 237.55 266.34375 
L 266.34375 266.34375 
L 266.34375 237.55 
L 237.55 237.55 
z
" style="fill:#4169e1;stroke:#4169e1;stroke-linejoin:miter;"/>
   </g>
   <g id="patch_140">
    <path clip-path="url(#p8e3c0e713e)" d="M 266.34375 266.34375 
L 295.1375 266.34375 
L 295.1375 237.55 
L 266.34375 237.55 
z
" style="fill:#4169e1;stroke:#4169e1;stroke-linejoin:miter;"/>
   </g>
   <g id="patch_141">
    <path clip-path="url(#p8e3c0e713e)" d="M 295.1375 266.34375 
L 323.93125 266.34375 
L 323.93125 237.55 
L 295.1375 237.55 
z
" style="fill:#6a5acd;stroke:#6a5acd;stroke-linejoin:miter;"/>
   </g>
   <g id="patch_142">
    <path clip-path="url(#p8e3c0e713e)" d="M 323.93125 266.34375 
L 352.725 266.34375 
L 352.725 237.55 
L 323.93125 237.55 
z
" style="fill:#40e0d0;stroke:#40e0d0;stroke-linejoin:miter;"/>
   </g>
   <g id="patch_143">
    <path clip-path="url(#p8e3c0e713e)" d="M 352.725 266.34375 
L 381.51875 266.34375 
L 381.51875 237.55 
L 352.725 237.55 
z
" style="fill:#40e0d0;stroke:#40e0d0;stroke-linejoin:miter;"/>
   </g>
   <g id="patch_144">
    <path clip-path="url(#p8e3c0e713e)" d="M 381.51875 266.34375 
L 410.3125 266.34375 
L 410.3125 237.55 
L 381.51875 237.55 
z
" style="fill:#4169e1;stroke:#4169e1;stroke-linejoin:miter;"/>
   </g>
   <g id="patch_145">
    <path clip-path="url(#p8e3c0e713e)" d="M 410.3125 266.34375 
L 439.10625 266.34375 
L 439.10625 237.55 
L 410.3125 237.55 
z
" style="fill:#6a5acd;stroke:#6a5acd;stroke-linejoin:miter;"/>
   </g>
   <g id="patch_146">
    <path clip-path="url(#p8e3c0e713e)" d="M 439.10625 266.34375 
L 467.9 266.34375 
L 467.9 237.55 
L 439.10625 237.55 
z
" style="fill:#4169e1;stroke:#4169e1;stroke-linejoin:miter;"/>
   </g>
   <g id="patch_147">
    <path clip-path="url(#p8e3c0e713e)" d="M 7.2 295.1375 
L 35.99375 295.1375 
L 35.99375 266.34375 
L 7.2 266.34375 
z
" style="fill:#40e0d0;stroke:#40e0d0;stroke-linejoin:miter;"/>
   </g>
   <g id="patch_148">
    <path clip-path="url(#p8e3c0e713e)" d="M 35.99375 295.1375 
L 64.7875 295.1375 
L 64.7875 266.34375 
L 35.99375 266.34375 
z
" style="fill:#4169e1;stroke:#4169e1;stroke-linejoin:miter;"/>
   </g>
   <g id="patch_149">
    <path clip-path="url(#p8e3c0e713e)" d="M 64.7875 295.1375 
L 93.58125 295.1375 
L 93.58125 266.34375 
L 64.7875 266.34375 
z
" style="fill:#6a5acd;stroke:#6a5acd;stroke-linejoin:miter;"/>
   </g>
   <g id="patch_150">
    <path clip-path="url(#p8e3c0e713e)" d="M 93.58125 295.1375 
L 122.375 295.1375 
L 122.375 266.34375 
L 93.58125 266.34375 
z
" style="fill:#4169e1;stroke:#4169e1;stroke-linejoin:miter;"/>
   </g>
   <g id="patch_151">
    <path clip-path="url(#p8e3c0e713e)" d="M 122.375 295.1375 
L 151.16875 295.1375 
L 151.16875 266.34375 
L 122.375 266.34375 
z
" style="fill:#4169e1;stroke:#4169e1;stroke-linejoin:miter;"/>
   </g>
   <g id="patch_152">
    <path clip-path="url(#p8e3c0e713e)" d="M 151.16875 295.1375 
L 179.9625 295.1375 
L 179.9625 266.34375 
L 151.16875 266.34375 
z
" style="fill:#6a5acd;stroke:#6a5acd;stroke-linejoin:miter;"/>
   </g>
   <g id="patch_153">
    <path clip-path="url(#p8e3c0e713e)" d="M 179.9625 295.1375 
L 208.75625 295.1375 
L 208.75625 266.34375 
L 179.9625 266.34375 
z
" style="fill:#4169e1;stroke:#4169e1;stroke-linejoin:miter;"/>
   </g>
   <g id="patch_154">
    <path clip-path="url(#p8e3c0e713e)" d="M 208.75625 295.1375 
L 237.55 295.1375 
L 237.55 266.34375 
L 208.75625 266.34375 
z
" style="fill:#4169e1;stroke:#4169e1;stroke-linejoin:miter;"/>
   </g>
   <g id="patch_155">
    <path clip-path="url(#p8e3c0e713e)" d="M 237.55 295.1375 
L 266.34375 295.1375 
L 266.34375 266.34375 
L 237.55 266.34375 
z
" style="fill:#4169e1;stroke:#4169e1;stroke-linejoin:miter;"/>
   </g>
   <g id="patch_156">
    <path clip-path="url(#p8e3c0e713e)" d="M 266.34375 295.1375 
L 295.1375 295.1375 
L 295.1375 266.34375 
L 266.34375 266.34375 
z
" style="fill:#4169e1;stroke:#4169e1;stroke-linejoin:miter;"/>
   </g>
   <g id="patch_157">
    <path clip-path="url(#p8e3c0e713e)" d="M 295.1375 295.1375 
L 323.93125 295.1375 
L 323.93125 266.34375 
L 295.1375 266.34375 
z
" style="fill:#6a5acd;stroke:#6a5acd;stroke-linejoin:miter;"/>
   </g>
   <g id="patch_158">
    <path clip-path="url(#p8e3c0e713e)" d="M 323.93125 295.1375 
L 352.725 295.1375 
L 352.725 266.34375 
L 323.93125 266.34375 
z
" style="fill:#4169e1;stroke:#4169e1;stroke-linejoin:miter;"/>
   </g>
   <g id="patch_159">
    <path clip-path="url(#p8e3c0e713e)" d="M 352.725 295.1375 
L 381.51875 295.1375 
L 381.51875 266.34375 
L 352.725 266.34375 
z
" style="fill:#4169e1;stroke:#4169e1;stroke-linejoin:miter;"/>
   </g>
   <g id="patch_160">
    <path clip-path="url(#p8e3c0e713e)" d="M 381.51875 295.1375 
L 410.3125 295.1375 
L 410.3125 266.34375 
L 381.51875 266.34375 
z
" style="fill:#6a5acd;stroke:#6a5acd;stroke-linejoin:miter;"/>
   </g>
   <g id="patch_161">
    <path clip-path="url(#p8e3c0e713e)" d="M 410.3125 295.1375 
L 439.10625 295.1375 
L 439.10625 266.34375 
L 410.3125 266.34375 
z
" style="fill:#4169e1;stroke:#4169e1;stroke-linejoin:miter;"/>
   </g>
   <g id="patch_162">
    <path clip-path="url(#p8e3c0e713e)" d="M 439.10625 295.1375 
L 467.9 295.1375 
L 467.9 266.34375 
L 439.10625 266.34375 
z
" style="fill:#40e0d0;stroke:#40e0d0;stroke-linejoin:miter;"/>
   </g>
   <g id="matplotlib.axis_1">
    <g id="xtick_1">
     <g id="line2d_1">
      <path clip-path="url(#p8e3c0e713e)" d="M 7.2 295.1375 
L 7.2 7.2 
" style="fill:none;stroke:#000000;stroke-linecap:square;stroke-width:2;"/>
     </g>
    </g>
    <g id="xtick_2">
     <g id="line2d_2">
      <path clip-path="url(#p8e3c0e713e)" d="M 35.99375 295.1375 
L 35.99375 7.2 
" style="fill:none;stroke:#000000;stroke-linecap:square;stroke-width:2;"/>
     </g>
    </g>
    <g id="xtick_3">
     <g id="line2d_3">
      <path clip-path="url(#p8e3c0e713e)" d="M 64.7875 295.1375 
L 64.7875 7.2 
" style="fill:none;stroke:#000000;stroke-linecap:square;stroke-width:2;"/>
     </g>
    </g>
    <g id="xtick_4">
     <g id="line2d_4">
      <path clip-path="url(#p8e3c0e713e)" d="M 93.58125 295.1375 
L 93.58125 7.2 
" style="fill:none;stroke:#000000;stroke-linecap:square;stroke-width:2;"/>
     </g>
    </g>
    <g id="xtick_5">
     <g id="line2d_5">
      <path clip-path="url(#p8e3c0e713e)" d="M 122.375 295.1375 
L 122.375 7.2 
" style="fill:none;stroke:#000000;stroke-linecap:square;stroke-width:2;"/>
     </g>
    </g>
    <g id="xtick_6">
     <g id="line2d_6">
      <path clip-path="url(#p8e3c0e713e)" d="M 151.16875 295.1375 
L 151.16875 7.2 
" style="fill:none;stroke:#000000;stroke-linecap:square;stroke-width:2;"/>
     </g>
    </g>
    <g id="xtick_7">
     <g id="line2d_7">
      <path clip-path="url(#p8e3c0e713e)" d="M 179.9625 295.1375 
L 179.9625 7.2 
" style="fill:none;stroke:#000000;stroke-linecap:square;stroke-width:2;"/>
     </g>
    </g>
    <g id="xtick_8">
     <g id="line2d_8">
      <path clip-path="url(#p8e3c0e713e)" d="M 208.75625 295.1375 
L 208.75625 7.2 
" style="fill:none;stroke:#000000;stroke-linecap:square;stroke-width:2;"/>
     </g>
    </g>
    <g id="xtick_9">
     <g id="line2d_9">
      <path clip-path="url(#p8e3c0e713e)" d="M 237.55 295.1375 
L 237.55 7.2 
" style="fill:none;stroke:#000000;stroke-linecap:square;stroke-width:2;"/>
     </g>
    </g>
    <g id="xtick_10">
     <g id="line2d_10">
      <path clip-path="url(#p8e3c0e713e)" d="M 266.34375 295.1375 
L 266.34375 7.2 
" style="fill:none;stroke:#000000;stroke-linecap:square;stroke-width:2;"/>
     </g>
    </g>
    <g id="xtick_11">
     <g id="line2d_11">
      <path clip-path="url(#p8e3c0e713e)" d="M 295.1375 295.1375 
L 295.1375 7.2 
" style="fill:none;stroke:#000000;stroke-linecap:square;stroke-width:2;"/>
     </g>
    </g>
    <g id="xtick_12">
     <g id="line2d_12">
      <path clip-path="url(#p8e3c0e713e)" d="M 323.93125 295.1375 
L 323.93125 7.2 
" style="fill:none;stroke:#000000;stroke-linecap:square;stroke-width:2;"/>
     </g>
    </g>
    <g id="xtick_13">
     <g id="line2d_13">
      <path clip-path="url(#p8e3c0e713e)" d="M 352.725 295.1375 
L 352.725 7.2 
" style="fill:none;stroke:#000000;stroke-linecap:square;stroke-width:2;"/>
     </g>
    </g>
    <g id="xtick_14">
     <g id="line2d_14">
      <path clip-path="url(#p8e3c0e713e)" d="M 381.51875 295.1375 
L 381.51875 7.2 
" style="fill:none;stroke:#000000;stroke-linecap:square;stroke-width:2;"/>
     </g>
    </g>
    <g id="xtick_15">
     <g id="line2d_15">
      <path clip-path="url(#p8e3c0e713e)" d="M 410.3125 295.1375 
L 410.3125 7.2 
" style="fill:none;stroke:#000000;stroke-linecap:square;stroke-width:2;"/>
     </g>
    </g>
    <g id="xtick_16">
     <g id="line2d_16">
      <path clip-path="url(#p8e3c0e713e)" d="M 439.10625 295.1375 
L 439.10625 7.2 
" style="fill:none;stroke:#000000;stroke-linecap:square;stroke-width:2;"/>
     </g>
    </g>
    <g id="xtick_17">
     <g id="line2d_17">
      <path clip-path="url(#p8e3c0e713e)" d="M 467.9 295.1375 
L 467.9 7.2 
" style="fill:none;stroke:#000000;stroke-linecap:square;stroke-width:2;"/>
     </g>
    </g>
   </g>
   <g id="matplotlib.axis_2">
    <g id="ytick_1">
     <g id="line2d_18">
      <path clip-path="url(#p8e3c0e713e)" d="M 7.2 295.1375 
L 467.9 295.1375 
" style="fill:none;stroke:#000000;stroke-linecap:square;stroke-width:2;"/>
     </g>
    </g>
    <g id="ytick_2">
     <g id="line2d_19">
      <path clip-path="url(#p8e3c0e713e)" d="M 7.2 266.34375 
L 467.9 266.34375 
" style="fill:none;stroke:#000000;stroke-linecap:square;stroke-width:2;"/>
     </g>
    </g>
    <g id="ytick_3">
     <g id="line2d_20">
      <path clip-path="url(#p8e3c0e713e)" d="M 7.2 237.55 
L 467.9 237.55 
" style="fill:none;stroke:#000000;stroke-linecap:square;stroke-width:2;"/>
     </g>
    </g>
    <g id="ytick_4">
     <g id="line2d_21">
      <path clip-path="url(#p8e3c0e713e)" d="M 7.2 208.75625 
L 467.9 208.75625 
" style="fill:none;stroke:#000000;stroke-linecap:square;stroke-width:2;"/>
     </g>
    </g>
    <g id="ytick_5">
     <g id="line2d_22">
      <path clip-path="url(#p8e3c0e713e)" d="M 7.2 179.9625 
L 467.9 179.9625 
" style="fill:none;stroke:#000000;stroke-linecap:square;stroke-width:2;"/>
     </g>
    </g>
    <g id="ytick_6">
     <g id="line2d_23">
      <path clip-path="url(#p8e3c0e713e)" d="M 7.2 151.16875 
L 467.9 151.16875 
" style="fill:none;stroke:#000000;stroke-linecap:square;stroke-width:2;"/>
     </g>
    </g>
    <g id="ytick_7">
     <g id="line2d_24">
      <path clip-path="url(#p8e3c0e713e)" d="M 7.2 122.375 
L 467.9 122.375 
" style="fill:none;stroke:#000000;stroke-linecap:square;stroke-width:2;"/>
     </g>
    </g>
    <g id="ytick_8">
     <g id="line2d_25">
      <path clip-path="url(#p8e3c0e713e)" d="M 7.2 93.58125 
L 467.9 93.58125 
" style="fill:none;stroke:#000000;stroke-linecap:square;stroke-width:2;"/>
     </g>
    </g>
    <g id="ytick_9">
     <g id="line2d_26">
      <path clip-path="url(#p8e3c0e713e)" d="M 7.2 64.7875 
L 467.9 64.7875 
" style="fill:none;stroke:#000000;stroke-linecap:square;stroke-width:2;"/>
     </g>
    </g>
    <g id="ytick_10">
     <g id="line2d_27">
      <path clip-path="url(#p8e3c0e713e)" d="M 7.2 35.99375 
L 467.9 35.99375 
" style="fill:none;stroke:#000000;stroke-linecap:square;stroke-width:2;"/>
     </g>
    </g>
    <g id="ytick_11">
     <g id="line2d_28">
      <path clip-path="url(#p8e3c0e713e)" d="M 7.2 7.2 
L 467.9 7.2 
" style="fill:none;stroke:#000000;stroke-linecap:square;stroke-width:2;"/>
     </g>
    </g>
   </g>
   <g id="patch_163">
    <path d="M 7.2 295.1375 
L 7.2 7.2 
" style="fill:none;stroke:#000000;stroke-linecap:square;stroke-linejoin:miter;stroke-width:2;"/>
   </g>
   <g id="patch_164">
    <path d="M 467.9 295.1375 
L 467.9 7.2 
" style="fill:none;stroke:#000000;stroke-linecap:square;stroke-linejoin:miter;stroke-width:2;"/>
   </g>
   <g id="patch_165">
    <path d="M 7.2 295.1375 
L 467.9 295.1375 
" style="fill:none;stroke:#000000;stroke-linecap:square;stroke-linejoin:miter;stroke-width:2;"/>
   </g>
   <g id="patch_166">
    <path d="M 7.2 7.2 
L 467.9 7.2 
" style="fill:none;stroke:#000000;stroke-linecap:square;stroke-linejoin:miter;stroke-width:2;"/>
   </g>
  </g>
 </g>
 <defs>
  <clipPath id="p8e3c0e713e">
   <rect height="287.9375" width="460.7" x="7.2" y="7.2"/>
  </clipPath>
 </defs>
</svg>
