<?xml version="1.0" encoding="utf-8" standalone="no"?>
<!DOCTYPE svg PUBLIC "-//W3C//DTD SVG 1.1//EN"
  "http://www.w3.org/Graphics/SVG/1.1/DTD/svg11.dtd">
<!-- Created with matplotlib (https://matplotlib.org/) -->
<svg height="312.5pt" version="1.1" viewBox="0 0 475.1 312.5" width="475.1pt" xmlns="http://www.w3.org/2000/svg" xmlns:xlink="http://www.w3.org/1999/xlink">
 <defs>
  <style type="text/css">
*{stroke-linecap:butt;stroke-linejoin:round;}
  </style>
 </defs>
 <g id="figure_1">
  <g id="patch_1">
   <path d="M 0 312.5 
L 475.1 312.5 
L 475.1 0 
L 0 0 
z
" style="fill:#ffffff;"/>
  </g>
  <g id="axes_1">
   <g id="patch_2">
    <path d="M 7.2 305.3 
L 467.9 305.3 
L 467.9 7.2 
L 7.2 7.2 
z
" style="fill:#ffffff;"/>
   </g>
   <g id="patch_3">
    <path clip-path="url(#pe9f29cb285)" d="M 7.2 34.3 
L 34.3 34.3 
L 34.3 7.2 
L 7.2 7.2 
z
" style="fill:#ffd700;stroke:#ffd700;stroke-linejoin:miter;"/>
   </g>
   <g id="patch_4">
    <path clip-path="url(#pe9f29cb285)" d="M 34.3 34.3 
L 61.4 34.3 
L 61.4 7.2 
L 34.3 7.2 
z
" style="fill:#ffd700;stroke:#ffd700;stroke-linejoin:miter;"/>
   </g>
   <g id="patch_5">
    <path clip-path="url(#pe9f29cb285)" d="M 61.4 34.3 
L 88.5 34.3 
L 88.5 7.2 
L 61.4 7.2 
z
" style="fill:#ffd700;stroke:#ffd700;stroke-linejoin:miter;"/>
   </g>
   <g id="patch_6">
    <path clip-path="url(#pe9f29cb285)" d="M 88.5 34.3 
L 115.6 34.3 
L 115.6 7.2 
L 88.5 7.2 
z
" style="fill:#ffd700;stroke:#ffd700;stroke-linejoin:miter;"/>
   </g>
   <g id="patch_7">
    <path clip-path="url(#pe9f29cb285)" d="M 115.6 34.3 
L 142.7 34.3 
L 142.7 7.2 
L 115.6 7.2 
z
" style="fill:#ffd700;stroke:#ffd700;stroke-linejoin:miter;"/>
   </g>
   <g id="patch_8">
    <path clip-path="url(#pe9f29cb285)" d="M 142.7 34.3 
L 169.8 34.3 
L 169.8 7.2 
L 142.7 7.2 
z
" style="fill:#ffd700;stroke:#ffd700;stroke-linejoin:miter;"/>
   </g>
   <g id="patch_9">
    <path clip-path="url(#pe9f29cb285)" d="M 169.8 34.3 
L 196.9 34.3 
L 196.9 7.2 
L 169.8 7.2 
z
" style="fill:#ffd700;stroke:#ffd700;stroke-linejoin:miter;"/>
   </g>
   <g id="patch_10">
    <path clip-path="url(#pe9f29cb285)" d="M 196.9 34.3 
L 224 34.3 
L 224 7.2 
L 196.9 7.2 
z
" style="fill:#ffd700;stroke:#ffd700;stroke-linejoin:miter;"/>
   </g>
   <g id="patch_11">
    <path clip-path="url(#pe9f29cb285)" d="M 224 34.3 
L 251.1 34.3 
L 251.1 7.2 
L 224 7.2 
z
" style="fill:#ffd700;stroke:#ffd700;stroke-linejoin:miter;"/>
   </g>
   <g id="patch_12">
    <path clip-path="url(#pe9f29cb285)" d="M 251.1 34.3 
L 278.2 34.3 
L 278.2 7.2 
L 251.1 7.2 
z
" style="fill:#ffd700;stroke:#ffd700;stroke-linejoin:miter;"/>
   </g>
   <g id="patch_13">
    <path clip-path="url(#pe9f29cb285)" d="M 278.2 34.3 
L 305.3 34.3 
L 305.3 7.2 
L 278.2 7.2 
z
" style="fill:#ffd700;stroke:#ffd700;stroke-linejoin:miter;"/>
   </g>
   <g id="patch_14">
    <path clip-path="url(#pe9f29cb285)" d="M 305.3 34.3 
L 332.4 34.3 
L 332.4 7.2 
L 305.3 7.2 
z
" style="fill:#ffd700;stroke:#ffd700;stroke-linejoin:miter;"/>
   </g>
   <g id="patch_15">
    <path clip-path="url(#pe9f29cb285)" d="M 332.4 34.3 
L 359.5 34.3 
L 359.5 7.2 
L 332.4 7.2 
z
" style="fill:#ffd700;stroke:#ffd700;stroke-linejoin:miter;"/>
   </g>
   <g id="patch_16">
    <path clip-path="url(#pe9f29cb285)" d="M 359.5 34.3 
L 386.6 34.3 
L 386.6 7.2 
L 359.5 7.2 
z
" style="fill:#ffd700;stroke:#ffd700;stroke-linejoin:miter;"/>
   </g>
   <g id="patch_17">
    <path clip-path="url(#pe9f29cb285)" d="M 386.6 34.3 
L 413.7 34.3 
L 413.7 7.2 
L 386.6 7.2 
z
" style="fill:#ffd700;stroke:#ffd700;stroke-linejoin:miter;"/>
   </g>
   <g id="patch_18">
    <path clip-path="url(#pe9f29cb285)" d="M 413.7 34.3 
L 440.8 34.3 
L 440.8 7.2 
L 413.7 7.2 
z
" style="fill:#ffd700;stroke:#ffd700;stroke-linejoin:miter;"/>
   </g>
   <g id="patch_19">
    <path clip-path="url(#pe9f29cb285)" d="M 440.8 34.3 
L 467.9 34.3 
L 467.9 7.2 
L 440.8 7.2 
z
" style="fill:#ffd700;stroke:#ffd700;stroke-linejoin:miter;"/>
   </g>
   <g id="patch_20">
    <path clip-path="url(#pe9f29cb285)" d="M 7.2 61.4 
L 34.3 61.4 
L 34.3 34.3 
L 7.2 34.3 
z
" style="fill:#ffd700;stroke:#ffd700;stroke-linejoin:miter;"/>
   </g>
   <g id="patch_21">
    <path clip-path="url(#pe9f29cb285)" d="M 34.3 61.4 
L 61.4 61.4 
L 61.4 34.3 
L 34.3 34.3 
z
" style="fill:#ffd700;stroke:#ffd700;stroke-linejoin:miter;"/>
   </g>
   <g id="patch_22">
    <path clip-path="url(#pe9f29cb285)" d="M 61.4 61.4 
L 88.5 61.4 
L 88.5 34.3 
L 61.4 34.3 
z
" style="fill:#ffd700;stroke:#ffd700;stroke-linejoin:miter;"/>
   </g>
   <g id="patch_23">
    <path clip-path="url(#pe9f29cb285)" d="M 88.5 61.4 
L 115.6 61.4 
L 115.6 34.3 
L 88.5 34.3 
z
" style="fill:#ffd700;stroke:#ffd700;stroke-linejoin:miter;"/>
   </g>
   <g id="patch_24">
    <path clip-path="url(#pe9f29cb285)" d="M 115.6 61.4 
L 142.7 61.4 
L 142.7 34.3 
L 115.6 34.3 
z
" style="fill:#ffd700;stroke:#ffd700;stroke-linejoin:miter;"/>
   </g>
   <g id="patch_25">
    <path clip-path="url(#pe9f29cb285)" d="M 142.7 61.4 
L 169.8 61.4 
L 169.8 34.3 
L 142.7 34.3 
z
" style="fill:#ffd700;stroke:#ffd700;stroke-linejoin:miter;"/>
   </g>
   <g id="patch_26">
    <path clip-path="url(#pe9f29cb285)" d="M 169.8 61.4 
L 196.9 61.4 
L 196.9 34.3 
L 169.8 34.3 
z
" style="fill:#ffd700;stroke:#ffd700;stroke-linejoin:miter;"/>
   </g>
   <g id="patch_27">
    <path clip-path="url(#pe9f29cb285)" d="M 196.9 61.4 
L 224 61.4 
L 224 34.3 
L 196.9 34.3 
z
" style="fill:#ffd700;stroke:#ffd700;stroke-linejoin:miter;"/>
   </g>
   <g id="patch_28">
    <path clip-path="url(#pe9f29cb285)" d="M 224 61.4 
L 251.1 61.4 
L 251.1 34.3 
L 224 34.3 
z
" style="fill:#ffd700;stroke:#ffd700;stroke-linejoin:miter;"/>
   </g>
   <g id="patch_29">
    <path clip-path="url(#pe9f29cb285)" d="M 251.1 61.4 
L 278.2 61.4 
L 278.2 34.3 
L 251.1 34.3 
z
" style="fill:#ffd700;stroke:#ffd700;stroke-linejoin:miter;"/>
   </g>
   <g id="patch_30">
    <path clip-path="url(#pe9f29cb285)" d="M 278.2 61.4 
L 305.3 61.4 
L 305.3 34.3 
L 278.2 34.3 
z
" style="fill:#ffd700;stroke:#ffd700;stroke-linejoin:miter;"/>
   </g>
   <g id="patch_31">
    <path clip-path="url(#pe9f29cb285)" d="M 305.3 61.4 
L 332.4 61.4 
L 332.4 34.3 
L 305.3 34.3 
z
" style="fill:#ffd700;stroke:#ffd700;stroke-linejoin:miter;"/>
   </g>
   <g id="patch_32">
    <path clip-path="url(#pe9f29cb285)" d="M 332.4 61.4 
L 359.5 61.4 
L 359.5 34.3 
L 332.4 34.3 
z
" style="fill:#ffd700;stroke:#ffd700;stroke-linejoin:miter;"/>
   </g>
   <g id="patch_33">
    <path clip-path="url(#pe9f29cb285)" d="M 359.5 61.4 
L 386.6 61.4 
L 386.6 34.3 
L 359.5 34.3 
z
" style="fill:#ffd700;stroke:#ffd700;stroke-linejoin:miter;"/>
   </g>
   <g id="patch_34">
    <path clip-path="url(#pe9f29cb285)" d="M 386.6 61.4 
L 413.7 61.4 
L 413.7 34.3 
L 386.6 34.3 
z
" style="fill:#ffd700;stroke:#ffd700;stroke-linejoin:miter;"/>
   </g>
   <g id="patch_35">
    <path clip-path="url(#pe9f29cb285)" d="M 413.7 61.4 
L 440.8 61.4 
L 440.8 34.3 
L 413.7 34.3 
z
" style="fill:#ffd700;stroke:#ffd700;stroke-linejoin:miter;"/>
   </g>
   <g id="patch_36">
    <path clip-path="url(#pe9f29cb285)" d="M 440.8 61.4 
L 467.9 61.4 
L 467.9 34.3 
L 440.8 34.3 
z
" style="fill:#ffd700;stroke:#ffd700;stroke-linejoin:miter;"/>
   </g>
   <g id="patch_37">
    <path clip-path="url(#pe9f29cb285)" d="M 7.2 88.5 
L 34.3 88.5 
L 34.3 61.4 
L 7.2 61.4 
z
" style="fill:#ffd700;stroke:#ffd700;stroke-linejoin:miter;"/>
   </g>
   <g id="patch_38">
    <path clip-path="url(#pe9f29cb285)" d="M 34.3 88.5 
L 61.4 88.5 
L 61.4 61.4 
L 34.3 61.4 
z
" style="fill:#ffd700;stroke:#ffd700;stroke-linejoin:miter;"/>
   </g>
   <g id="patch_39">
    <path clip-path="url(#pe9f29cb285)" d="M 61.4 88.5 
L 88.5 88.5 
L 88.5 61.4 
L 61.4 61.4 
z
" style="fill:#ffd700;stroke:#ffd700;stroke-linejoin:miter;"/>
   </g>
   <g id="patch_40">
    <path clip-path="url(#pe9f29cb285)" d="M 88.5 88.5 
L 115.6 88.5 
L 115.6 61.4 
L 88.5 61.4 
z
" style="fill:#ffd700;stroke:#ffd700;stroke-linejoin:miter;"/>
   </g>
   <g id="patch_41">
    <path clip-path="url(#pe9f29cb285)" d="M 115.6 88.5 
L 142.7 88.5 
L 142.7 61.4 
L 115.6 61.4 
z
" style="fill:#ffd700;stroke:#ffd700;stroke-linejoin:miter;"/>
   </g>
   <g id="patch_42">
    <path clip-path="url(#pe9f29cb285)" d="M 142.7 88.5 
L 169.8 88.5 
L 169.8 61.4 
L 142.7 61.4 
z
" style="fill:#ffd700;stroke:#ffd700;stroke-linejoin:miter;"/>
   </g>
   <g id="patch_43">
    <path clip-path="url(#pe9f29cb285)" d="M 169.8 88.5 
L 196.9 88.5 
L 196.9 61.4 
L 169.8 61.4 
z
" style="fill:#ffd700;stroke:#ffd700;stroke-linejoin:miter;"/>
   </g>
   <g id="patch_44">
    <path clip-path="url(#pe9f29cb285)" d="M 196.9 88.5 
L 224 88.5 
L 224 61.4 
L 196.9 61.4 
z
" style="fill:#ffd700;stroke:#ffd700;stroke-linejoin:miter;"/>
   </g>
   <g id="patch_45">
    <path clip-path="url(#pe9f29cb285)" d="M 224 88.5 
L 251.1 88.5 
L 251.1 61.4 
L 224 61.4 
z
" style="fill:#ffd700;stroke:#ffd700;stroke-linejoin:miter;"/>
   </g>
   <g id="patch_46">
    <path clip-path="url(#pe9f29cb285)" d="M 251.1 88.5 
L 278.2 88.5 
L 278.2 61.4 
L 251.1 61.4 
z
" style="fill:#ffd700;stroke:#ffd700;stroke-linejoin:miter;"/>
   </g>
   <g id="patch_47">
    <path clip-path="url(#pe9f29cb285)" d="M 278.2 88.5 
L 305.3 88.5 
L 305.3 61.4 
L 278.2 61.4 
z
" style="fill:#ffd700;stroke:#ffd700;stroke-linejoin:miter;"/>
   </g>
   <g id="patch_48">
    <path clip-path="url(#pe9f29cb285)" d="M 305.3 88.5 
L 332.4 88.5 
L 332.4 61.4 
L 305.3 61.4 
z
" style="fill:#ffd700;stroke:#ffd700;stroke-linejoin:miter;"/>
   </g>
   <g id="patch_49">
    <path clip-path="url(#pe9f29cb285)" d="M 332.4 88.5 
L 359.5 88.5 
L 359.5 61.4 
L 332.4 61.4 
z
" style="fill:#ffd700;stroke:#ffd700;stroke-linejoin:miter;"/>
   </g>
   <g id="patch_50">
    <path clip-path="url(#pe9f29cb285)" d="M 359.5 88.5 
L 386.6 88.5 
L 386.6 61.4 
L 359.5 61.4 
z
" style="fill:#ffd700;stroke:#ffd700;stroke-linejoin:miter;"/>
   </g>
   <g id="patch_51">
    <path clip-path="url(#pe9f29cb285)" d="M 386.6 88.5 
L 413.7 88.5 
L 413.7 61.4 
L 386.6 61.4 
z
" style="fill:#ffd700;stroke:#ffd700;stroke-linejoin:miter;"/>
   </g>
   <g id="patch_52">
    <path clip-path="url(#pe9f29cb285)" d="M 413.7 88.5 
L 440.8 88.5 
L 440.8 61.4 
L 413.7 61.4 
z
" style="fill:#ffd700;stroke:#ffd700;stroke-linejoin:miter;"/>
   </g>
   <g id="patch_53">
    <path clip-path="url(#pe9f29cb285)" d="M 440.8 88.5 
L 467.9 88.5 
L 467.9 61.4 
L 440.8 61.4 
z
" style="fill:#ffd700;stroke:#ffd700;stroke-linejoin:miter;"/>
   </g>
   <g id="patch_54">
    <path clip-path="url(#pe9f29cb285)" d="M 7.2 115.6 
L 34.3 115.6 
L 34.3 88.5 
L 7.2 88.5 
z
" style="fill:#ffd700;stroke:#ffd700;stroke-linejoin:miter;"/>
   </g>
   <g id="patch_55">
    <path clip-path="url(#pe9f29cb285)" d="M 34.3 115.6 
L 61.4 115.6 
L 61.4 88.5 
L 34.3 88.5 
z
" style="fill:#ffd700;stroke:#ffd700;stroke-linejoin:miter;"/>
   </g>
   <g id="patch_56">
    <path clip-path="url(#pe9f29cb285)" d="M 61.4 115.6 
L 88.5 115.6 
L 88.5 88.5 
L 61.4 88.5 
z
" style="fill:#ffd700;stroke:#ffd700;stroke-linejoin:miter;"/>
   </g>
   <g id="patch_57">
    <path clip-path="url(#pe9f29cb285)" d="M 88.5 115.6 
L 115.6 115.6 
L 115.6 88.5 
L 88.5 88.5 
z
" style="fill:#ffd700;stroke:#ffd700;stroke-linejoin:miter;"/>
   </g>
   <g id="patch_58">
    <path clip-path="url(#pe9f29cb285)" d="M 115.6 115.6 
L 142.7 115.6 
L 142.7 88.5 
L 115.6 88.5 
z
" style="fill:#ffd700;stroke:#ffd700;stroke-linejoin:miter;"/>
   </g>
   <g id="patch_59">
    <path clip-path="url(#pe9f29cb285)" d="M 142.7 115.6 
L 169.8 115.6 
L 169.8 88.5 
L 142.7 88.5 
z
" style="fill:#ffd700;stroke:#ffd700;stroke-linejoin:miter;"/>
   </g>
   <g id="patch_60">
    <path clip-path="url(#pe9f29cb285)" d="M 169.8 115.6 
L 196.9 115.6 
L 196.9 88.5 
L 169.8 88.5 
z
" style="fill:#ffd700;stroke:#ffd700;stroke-linejoin:miter;"/>
   </g>
   <g id="patch_61">
    <path clip-path="url(#pe9f29cb285)" d="M 196.9 115.6 
L 224 115.6 
L 224 88.5 
L 196.9 88.5 
z
" style="fill:#ffd700;stroke:#ffd700;stroke-linejoin:miter;"/>
   </g>
   <g id="patch_62">
    <path clip-path="url(#pe9f29cb285)" d="M 224 115.6 
L 251.1 115.6 
L 251.1 88.5 
L 224 88.5 
z
" style="fill:#ffd700;stroke:#ffd700;stroke-linejoin:miter;"/>
   </g>
   <g id="patch_63">
    <path clip-path="url(#pe9f29cb285)" d="M 251.1 115.6 
L 278.2 115.6 
L 278.2 88.5 
L 251.1 88.5 
z
" style="fill:#ffd700;stroke:#ffd700;stroke-linejoin:miter;"/>
   </g>
   <g id="patch_64">
    <path clip-path="url(#pe9f29cb285)" d="M 278.2 115.6 
L 305.3 115.6 
L 305.3 88.5 
L 278.2 88.5 
z
" style="fill:#ffd700;stroke:#ffd700;stroke-linejoin:miter;"/>
   </g>
   <g id="patch_65">
    <path clip-path="url(#pe9f29cb285)" d="M 305.3 115.6 
L 332.4 115.6 
L 332.4 88.5 
L 305.3 88.5 
z
" style="fill:#ffd700;stroke:#ffd700;stroke-linejoin:miter;"/>
   </g>
   <g id="patch_66">
    <path clip-path="url(#pe9f29cb285)" d="M 332.4 115.6 
L 359.5 115.6 
L 359.5 88.5 
L 332.4 88.5 
z
" style="fill:#ffd700;stroke:#ffd700;stroke-linejoin:miter;"/>
   </g>
   <g id="patch_67">
    <path clip-path="url(#pe9f29cb285)" d="M 359.5 115.6 
L 386.6 115.6 
L 386.6 88.5 
L 359.5 88.5 
z
" style="fill:#ffd700;stroke:#ffd700;stroke-linejoin:miter;"/>
   </g>
   <g id="patch_68">
    <path clip-path="url(#pe9f29cb285)" d="M 386.6 115.6 
L 413.7 115.6 
L 413.7 88.5 
L 386.6 88.5 
z
" style="fill:#ffd700;stroke:#ffd700;stroke-linejoin:miter;"/>
   </g>
   <g id="patch_69">
    <path clip-path="url(#pe9f29cb285)" d="M 413.7 115.6 
L 440.8 115.6 
L 440.8 88.5 
L 413.7 88.5 
z
" style="fill:#ffd700;stroke:#ffd700;stroke-linejoin:miter;"/>
   </g>
   <g id="patch_70">
    <path clip-path="url(#pe9f29cb285)" d="M 440.8 115.6 
L 467.9 115.6 
L 467.9 88.5 
L 440.8 88.5 
z
" style="fill:#ffd700;stroke:#ffd700;stroke-linejoin:miter;"/>
   </g>
   <g id="patch_71">
    <path clip-path="url(#pe9f29cb285)" d="M 7.2 142.7 
L 34.3 142.7 
L 34.3 115.6 
L 7.2 115.6 
z
" style="fill:#ffd700;stroke:#ffd700;stroke-linejoin:miter;"/>
   </g>
   <g id="patch_72">
    <path clip-path="url(#pe9f29cb285)" d="M 34.3 142.7 
L 61.4 142.7 
L 61.4 115.6 
L 34.3 115.6 
z
" style="fill:#ffd700;stroke:#ffd700;stroke-linejoin:miter;"/>
   </g>
   <g id="patch_73">
    <path clip-path="url(#pe9f29cb285)" d="M 61.4 142.7 
L 88.5 142.7 
L 88.5 115.6 
L 61.4 115.6 
z
" style="fill:#ffd700;stroke:#ffd700;stroke-linejoin:miter;"/>
   </g>
   <g id="patch_74">
    <path clip-path="url(#pe9f29cb285)" d="M 88.5 142.7 
L 115.6 142.7 
L 115.6 115.6 
L 88.5 115.6 
z
" style="fill:#ffd700;stroke:#ffd700;stroke-linejoin:miter;"/>
   </g>
   <g id="patch_75">
    <path clip-path="url(#pe9f29cb285)" d="M 115.6 142.7 
L 142.7 142.7 
L 142.7 115.6 
L 115.6 115.6 
z
" style="fill:#ffd700;stroke:#ffd700;stroke-linejoin:miter;"/>
   </g>
   <g id="patch_76">
    <path clip-path="url(#pe9f29cb285)" d="M 142.7 142.7 
L 169.8 142.7 
L 169.8 115.6 
L 142.7 115.6 
z
" style="fill:#ffd700;stroke:#ffd700;stroke-linejoin:miter;"/>
   </g>
   <g id="patch_77">
    <path clip-path="url(#pe9f29cb285)" d="M 169.8 142.7 
L 196.9 142.7 
L 196.9 115.6 
L 169.8 115.6 
z
" style="fill:#ffd700;stroke:#ffd700;stroke-linejoin:miter;"/>
   </g>
   <g id="patch_78">
    <path clip-path="url(#pe9f29cb285)" d="M 196.9 142.7 
L 224 142.7 
L 224 115.6 
L 196.9 115.6 
z
" style="fill:#ffd700;stroke:#ffd700;stroke-linejoin:miter;"/>
   </g>
   <g id="patch_79">
    <path clip-path="url(#pe9f29cb285)" d="M 224 142.7 
L 251.1 142.7 
L 251.1 115.6 
L 224 115.6 
z
" style="fill:#ffd700;stroke:#ffd700;stroke-linejoin:miter;"/>
   </g>
   <g id="patch_80">
    <path clip-path="url(#pe9f29cb285)" d="M 251.1 142.7 
L 278.2 142.7 
L 278.2 115.6 
L 251.1 115.6 
z
" style="fill:#ffd700;stroke:#ffd700;stroke-linejoin:miter;"/>
   </g>
   <g id="patch_81">
    <path clip-path="url(#pe9f29cb285)" d="M 278.2 142.7 
L 305.3 142.7 
L 305.3 115.6 
L 278.2 115.6 
z
" style="fill:#ffd700;stroke:#ffd700;stroke-linejoin:miter;"/>
   </g>
   <g id="patch_82">
    <path clip-path="url(#pe9f29cb285)" d="M 305.3 142.7 
L 332.4 142.7 
L 332.4 115.6 
L 305.3 115.6 
z
" style="fill:#ffd700;stroke:#ffd700;stroke-linejoin:miter;"/>
   </g>
   <g id="patch_83">
    <path clip-path="url(#pe9f29cb285)" d="M 332.4 142.7 
L 359.5 142.7 
L 359.5 115.6 
L 332.4 115.6 
z
" style="fill:#ffd700;stroke:#ffd700;stroke-linejoin:miter;"/>
   </g>
   <g id="patch_84">
    <path clip-path="url(#pe9f29cb285)" d="M 359.5 142.7 
L 386.6 142.7 
L 386.6 115.6 
L 359.5 115.6 
z
" style="fill:#ffd700;stroke:#ffd700;stroke-linejoin:miter;"/>
   </g>
   <g id="patch_85">
    <path clip-path="url(#pe9f29cb285)" d="M 386.6 142.7 
L 413.7 142.7 
L 413.7 115.6 
L 386.6 115.6 
z
" style="fill:#ffd700;stroke:#ffd700;stroke-linejoin:miter;"/>
   </g>
   <g id="patch_86">
    <path clip-path="url(#pe9f29cb285)" d="M 413.7 142.7 
L 440.8 142.7 
L 440.8 115.6 
L 413.7 115.6 
z
" style="fill:#ffd700;stroke:#ffd700;stroke-linejoin:miter;"/>
   </g>
   <g id="patch_87">
    <path clip-path="url(#pe9f29cb285)" d="M 440.8 142.7 
L 467.9 142.7 
L 467.9 115.6 
L 440.8 115.6 
z
" style="fill:#ffd700;stroke:#ffd700;stroke-linejoin:miter;"/>
   </g>
   <g id="patch_88">
    <path clip-path="url(#pe9f29cb285)" d="M 7.2 169.8 
L 34.3 169.8 
L 34.3 142.7 
L 7.2 142.7 
z
" style="fill:#ff8c00;stroke:#ff8c00;stroke-linejoin:miter;"/>
   </g>
   <g id="patch_89">
    <path clip-path="url(#pe9f29cb285)" d="M 34.3 169.8 
L 61.4 169.8 
L 61.4 142.7 
L 34.3 142.7 
z
" style="fill:#ff8c00;stroke:#ff8c00;stroke-linejoin:miter;"/>
   </g>
   <g id="patch_90">
    <path clip-path="url(#pe9f29cb285)" d="M 61.4 169.8 
L 88.5 169.8 
L 88.5 142.7 
L 61.4 142.7 
z
" style="fill:#ff8c00;stroke:#ff8c00;stroke-linejoin:miter;"/>
   </g>
   <g id="patch_91">
    <path clip-path="url(#pe9f29cb285)" d="M 88.5 169.8 
L 115.6 169.8 
L 115.6 142.7 
L 88.5 142.7 
z
" style="fill:#ff8c00;stroke:#ff8c00;stroke-linejoin:miter;"/>
   </g>
   <g id="patch_92">
    <path clip-path="url(#pe9f29cb285)" d="M 115.6 169.8 
L 142.7 169.8 
L 142.7 142.7 
L 115.6 142.7 
z
" style="fill:#ff8c00;stroke:#ff8c00;stroke-linejoin:miter;"/>
   </g>
   <g id="patch_93">
    <path clip-path="url(#pe9f29cb285)" d="M 142.7 169.8 
L 169.8 169.8 
L 169.8 142.7 
L 142.7 142.7 
z
" style="fill:#ff8c00;stroke:#ff8c00;stroke-linejoin:miter;"/>
   </g>
   <g id="patch_94">
    <path clip-path="url(#pe9f29cb285)" d="M 169.8 169.8 
L 196.9 169.8 
L 196.9 142.7 
L 169.8 142.7 
z
" style="fill:#ff8c00;stroke:#ff8c00;stroke-linejoin:miter;"/>
   </g>
   <g id="patch_95">
    <path clip-path="url(#pe9f29cb285)" d="M 196.9 169.8 
L 224 169.8 
L 224 142.7 
L 196.9 142.7 
z
" style="fill:#ff8c00;stroke:#ff8c00;stroke-linejoin:miter;"/>
   </g>
   <g id="patch_96">
    <path clip-path="url(#pe9f29cb285)" d="M 224 169.8 
L 251.1 169.8 
L 251.1 142.7 
L 224 142.7 
z
" style="fill:#ff8c00;stroke:#ff8c00;stroke-linejoin:miter;"/>
   </g>
   <g id="patch_97">
    <path clip-path="url(#pe9f29cb285)" d="M 251.1 169.8 
L 278.2 169.8 
L 278.2 142.7 
L 251.1 142.7 
z
" style="fill:#ff8c00;stroke:#ff8c00;stroke-linejoin:miter;"/>
   </g>
   <g id="patch_98">
    <path clip-path="url(#pe9f29cb285)" d="M 278.2 169.8 
L 305.3 169.8 
L 305.3 142.7 
L 278.2 142.7 
z
" style="fill:#ff8c00;stroke:#ff8c00;stroke-linejoin:miter;"/>
   </g>
   <g id="patch_99">
    <path clip-path="url(#pe9f29cb285)" d="M 305.3 169.8 
L 332.4 169.8 
L 332.4 142.7 
L 305.3 142.7 
z
" style="fill:#ff8c00;stroke:#ff8c00;stroke-linejoin:miter;"/>
   </g>
   <g id="patch_100">
    <path clip-path="url(#pe9f29cb285)" d="M 332.4 169.8 
L 359.5 169.8 
L 359.5 142.7 
L 332.4 142.7 
z
" style="fill:#ff8c00;stroke:#ff8c00;stroke-linejoin:miter;"/>
   </g>
   <g id="patch_101">
    <path clip-path="url(#pe9f29cb285)" d="M 359.5 169.8 
L 386.6 169.8 
L 386.6 142.7 
L 359.5 142.7 
z
" style="fill:#ff8c00;stroke:#ff8c00;stroke-linejoin:miter;"/>
   </g>
   <g id="patch_102">
    <path clip-path="url(#pe9f29cb285)" d="M 386.6 169.8 
L 413.7 169.8 
L 413.7 142.7 
L 386.6 142.7 
z
" style="fill:#ff8c00;stroke:#ff8c00;stroke-linejoin:miter;"/>
   </g>
   <g id="patch_103">
    <path clip-path="url(#pe9f29cb285)" d="M 413.7 169.8 
L 440.8 169.8 
L 440.8 142.7 
L 413.7 142.7 
z
" style="fill:#ff8c00;stroke:#ff8c00;stroke-linejoin:miter;"/>
   </g>
   <g id="patch_104">
    <path clip-path="url(#pe9f29cb285)" d="M 440.8 169.8 
L 467.9 169.8 
L 467.9 142.7 
L 440.8 142.7 
z
" style="fill:#ffd700;stroke:#ffd700;stroke-linejoin:miter;"/>
   </g>
   <g id="patch_105">
    <path clip-path="url(#pe9f29cb285)" d="M 7.2 196.9 
L 34.3 196.9 
L 34.3 169.8 
L 7.2 169.8 
z
" style="fill:#228b22;stroke:#228b22;stroke-linejoin:miter;"/>
   </g>
   <g id="patch_106">
    <path clip-path="url(#pe9f29cb285)" d="M 34.3 196.9 
L 61.4 196.9 
L 61.4 169.8 
L 34.3 169.8 
z
" style="fill:#ffd700;stroke:#ffd700;stroke-linejoin:miter;"/>
   </g>
   <g id="patch_107">
    <path clip-path="url(#pe9f29cb285)" d="M 61.4 196.9 
L 88.5 196.9 
L 88.5 169.8 
L 61.4 169.8 
z
" style="fill:#228b22;stroke:#228b22;stroke-linejoin:miter;"/>
   </g>
   <g id="patch_108">
    <path clip-path="url(#pe9f29cb285)" d="M 88.5 196.9 
L 115.6 196.9 
L 115.6 169.8 
L 88.5 169.8 
z
" style="fill:#228b22;stroke:#228b22;stroke-linejoin:miter;"/>
   </g>
   <g id="patch_109">
    <path clip-path="url(#pe9f29cb285)" d="M 115.6 196.9 
L 142.7 196.9 
L 142.7 169.8 
L 115.6 169.8 
z
" style="fill:#ffd700;stroke:#ffd700;stroke-linejoin:miter;"/>
   </g>
   <g id="patch_110">
    <path clip-path="url(#pe9f29cb285)" d="M 142.7 196.9 
L 169.8 196.9 
L 169.8 169.8 
L 142.7 169.8 
z
" style="fill:#228b22;stroke:#228b22;stroke-linejoin:miter;"/>
   </g>
   <g id="patch_111">
    <path clip-path="url(#pe9f29cb285)" d="M 169.8 196.9 
L 196.9 196.9 
L 196.9 169.8 
L 169.8 169.8 
z
" style="fill:#228b22;stroke:#228b22;stroke-linejoin:miter;"/>
   </g>
   <g id="patch_112">
    <path clip-path="url(#pe9f29cb285)" d="M 196.9 196.9 
L 224 196.9 
L 224 169.8 
L 196.9 169.8 
z
" style="fill:#ffd700;stroke:#ffd700;stroke-linejoin:miter;"/>
   </g>
   <g id="patch_113">
    <path clip-path="url(#pe9f29cb285)" d="M 224 196.9 
L 251.1 196.9 
L 251.1 169.8 
L 224 169.8 
z
" style="fill:#ffd700;stroke:#ffd700;stroke-linejoin:miter;"/>
   </g>
   <g id="patch_114">
    <path clip-path="url(#pe9f29cb285)" d="M 251.1 196.9 
L 278.2 196.9 
L 278.2 169.8 
L 251.1 169.8 
z
" style="fill:#228b22;stroke:#228b22;stroke-linejoin:miter;"/>
   </g>
   <g id="patch_115">
    <path clip-path="url(#pe9f29cb285)" d="M 278.2 196.9 
L 305.3 196.9 
L 305.3 169.8 
L 278.2 169.8 
z
" style="fill:#228b22;stroke:#228b22;stroke-linejoin:miter;"/>
   </g>
   <g id="patch_116">
    <path clip-path="url(#pe9f29cb285)" d="M 305.3 196.9 
L 332.4 196.9 
L 332.4 169.8 
L 305.3 169.8 
z
" style="fill:#228b22;stroke:#228b22;stroke-linejoin:miter;"/>
   </g>
   <g id="patch_117">
    <path clip-path="url(#pe9f29cb285)" d="M 332.4 196.9 
L 359.5 196.9 
L 359.5 169.8 
L 332.4 169.8 
z
" style="fill:#228b22;stroke:#228b22;stroke-linejoin:miter;"/>
   </g>
   <g id="patch_118">
    <path clip-path="url(#pe9f29cb285)" d="M 359.5 196.9 
L 386.6 196.9 
L 386.6 169.8 
L 359.5 169.8 
z
" style="fill:#228b22;stroke:#228b22;stroke-linejoin:miter;"/>
   </g>
   <g id="patch_119">
    <path clip-path="url(#pe9f29cb285)" d="M 386.6 196.9 
L 413.7 196.9 
L 413.7 169.8 
L 386.6 169.8 
z
" style="fill:#228b22;stroke:#228b22;stroke-linejoin:miter;"/>
   </g>
   <g id="patch_120">
    <path clip-path="url(#pe9f29cb285)" d="M 413.7 196.9 
L 440.8 196.9 
L 440.8 169.8 
L 413.7 169.8 
z
" style="fill:#228b22;stroke:#228b22;stroke-linejoin:miter;"/>
   </g>
   <g id="patch_121">
    <path clip-path="url(#pe9f29cb285)" d="M 440.8 196.9 
L 467.9 196.9 
L 467.9 169.8 
L 440.8 169.8 
z
" style="fill:#ffd700;stroke:#ffd700;stroke-linejoin:miter;"/>
   </g>
   <g id="patch_122">
    <path clip-path="url(#pe9f29cb285)" d="M 7.2 224 
L 34.3 224 
L 34.3 196.9 
L 7.2 196.9 
z
" style="fill:#228b22;stroke:#228b22;stroke-linejoin:miter;"/>
   </g>
   <g id="patch_123">
    <path clip-path="url(#pe9f29cb285)" d="M 34.3 224 
L 61.4 224 
L 61.4 196.9 
L 34.3 196.9 
z
" style="fill:#228b22;stroke:#228b22;stroke-linejoin:miter;"/>
   </g>
   <g id="patch_124">
    <path clip-path="url(#pe9f29cb285)" d="M 61.4 224 
L 88.5 224 
L 88.5 196.9 
L 61.4 196.9 
z
" style="fill:#228b22;stroke:#228b22;stroke-linejoin:miter;"/>
   </g>
   <g id="patch_125">
    <path clip-path="url(#pe9f29cb285)" d="M 88.5 224 
L 115.6 224 
L 115.6 196.9 
L 88.5 196.9 
z
" style="fill:#ffd700;stroke:#ffd700;stroke-linejoin:miter;"/>
   </g>
   <g id="patch_126">
    <path clip-path="url(#pe9f29cb285)" d="M 115.6 224 
L 142.7 224 
L 142.7 196.9 
L 115.6 196.9 
z
" style="fill:#228b22;stroke:#228b22;stroke-linejoin:miter;"/>
   </g>
   <g id="patch_127">
    <path clip-path="url(#pe9f29cb285)" d="M 142.7 224 
L 169.8 224 
L 169.8 196.9 
L 142.7 196.9 
z
" style="fill:#ffd700;stroke:#ffd700;stroke-linejoin:miter;"/>
   </g>
   <g id="patch_128">
    <path clip-path="url(#pe9f29cb285)" d="M 169.8 224 
L 196.9 224 
L 196.9 196.9 
L 169.8 196.9 
z
" style="fill:#ffd700;stroke:#ffd700;stroke-linejoin:miter;"/>
   </g>
   <g id="patch_129">
    <path clip-path="url(#pe9f29cb285)" d="M 196.9 224 
L 224 224 
L 224 196.9 
L 196.9 196.9 
z
" style="fill:#228b22;stroke:#228b22;stroke-linejoin:miter;"/>
   </g>
   <g id="patch_130">
    <path clip-path="url(#pe9f29cb285)" d="M 224 224 
L 251.1 224 
L 251.1 196.9 
L 224 196.9 
z
" style="fill:#ffd700;stroke:#ffd700;stroke-linejoin:miter;"/>
   </g>
   <g id="patch_131">
    <path clip-path="url(#pe9f29cb285)" d="M 251.1 224 
L 278.2 224 
L 278.2 196.9 
L 251.1 196.9 
z
" style="fill:#ffd700;stroke:#ffd700;stroke-linejoin:miter;"/>
   </g>
   <g id="patch_132">
    <path clip-path="url(#pe9f29cb285)" d="M 278.2 224 
L 305.3 224 
L 305.3 196.9 
L 278.2 196.9 
z
" style="fill:#228b22;stroke:#228b22;stroke-linejoin:miter;"/>
   </g>
   <g id="patch_133">
    <path clip-path="url(#pe9f29cb285)" d="M 305.3 224 
L 332.4 224 
L 332.4 196.9 
L 305.3 196.9 
z
" style="fill:#228b22;stroke:#228b22;stroke-linejoin:miter;"/>
   </g>
   <g id="patch_134">
    <path clip-path="url(#pe9f29cb285)" d="M 332.4 224 
L 359.5 224 
L 359.5 196.9 
L 332.4 196.9 
z
" style="fill:#228b22;stroke:#228b22;stroke-linejoin:miter;"/>
   </g>
   <g id="patch_135">
    <path clip-path="url(#pe9f29cb285)" d="M 359.5 224 
L 386.6 224 
L 386.6 196.9 
L 359.5 196.9 
z
" style="fill:#228b22;stroke:#228b22;stroke-linejoin:miter;"/>
   </g>
   <g id="patch_136">
    <path clip-path="url(#pe9f29cb285)" d="M 386.6 224 
L 413.7 224 
L 413.7 196.9 
L 386.6 196.9 
z
" style="fill:#228b22;stroke:#228b22;stroke-linejoin:miter;"/>
   </g>
   <g id="patch_137">
    <path clip-path="url(#pe9f29cb285)" d="M 413.7 224 
L 440.8 224 
L 440.8 196.9 
L 413.7 196.9 
z
" style="fill:#228b22;stroke:#228b22;stroke-linejoin:miter;"/>
   </g>
   <g id="patch_138">
    <path clip-path="url(#pe9f29cb285)" d="M 440.8 224 
L 467.9 224 
L 467.9 196.9 
L 440.8 196.9 
z
" style="fill:#ffd700;stroke:#ffd700;stroke-linejoin:miter;"/>
   </g>
   <g id="patch_139">
    <path clip-path="url(#pe9f29cb285)" d="M 7.2 251.1 
L 34.3 251.1 
L 34.3 224 
L 7.2 224 
z
" style="fill:#ffd700;stroke:#ffd700;stroke-linejoin:miter;"/>
   </g>
   <g id="patch_140">
    <path clip-path="url(#pe9f29cb285)" d="M 34.3 251.1 
L 61.4 251.1 
L 61.4 224 
L 34.3 224 
z
" style="fill:#228b22;stroke:#228b22;stroke-linejoin:miter;"/>
   </g>
   <g id="patch_141">
    <path clip-path="url(#pe9f29cb285)" d="M 61.4 251.1 
L 88.5 251.1 
L 88.5 224 
L 61.4 224 
z
" style="fill:#228b22;stroke:#228b22;stroke-linejoin:miter;"/>
   </g>
   <g id="patch_142">
    <path clip-path="url(#pe9f29cb285)" d="M 88.5 251.1 
L 115.6 251.1 
L 115.6 224 
L 88.5 224 
z
" style="fill:#228b22;stroke:#228b22;stroke-linejoin:miter;"/>
   </g>
   <g id="patch_143">
    <path clip-path="url(#pe9f29cb285)" d="M 115.6 251.1 
L 142.7 251.1 
L 142.7 224 
L 115.6 224 
z
" style="fill:#ffd700;stroke:#ffd700;stroke-linejoin:miter;"/>
   </g>
   <g id="patch_144">
    <path clip-path="url(#pe9f29cb285)" d="M 142.7 251.1 
L 169.8 251.1 
L 169.8 224 
L 142.7 224 
z
" style="fill:#228b22;stroke:#228b22;stroke-linejoin:miter;"/>
   </g>
   <g id="patch_145">
    <path clip-path="url(#pe9f29cb285)" d="M 169.8 251.1 
L 196.9 251.1 
L 196.9 224 
L 169.8 224 
z
" style="fill:#228b22;stroke:#228b22;stroke-linejoin:miter;"/>
   </g>
   <g id="patch_146">
    <path clip-path="url(#pe9f29cb285)" d="M 196.9 251.1 
L 224 251.1 
L 224 224 
L 196.9 224 
z
" style="fill:#228b22;stroke:#228b22;stroke-linejoin:miter;"/>
   </g>
   <g id="patch_147">
    <path clip-path="url(#pe9f29cb285)" d="M 224 251.1 
L 251.1 251.1 
L 251.1 224 
L 224 224 
z
" style="fill:#ffd700;stroke:#ffd700;stroke-linejoin:miter;"/>
   </g>
   <g id="patch_148">
    <path clip-path="url(#pe9f29cb285)" d="M 251.1 251.1 
L 278.2 251.1 
L 278.2 224 
L 251.1 224 
z
" style="fill:#ffd700;stroke:#ffd700;stroke-linejoin:miter;"/>
   </g>
   <g id="patch_149">
    <path clip-path="url(#pe9f29cb285)" d="M 278.2 251.1 
L 305.3 251.1 
L 305.3 224 
L 278.2 224 
z
" style="fill:#228b22;stroke:#228b22;stroke-linejoin:miter;"/>
   </g>
   <g id="patch_150">
    <path clip-path="url(#pe9f29cb285)" d="M 305.3 251.1 
L 332.4 251.1 
L 332.4 224 
L 305.3 224 
z
" style="fill:#228b22;stroke:#228b22;stroke-linejoin:miter;"/>
   </g>
   <g id="patch_151">
    <path clip-path="url(#pe9f29cb285)" d="M 332.4 251.1 
L 359.5 251.1 
L 359.5 224 
L 332.4 224 
z
" style="fill:#ffd700;stroke:#ffd700;stroke-linejoin:miter;"/>
   </g>
   <g id="patch_152">
    <path clip-path="url(#pe9f29cb285)" d="M 359.5 251.1 
L 386.6 251.1 
L 386.6 224 
L 359.5 224 
z
" style="fill:#ffd700;stroke:#ffd700;stroke-linejoin:miter;"/>
   </g>
   <g id="patch_153">
    <path clip-path="url(#pe9f29cb285)" d="M 386.6 251.1 
L 413.7 251.1 
L 413.7 224 
L 386.6 224 
z
" style="fill:#228b22;stroke:#228b22;stroke-linejoin:miter;"/>
   </g>
   <g id="patch_154">
    <path clip-path="url(#pe9f29cb285)" d="M 413.7 251.1 
L 440.8 251.1 
L 440.8 224 
L 413.7 224 
z
" style="fill:#228b22;stroke:#228b22;stroke-linejoin:miter;"/>
   </g>
   <g id="patch_155">
    <path clip-path="url(#pe9f29cb285)" d="M 440.8 251.1 
L 467.9 251.1 
L 467.9 224 
L 440.8 224 
z
" style="fill:#ffd700;stroke:#ffd700;stroke-linejoin:miter;"/>
   </g>
   <g id="patch_156">
    <path clip-path="url(#pe9f29cb285)" d="M 7.2 278.2 
L 34.3 278.2 
L 34.3 251.1 
L 7.2 251.1 
z
" style="fill:#ffd700;stroke:#ffd700;stroke-linejoin:miter;"/>
   </g>
   <g id="patch_157">
    <path clip-path="url(#pe9f29cb285)" d="M 34.3 278.2 
L 61.4 278.2 
L 61.4 251.1 
L 34.3 251.1 
z
" style="fill:#ffd700;stroke:#ffd700;stroke-linejoin:miter;"/>
   </g>
   <g id="patch_158">
    <path clip-path="url(#pe9f29cb285)" d="M 61.4 278.2 
L 88.5 278.2 
L 88.5 251.1 
L 61.4 251.1 
z
" style="fill:#ffd700;stroke:#ffd700;stroke-linejoin:miter;"/>
   </g>
   <g id="patch_159">
    <path clip-path="url(#pe9f29cb285)" d="M 88.5 278.2 
L 115.6 278.2 
L 115.6 251.1 
L 88.5 251.1 
z
" style="fill:#ffd700;stroke:#ffd700;stroke-linejoin:miter;"/>
   </g>
   <g id="patch_160">
    <path clip-path="url(#pe9f29cb285)" d="M 115.6 278.2 
L 142.7 278.2 
L 142.7 251.1 
L 115.6 251.1 
z
" style="fill:#ffd700;stroke:#ffd700;stroke-linejoin:miter;"/>
   </g>
   <g id="patch_161">
    <path clip-path="url(#pe9f29cb285)" d="M 142.7 278.2 
L 169.8 278.2 
L 169.8 251.1 
L 142.7 251.1 
z
" style="fill:#ffd700;stroke:#ffd700;stroke-linejoin:miter;"/>
   </g>
   <g id="patch_162">
    <path clip-path="url(#pe9f29cb285)" d="M 169.8 278.2 
L 196.9 278.2 
L 196.9 251.1 
L 169.8 251.1 
z
" style="fill:#ffd700;stroke:#ffd700;stroke-linejoin:miter;"/>
   </g>
   <g id="patch_163">
    <path clip-path="url(#pe9f29cb285)" d="M 196.9 278.2 
L 224 278.2 
L 224 251.1 
L 196.9 251.1 
z
" style="fill:#ffd700;stroke:#ffd700;stroke-linejoin:miter;"/>
   </g>
   <g id="patch_164">
    <path clip-path="url(#pe9f29cb285)" d="M 224 278.2 
L 251.1 278.2 
L 251.1 251.1 
L 224 251.1 
z
" style="fill:#ffd700;stroke:#ffd700;stroke-linejoin:miter;"/>
   </g>
   <g id="patch_165">
    <path clip-path="url(#pe9f29cb285)" d="M 251.1 278.2 
L 278.2 278.2 
L 278.2 251.1 
L 251.1 251.1 
z
" style="fill:#ffd700;stroke:#ffd700;stroke-linejoin:miter;"/>
   </g>
   <g id="patch_166">
    <path clip-path="url(#pe9f29cb285)" d="M 278.2 278.2 
L 305.3 278.2 
L 305.3 251.1 
L 278.2 251.1 
z
" style="fill:#ffd700;stroke:#ffd700;stroke-linejoin:miter;"/>
   </g>
   <g id="patch_167">
    <path clip-path="url(#pe9f29cb285)" d="M 305.3 278.2 
L 332.4 278.2 
L 332.4 251.1 
L 305.3 251.1 
z
" style="fill:#ffd700;stroke:#ffd700;stroke-linejoin:miter;"/>
   </g>
   <g id="patch_168">
    <path clip-path="url(#pe9f29cb285)" d="M 332.4 278.2 
L 359.5 278.2 
L 359.5 251.1 
L 332.4 251.1 
z
" style="fill:#ffd700;stroke:#ffd700;stroke-linejoin:miter;"/>
   </g>
   <g id="patch_169">
    <path clip-path="url(#pe9f29cb285)" d="M 359.5 278.2 
L 386.6 278.2 
L 386.6 251.1 
L 359.5 251.1 
z
" style="fill:#ffd700;stroke:#ffd700;stroke-linejoin:miter;"/>
   </g>
   <g id="patch_170">
    <path clip-path="url(#pe9f29cb285)" d="M 386.6 278.2 
L 413.7 278.2 
L 413.7 251.1 
L 386.6 251.1 
z
" style="fill:#ffd700;stroke:#ffd700;stroke-linejoin:miter;"/>
   </g>
   <g id="patch_171">
    <path clip-path="url(#pe9f29cb285)" d="M 413.7 278.2 
L 440.8 278.2 
L 440.8 251.1 
L 413.7 251.1 
z
" style="fill:#ffd700;stroke:#ffd700;stroke-linejoin:miter;"/>
   </g>
   <g id="patch_172">
    <path clip-path="url(#pe9f29cb285)" d="M 440.8 278.2 
L 467.9 278.2 
L 467.9 251.1 
L 440.8 251.1 
z
" style="fill:#ffd700;stroke:#ffd700;stroke-linejoin:miter;"/>
   </g>
   <g id="patch_173">
    <path clip-path="url(#pe9f29cb285)" d="M 7.2 305.3 
L 34.3 305.3 
L 34.3 278.2 
L 7.2 278.2 
z
" style="fill:#ffd700;stroke:#ffd700;stroke-linejoin:miter;"/>
   </g>
   <g id="patch_174">
    <path clip-path="url(#pe9f29cb285)" d="M 34.3 305.3 
L 61.4 305.3 
L 61.4 278.2 
L 34.3 278.2 
z
" style="fill:#ffd700;stroke:#ffd700;stroke-linejoin:miter;"/>
   </g>
   <g id="patch_175">
    <path clip-path="url(#pe9f29cb285)" d="M 61.4 305.3 
L 88.5 305.3 
L 88.5 278.2 
L 61.4 278.2 
z
" style="fill:#ffd700;stroke:#ffd700;stroke-linejoin:miter;"/>
   </g>
   <g id="patch_176">
    <path clip-path="url(#pe9f29cb285)" d="M 88.5 305.3 
L 115.6 305.3 
L 115.6 278.2 
L 88.5 278.2 
z
" style="fill:#ffd700;stroke:#ffd700;stroke-linejoin:miter;"/>
   </g>
   <g id="patch_177">
    <path clip-path="url(#pe9f29cb285)" d="M 115.6 305.3 
L 142.7 305.3 
L 142.7 278.2 
L 115.6 278.2 
z
" style="fill:#ffd700;stroke:#ffd700;stroke-linejoin:miter;"/>
   </g>
   <g id="patch_178">
    <path clip-path="url(#pe9f29cb285)" d="M 142.7 305.3 
L 169.8 305.3 
L 169.8 278.2 
L 142.7 278.2 
z
" style="fill:#ffd700;stroke:#ffd700;stroke-linejoin:miter;"/>
   </g>
   <g id="patch_179">
    <path clip-path="url(#pe9f29cb285)" d="M 169.8 305.3 
L 196.9 305.3 
L 196.9 278.2 
L 169.8 278.2 
z
" style="fill:#ffd700;stroke:#ffd700;stroke-linejoin:miter;"/>
   </g>
   <g id="patch_180">
    <path clip-path="url(#pe9f29cb285)" d="M 196.9 305.3 
L 224 305.3 
L 224 278.2 
L 196.9 278.2 
z
" style="fill:#ffd700;stroke:#ffd700;stroke-linejoin:miter;"/>
   </g>
   <g id="patch_181">
    <path clip-path="url(#pe9f29cb285)" d="M 224 305.3 
L 251.1 305.3 
L 251.1 278.2 
L 224 278.2 
z
" style="fill:#ffd700;stroke:#ffd700;stroke-linejoin:miter;"/>
   </g>
   <g id="patch_182">
    <path clip-path="url(#pe9f29cb285)" d="M 251.1 305.3 
L 278.2 305.3 
L 278.2 278.2 
L 251.1 278.2 
z
" style="fill:#ffd700;stroke:#ffd700;stroke-linejoin:miter;"/>
   </g>
   <g id="patch_183">
    <path clip-path="url(#pe9f29cb285)" d="M 278.2 305.3 
L 305.3 305.3 
L 305.3 278.2 
L 278.2 278.2 
z
" style="fill:#ffd700;stroke:#ffd700;stroke-linejoin:miter;"/>
   </g>
   <g id="patch_184">
    <path clip-path="url(#pe9f29cb285)" d="M 305.3 305.3 
L 332.4 305.3 
L 332.4 278.2 
L 305.3 278.2 
z
" style="fill:#ffd700;stroke:#ffd700;stroke-linejoin:miter;"/>
   </g>
   <g id="patch_185">
    <path clip-path="url(#pe9f29cb285)" d="M 332.4 305.3 
L 359.5 305.3 
L 359.5 278.2 
L 332.4 278.2 
z
" style="fill:#ffd700;stroke:#ffd700;stroke-linejoin:miter;"/>
   </g>
   <g id="patch_186">
    <path clip-path="url(#pe9f29cb285)" d="M 359.5 305.3 
L 386.6 305.3 
L 386.6 278.2 
L 359.5 278.2 
z
" style="fill:#ffd700;stroke:#ffd700;stroke-linejoin:miter;"/>
   </g>
   <g id="patch_187">
    <path clip-path="url(#pe9f29cb285)" d="M 386.6 305.3 
L 413.7 305.3 
L 413.7 278.2 
L 386.6 278.2 
z
" style="fill:#ffd700;stroke:#ffd700;stroke-linejoin:miter;"/>
   </g>
   <g id="patch_188">
    <path clip-path="url(#pe9f29cb285)" d="M 413.7 305.3 
L 440.8 305.3 
L 440.8 278.2 
L 413.7 278.2 
z
" style="fill:#ffd700;stroke:#ffd700;stroke-linejoin:miter;"/>
   </g>
   <g id="patch_189">
    <path clip-path="url(#pe9f29cb285)" d="M 440.8 305.3 
L 467.9 305.3 
L 467.9 278.2 
L 440.8 278.2 
z
" style="fill:#ffd700;stroke:#ffd700;stroke-linejoin:miter;"/>
   </g>
   <g id="matplotlib.axis_1">
    <g id="xtick_1">
     <g id="line2d_1">
      <path clip-path="url(#pe9f29cb285)" d="M 7.2 305.3 
L 7.2 7.2 
" style="fill:none;stroke:#000000;stroke-linecap:square;stroke-width:2;"/>
     </g>
    </g>
    <g id="xtick_2">
     <g id="line2d_2">
      <path clip-path="url(#pe9f29cb285)" d="M 34.3 305.3 
L 34.3 7.2 
" style="fill:none;stroke:#000000;stroke-linecap:square;stroke-width:2;"/>
     </g>
    </g>
    <g id="xtick_3">
     <g id="line2d_3">
      <path clip-path="url(#pe9f29cb285)" d="M 61.4 305.3 
L 61.4 7.2 
" style="fill:none;stroke:#000000;stroke-linecap:square;stroke-width:2;"/>
     </g>
    </g>
    <g id="xtick_4">
     <g id="line2d_4">
      <path clip-path="url(#pe9f29cb285)" d="M 88.5 305.3 
L 88.5 7.2 
" style="fill:none;stroke:#000000;stroke-linecap:square;stroke-width:2;"/>
     </g>
    </g>
    <g id="xtick_5">
     <g id="line2d_5">
      <path clip-path="url(#pe9f29cb285)" d="M 115.6 305.3 
L 115.6 7.2 
" style="fill:none;stroke:#000000;stroke-linecap:square;stroke-width:2;"/>
     </g>
    </g>
    <g id="xtick_6">
     <g id="line2d_6">
      <path clip-path="url(#pe9f29cb285)" d="M 142.7 305.3 
L 142.7 7.2 
" style="fill:none;stroke:#000000;stroke-linecap:square;stroke-width:2;"/>
     </g>
    </g>
    <g id="xtick_7">
     <g id="line2d_7">
      <path clip-path="url(#pe9f29cb285)" d="M 169.8 305.3 
L 169.8 7.2 
" style="fill:none;stroke:#000000;stroke-linecap:square;stroke-width:2;"/>
     </g>
    </g>
    <g id="xtick_8">
     <g id="line2d_8">
      <path clip-path="url(#pe9f29cb285)" d="M 196.9 305.3 
L 196.9 7.2 
" style="fill:none;stroke:#000000;stroke-linecap:square;stroke-width:2;"/>
     </g>
    </g>
    <g id="xtick_9">
     <g id="line2d_9">
      <path clip-path="url(#pe9f29cb285)" d="M 224 305.3 
L 224 7.2 
" style="fill:none;stroke:#000000;stroke-linecap:square;stroke-width:2;"/>
     </g>
    </g>
    <g id="xtick_10">
     <g id="line2d_10">
      <path clip-path="url(#pe9f29cb285)" d="M 251.1 305.3 
L 251.1 7.2 
" style="fill:none;stroke:#000000;stroke-linecap:square;stroke-width:2;"/>
     </g>
    </g>
    <g id="xtick_11">
     <g id="line2d_11">
      <path clip-path="url(#pe9f29cb285)" d="M 278.2 305.3 
L 278.2 7.2 
" style="fill:none;stroke:#000000;stroke-linecap:square;stroke-width:2;"/>
     </g>
    </g>
    <g id="xtick_12">
     <g id="line2d_12">
      <path clip-path="url(#pe9f29cb285)" d="M 305.3 305.3 
L 305.3 7.2 
" style="fill:none;stroke:#000000;stroke-linecap:square;stroke-width:2;"/>
     </g>
    </g>
    <g id="xtick_13">
     <g id="line2d_13">
      <path clip-path="url(#pe9f29cb285)" d="M 332.4 305.3 
L 332.4 7.2 
" style="fill:none;stroke:#000000;stroke-linecap:square;stroke-width:2;"/>
     </g>
    </g>
    <g id="xtick_14">
     <g id="line2d_14">
      <path clip-path="url(#pe9f29cb285)" d="M 359.5 305.3 
L 359.5 7.2 
" style="fill:none;stroke:#000000;stroke-linecap:square;stroke-width:2;"/>
     </g>
    </g>
    <g id="xtick_15">
     <g id="line2d_15">
      <path clip-path="url(#pe9f29cb285)" d="M 386.6 305.3 
L 386.6 7.2 
" style="fill:none;stroke:#000000;stroke-linecap:square;stroke-width:2;"/>
     </g>
    </g>
    <g id="xtick_16">
     <g id="line2d_16">
      <path clip-path="url(#pe9f29cb285)" d="M 413.7 305.3 
L 413.7 7.2 
" style="fill:none;stroke:#000000;stroke-linecap:square;stroke-width:2;"/>
     </g>
    </g>
    <g id="xtick_17">
     <g id="line2d_17">
      <path clip-path="url(#pe9f29cb285)" d="M 440.8 305.3 
L 440.8 7.2 
" style="fill:none;stroke:#000000;stroke-linecap:square;stroke-width:2;"/>
     </g>
    </g>
    <g id="xtick_18">
     <g id="line2d_18">
      <path clip-path="url(#pe9f29cb285)" d="M 467.9 305.3 
L 467.9 7.2 
" style="fill:none;stroke:#000000;stroke-linecap:square;stroke-width:2;"/>
     </g>
    </g>
   </g>
   <g id="matplotlib.axis_2">
    <g id="ytick_1">
     <g id="line2d_19">
      <path clip-path="url(#pe9f29cb285)" d="M 7.2 305.3 
L 467.9 305.3 
" style="fill:none;stroke:#000000;stroke-linecap:square;stroke-width:2;"/>
     </g>
    </g>
    <g id="ytick_2">
     <g id="line2d_20">
      <path clip-path="url(#pe9f29cb285)" d="M 7.2 278.2 
L 467.9 278.2 
" style="fill:none;stroke:#000000;stroke-linecap:square;stroke-width:2;"/>
     </g>
    </g>
    <g id="ytick_3">
     <g id="line2d_21">
      <path clip-path="url(#pe9f29cb285)" d="M 7.2 251.1 
L 467.9 251.1 
" style="fill:none;stroke:#000000;stroke-linecap:square;stroke-width:2;"/>
     </g>
    </g>
    <g id="ytick_4">
     <g id="line2d_22">
      <path clip-path="url(#pe9f29cb285)" d="M 7.2 224 
L 467.9 224 
" style="fill:none;stroke:#000000;stroke-linecap:square;stroke-width:2;"/>
     </g>
    </g>
    <g id="ytick_5">
     <g id="line2d_23">
      <path clip-path="url(#pe9f29cb285)" d="M 7.2 196.9 
L 467.9 196.9 
" style="fill:none;stroke:#000000;stroke-linecap:square;stroke-width:2;"/>
     </g>
    </g>
    <g id="ytick_6">
     <g id="line2d_24">
      <path clip-path="url(#pe9f29cb285)" d="M 7.2 169.8 
L 467.9 169.8 
" style="fill:none;stroke:#000000;stroke-linecap:square;stroke-width:2;"/>
     </g>
    </g>
    <g id="ytick_7">
     <g id="line2d_25">
      <path clip-path="url(#pe9f29cb285)" d="M 7.2 142.7 
L 467.9 142.7 
" style="fill:none;stroke:#000000;stroke-linecap:square;stroke-width:2;"/>
     </g>
    </g>
    <g id="ytick_8">
     <g id="line2d_26">
      <path clip-path="url(#pe9f29cb285)" d="M 7.2 115.6 
L 467.9 115.6 
" style="fill:none;stroke:#000000;stroke-linecap:square;stroke-width:2;"/>
     </g>
    </g>
    <g id="ytick_9">
     <g id="line2d_27">
      <path clip-path="url(#pe9f29cb285)" d="M 7.2 88.5 
L 467.9 88.5 
" style="fill:none;stroke:#000000;stroke-linecap:square;stroke-width:2;"/>
     </g>
    </g>
    <g id="ytick_10">
     <g id="line2d_28">
      <path clip-path="url(#pe9f29cb285)" d="M 7.2 61.4 
L 467.9 61.4 
" style="fill:none;stroke:#000000;stroke-linecap:square;stroke-width:2;"/>
     </g>
    </g>
    <g id="ytick_11">
     <g id="line2d_29">
      <path clip-path="url(#pe9f29cb285)" d="M 7.2 34.3 
L 467.9 34.3 
" style="fill:none;stroke:#000000;stroke-linecap:square;stroke-width:2;"/>
     </g>
    </g>
    <g id="ytick_12">
     <g id="line2d_30">
      <path clip-path="url(#pe9f29cb285)" d="M 7.2 7.2 
L 467.9 7.2 
" style="fill:none;stroke:#000000;stroke-linecap:square;stroke-width:2;"/>
     </g>
    </g>
   </g>
   <g id="patch_190">
    <path d="M 7.2 305.3 
L 7.2 7.2 
" style="fill:none;stroke:#000000;stroke-linecap:square;stroke-linejoin:miter;stroke-width:2;"/>
   </g>
   <g id="patch_191">
    <path d="M 467.9 305.3 
L 467.9 7.2 
" style="fill:none;stroke:#000000;stroke-linecap:square;stroke-linejoin:miter;stroke-width:2;"/>
   </g>
   <g id="patch_192">
    <path d="M 7.2 305.3 
L 467.9 305.3 
" style="fill:none;stroke:#000000;stroke-linecap:square;stroke-linejoin:miter;stroke-width:2;"/>
   </g>
   <g id="patch_193">
    <path d="M 7.2 7.2 
L 467.9 7.2 
" style="fill:none;stroke:#000000;stroke-linecap:square;stroke-linejoin:miter;stroke-width:2;"/>
   </g>
  </g>
 </g>
 <defs>
  <clipPath id="pe9f29cb285">
   <rect height="298.1" width="460.7" x="7.2" y="7.2"/>
  </clipPath>
 </defs>
</svg>
