<?xml version="1.0" encoding="utf-8" standalone="no"?>
<!DOCTYPE svg PUBLIC "-//W3C//DTD SVG 1.1//EN"
  "http://www.w3.org/Graphics/SVG/1.1/DTD/svg11.dtd">
<!-- Created with matplotlib (https://matplotlib.org/) -->
<svg height="338.86pt" version="1.1" viewBox="0 0 415.203529 338.86" width="415.203529pt" xmlns="http://www.w3.org/2000/svg" xmlns:xlink="http://www.w3.org/1999/xlink">
 <defs>
  <style type="text/css">
*{stroke-linecap:butt;stroke-linejoin:round;}
  </style>
 </defs>
 <g id="figure_1">
  <g id="patch_1">
   <path d="M 0 338.86 
L 415.203529 338.86 
L 415.203529 0 
L 0 0 
z
" style="fill:#ffffff;"/>
  </g>
  <g id="axes_1">
   <g id="patch_2">
    <path d="M 7.2 331.66 
L 408.003529 331.66 
L 408.003529 7.2 
L 7.2 7.2 
z
" style="fill:#ffffff;"/>
   </g>
   <g id="patch_3">
    <path clip-path="url(#pc7a6373b9e)" d="M 7.2 26.285882 
L 26.285882 26.285882 
L 26.285882 7.2 
L 7.2 7.2 
z
" style="fill:#ffd700;stroke:#ffd700;stroke-linejoin:miter;"/>
   </g>
   <g id="patch_4">
    <path clip-path="url(#pc7a6373b9e)" d="M 26.285882 26.285882 
L 45.371765 26.285882 
L 45.371765 7.2 
L 26.285882 7.2 
z
" style="fill:#ffd700;stroke:#ffd700;stroke-linejoin:miter;"/>
   </g>
   <g id="patch_5">
    <path clip-path="url(#pc7a6373b9e)" d="M 45.371765 26.285882 
L 64.457647 26.285882 
L 64.457647 7.2 
L 45.371765 7.2 
z
" style="fill:#ffd700;stroke:#ffd700;stroke-linejoin:miter;"/>
   </g>
   <g id="patch_6">
    <path clip-path="url(#pc7a6373b9e)" d="M 64.457647 26.285882 
L 83.543529 26.285882 
L 83.543529 7.2 
L 64.457647 7.2 
z
" style="fill:#ffd700;stroke:#ffd700;stroke-linejoin:miter;"/>
   </g>
   <g id="patch_7">
    <path clip-path="url(#pc7a6373b9e)" d="M 83.543529 26.285882 
L 102.629412 26.285882 
L 102.629412 7.2 
L 83.543529 7.2 
z
" style="fill:#ffd700;stroke:#ffd700;stroke-linejoin:miter;"/>
   </g>
   <g id="patch_8">
    <path clip-path="url(#pc7a6373b9e)" d="M 102.629412 26.285882 
L 121.715294 26.285882 
L 121.715294 7.2 
L 102.629412 7.2 
z
" style="fill:#ffd700;stroke:#ffd700;stroke-linejoin:miter;"/>
   </g>
   <g id="patch_9">
    <path clip-path="url(#pc7a6373b9e)" d="M 121.715294 26.285882 
L 140.801176 26.285882 
L 140.801176 7.2 
L 121.715294 7.2 
z
" style="fill:#ffd700;stroke:#ffd700;stroke-linejoin:miter;"/>
   </g>
   <g id="patch_10">
    <path clip-path="url(#pc7a6373b9e)" d="M 140.801176 26.285882 
L 159.887059 26.285882 
L 159.887059 7.2 
L 140.801176 7.2 
z
" style="fill:#ffd700;stroke:#ffd700;stroke-linejoin:miter;"/>
   </g>
   <g id="patch_11">
    <path clip-path="url(#pc7a6373b9e)" d="M 159.887059 26.285882 
L 178.972941 26.285882 
L 178.972941 7.2 
L 159.887059 7.2 
z
" style="fill:#ffd700;stroke:#ffd700;stroke-linejoin:miter;"/>
   </g>
   <g id="patch_12">
    <path clip-path="url(#pc7a6373b9e)" d="M 178.972941 26.285882 
L 198.058824 26.285882 
L 198.058824 7.2 
L 178.972941 7.2 
z
" style="fill:#ffd700;stroke:#ffd700;stroke-linejoin:miter;"/>
   </g>
   <g id="patch_13">
    <path clip-path="url(#pc7a6373b9e)" d="M 198.058824 26.285882 
L 217.144706 26.285882 
L 217.144706 7.2 
L 198.058824 7.2 
z
" style="fill:#ffd700;stroke:#ffd700;stroke-linejoin:miter;"/>
   </g>
   <g id="patch_14">
    <path clip-path="url(#pc7a6373b9e)" d="M 217.144706 26.285882 
L 236.230588 26.285882 
L 236.230588 7.2 
L 217.144706 7.2 
z
" style="fill:#ffd700;stroke:#ffd700;stroke-linejoin:miter;"/>
   </g>
   <g id="patch_15">
    <path clip-path="url(#pc7a6373b9e)" d="M 236.230588 26.285882 
L 255.316471 26.285882 
L 255.316471 7.2 
L 236.230588 7.2 
z
" style="fill:#ffd700;stroke:#ffd700;stroke-linejoin:miter;"/>
   </g>
   <g id="patch_16">
    <path clip-path="url(#pc7a6373b9e)" d="M 255.316471 26.285882 
L 274.402353 26.285882 
L 274.402353 7.2 
L 255.316471 7.2 
z
" style="fill:#ffd700;stroke:#ffd700;stroke-linejoin:miter;"/>
   </g>
   <g id="patch_17">
    <path clip-path="url(#pc7a6373b9e)" d="M 274.402353 26.285882 
L 293.488235 26.285882 
L 293.488235 7.2 
L 274.402353 7.2 
z
" style="fill:#ffd700;stroke:#ffd700;stroke-linejoin:miter;"/>
   </g>
   <g id="patch_18">
    <path clip-path="url(#pc7a6373b9e)" d="M 293.488235 26.285882 
L 312.574118 26.285882 
L 312.574118 7.2 
L 293.488235 7.2 
z
" style="fill:#ffd700;stroke:#ffd700;stroke-linejoin:miter;"/>
   </g>
   <g id="patch_19">
    <path clip-path="url(#pc7a6373b9e)" d="M 312.574118 26.285882 
L 331.66 26.285882 
L 331.66 7.2 
L 312.574118 7.2 
z
" style="fill:#ffd700;stroke:#ffd700;stroke-linejoin:miter;"/>
   </g>
   <g id="patch_20">
    <path clip-path="url(#pc7a6373b9e)" d="M 331.66 26.285882 
L 350.745882 26.285882 
L 350.745882 7.2 
L 331.66 7.2 
z
" style="fill:#ffd700;stroke:#ffd700;stroke-linejoin:miter;"/>
   </g>
   <g id="patch_21">
    <path clip-path="url(#pc7a6373b9e)" d="M 350.745882 26.285882 
L 369.831765 26.285882 
L 369.831765 7.2 
L 350.745882 7.2 
z
" style="fill:#ffd700;stroke:#ffd700;stroke-linejoin:miter;"/>
   </g>
   <g id="patch_22">
    <path clip-path="url(#pc7a6373b9e)" d="M 369.831765 26.285882 
L 388.917647 26.285882 
L 388.917647 7.2 
L 369.831765 7.2 
z
" style="fill:#ffd700;stroke:#ffd700;stroke-linejoin:miter;"/>
   </g>
   <g id="patch_23">
    <path clip-path="url(#pc7a6373b9e)" d="M 388.917647 26.285882 
L 408.003529 26.285882 
L 408.003529 7.2 
L 388.917647 7.2 
z
" style="fill:#ffd700;stroke:#ffd700;stroke-linejoin:miter;"/>
   </g>
   <g id="patch_24">
    <path clip-path="url(#pc7a6373b9e)" d="M 7.2 45.371765 
L 26.285882 45.371765 
L 26.285882 26.285882 
L 7.2 26.285882 
z
" style="fill:#ffd700;stroke:#ffd700;stroke-linejoin:miter;"/>
   </g>
   <g id="patch_25">
    <path clip-path="url(#pc7a6373b9e)" d="M 26.285882 45.371765 
L 45.371765 45.371765 
L 45.371765 26.285882 
L 26.285882 26.285882 
z
" style="fill:#ffd700;stroke:#ffd700;stroke-linejoin:miter;"/>
   </g>
   <g id="patch_26">
    <path clip-path="url(#pc7a6373b9e)" d="M 45.371765 45.371765 
L 64.457647 45.371765 
L 64.457647 26.285882 
L 45.371765 26.285882 
z
" style="fill:#ffd700;stroke:#ffd700;stroke-linejoin:miter;"/>
   </g>
   <g id="patch_27">
    <path clip-path="url(#pc7a6373b9e)" d="M 64.457647 45.371765 
L 83.543529 45.371765 
L 83.543529 26.285882 
L 64.457647 26.285882 
z
" style="fill:#ffd700;stroke:#ffd700;stroke-linejoin:miter;"/>
   </g>
   <g id="patch_28">
    <path clip-path="url(#pc7a6373b9e)" d="M 83.543529 45.371765 
L 102.629412 45.371765 
L 102.629412 26.285882 
L 83.543529 26.285882 
z
" style="fill:#ffd700;stroke:#ffd700;stroke-linejoin:miter;"/>
   </g>
   <g id="patch_29">
    <path clip-path="url(#pc7a6373b9e)" d="M 102.629412 45.371765 
L 121.715294 45.371765 
L 121.715294 26.285882 
L 102.629412 26.285882 
z
" style="fill:#ffd700;stroke:#ffd700;stroke-linejoin:miter;"/>
   </g>
   <g id="patch_30">
    <path clip-path="url(#pc7a6373b9e)" d="M 121.715294 45.371765 
L 140.801176 45.371765 
L 140.801176 26.285882 
L 121.715294 26.285882 
z
" style="fill:#ffd700;stroke:#ffd700;stroke-linejoin:miter;"/>
   </g>
   <g id="patch_31">
    <path clip-path="url(#pc7a6373b9e)" d="M 140.801176 45.371765 
L 159.887059 45.371765 
L 159.887059 26.285882 
L 140.801176 26.285882 
z
" style="fill:#ffd700;stroke:#ffd700;stroke-linejoin:miter;"/>
   </g>
   <g id="patch_32">
    <path clip-path="url(#pc7a6373b9e)" d="M 159.887059 45.371765 
L 178.972941 45.371765 
L 178.972941 26.285882 
L 159.887059 26.285882 
z
" style="fill:#ffd700;stroke:#ffd700;stroke-linejoin:miter;"/>
   </g>
   <g id="patch_33">
    <path clip-path="url(#pc7a6373b9e)" d="M 178.972941 45.371765 
L 198.058824 45.371765 
L 198.058824 26.285882 
L 178.972941 26.285882 
z
" style="fill:#ffd700;stroke:#ffd700;stroke-linejoin:miter;"/>
   </g>
   <g id="patch_34">
    <path clip-path="url(#pc7a6373b9e)" d="M 198.058824 45.371765 
L 217.144706 45.371765 
L 217.144706 26.285882 
L 198.058824 26.285882 
z
" style="fill:#ffd700;stroke:#ffd700;stroke-linejoin:miter;"/>
   </g>
   <g id="patch_35">
    <path clip-path="url(#pc7a6373b9e)" d="M 217.144706 45.371765 
L 236.230588 45.371765 
L 236.230588 26.285882 
L 217.144706 26.285882 
z
" style="fill:#ffd700;stroke:#ffd700;stroke-linejoin:miter;"/>
   </g>
   <g id="patch_36">
    <path clip-path="url(#pc7a6373b9e)" d="M 236.230588 45.371765 
L 255.316471 45.371765 
L 255.316471 26.285882 
L 236.230588 26.285882 
z
" style="fill:#ffd700;stroke:#ffd700;stroke-linejoin:miter;"/>
   </g>
   <g id="patch_37">
    <path clip-path="url(#pc7a6373b9e)" d="M 255.316471 45.371765 
L 274.402353 45.371765 
L 274.402353 26.285882 
L 255.316471 26.285882 
z
" style="fill:#ffd700;stroke:#ffd700;stroke-linejoin:miter;"/>
   </g>
   <g id="patch_38">
    <path clip-path="url(#pc7a6373b9e)" d="M 274.402353 45.371765 
L 293.488235 45.371765 
L 293.488235 26.285882 
L 274.402353 26.285882 
z
" style="fill:#ffd700;stroke:#ffd700;stroke-linejoin:miter;"/>
   </g>
   <g id="patch_39">
    <path clip-path="url(#pc7a6373b9e)" d="M 293.488235 45.371765 
L 312.574118 45.371765 
L 312.574118 26.285882 
L 293.488235 26.285882 
z
" style="fill:#ffd700;stroke:#ffd700;stroke-linejoin:miter;"/>
   </g>
   <g id="patch_40">
    <path clip-path="url(#pc7a6373b9e)" d="M 312.574118 45.371765 
L 331.66 45.371765 
L 331.66 26.285882 
L 312.574118 26.285882 
z
" style="fill:#ffd700;stroke:#ffd700;stroke-linejoin:miter;"/>
   </g>
   <g id="patch_41">
    <path clip-path="url(#pc7a6373b9e)" d="M 331.66 45.371765 
L 350.745882 45.371765 
L 350.745882 26.285882 
L 331.66 26.285882 
z
" style="fill:#ffd700;stroke:#ffd700;stroke-linejoin:miter;"/>
   </g>
   <g id="patch_42">
    <path clip-path="url(#pc7a6373b9e)" d="M 350.745882 45.371765 
L 369.831765 45.371765 
L 369.831765 26.285882 
L 350.745882 26.285882 
z
" style="fill:#ffd700;stroke:#ffd700;stroke-linejoin:miter;"/>
   </g>
   <g id="patch_43">
    <path clip-path="url(#pc7a6373b9e)" d="M 369.831765 45.371765 
L 388.917647 45.371765 
L 388.917647 26.285882 
L 369.831765 26.285882 
z
" style="fill:#ffd700;stroke:#ffd700;stroke-linejoin:miter;"/>
   </g>
   <g id="patch_44">
    <path clip-path="url(#pc7a6373b9e)" d="M 388.917647 45.371765 
L 408.003529 45.371765 
L 408.003529 26.285882 
L 388.917647 26.285882 
z
" style="fill:#ffd700;stroke:#ffd700;stroke-linejoin:miter;"/>
   </g>
   <g id="patch_45">
    <path clip-path="url(#pc7a6373b9e)" d="M 7.2 64.457647 
L 26.285882 64.457647 
L 26.285882 45.371765 
L 7.2 45.371765 
z
" style="fill:#ffd700;stroke:#ffd700;stroke-linejoin:miter;"/>
   </g>
   <g id="patch_46">
    <path clip-path="url(#pc7a6373b9e)" d="M 26.285882 64.457647 
L 45.371765 64.457647 
L 45.371765 45.371765 
L 26.285882 45.371765 
z
" style="fill:#ffd700;stroke:#ffd700;stroke-linejoin:miter;"/>
   </g>
   <g id="patch_47">
    <path clip-path="url(#pc7a6373b9e)" d="M 45.371765 64.457647 
L 64.457647 64.457647 
L 64.457647 45.371765 
L 45.371765 45.371765 
z
" style="fill:#ffd700;stroke:#ffd700;stroke-linejoin:miter;"/>
   </g>
   <g id="patch_48">
    <path clip-path="url(#pc7a6373b9e)" d="M 64.457647 64.457647 
L 83.543529 64.457647 
L 83.543529 45.371765 
L 64.457647 45.371765 
z
" style="fill:#ffd700;stroke:#ffd700;stroke-linejoin:miter;"/>
   </g>
   <g id="patch_49">
    <path clip-path="url(#pc7a6373b9e)" d="M 83.543529 64.457647 
L 102.629412 64.457647 
L 102.629412 45.371765 
L 83.543529 45.371765 
z
" style="fill:#ffd700;stroke:#ffd700;stroke-linejoin:miter;"/>
   </g>
   <g id="patch_50">
    <path clip-path="url(#pc7a6373b9e)" d="M 102.629412 64.457647 
L 121.715294 64.457647 
L 121.715294 45.371765 
L 102.629412 45.371765 
z
" style="fill:#ffd700;stroke:#ffd700;stroke-linejoin:miter;"/>
   </g>
   <g id="patch_51">
    <path clip-path="url(#pc7a6373b9e)" d="M 121.715294 64.457647 
L 140.801176 64.457647 
L 140.801176 45.371765 
L 121.715294 45.371765 
z
" style="fill:#ffd700;stroke:#ffd700;stroke-linejoin:miter;"/>
   </g>
   <g id="patch_52">
    <path clip-path="url(#pc7a6373b9e)" d="M 140.801176 64.457647 
L 159.887059 64.457647 
L 159.887059 45.371765 
L 140.801176 45.371765 
z
" style="fill:#ffd700;stroke:#ffd700;stroke-linejoin:miter;"/>
   </g>
   <g id="patch_53">
    <path clip-path="url(#pc7a6373b9e)" d="M 159.887059 64.457647 
L 178.972941 64.457647 
L 178.972941 45.371765 
L 159.887059 45.371765 
z
" style="fill:#ffd700;stroke:#ffd700;stroke-linejoin:miter;"/>
   </g>
   <g id="patch_54">
    <path clip-path="url(#pc7a6373b9e)" d="M 178.972941 64.457647 
L 198.058824 64.457647 
L 198.058824 45.371765 
L 178.972941 45.371765 
z
" style="fill:#ffd700;stroke:#ffd700;stroke-linejoin:miter;"/>
   </g>
   <g id="patch_55">
    <path clip-path="url(#pc7a6373b9e)" d="M 198.058824 64.457647 
L 217.144706 64.457647 
L 217.144706 45.371765 
L 198.058824 45.371765 
z
" style="fill:#ffd700;stroke:#ffd700;stroke-linejoin:miter;"/>
   </g>
   <g id="patch_56">
    <path clip-path="url(#pc7a6373b9e)" d="M 217.144706 64.457647 
L 236.230588 64.457647 
L 236.230588 45.371765 
L 217.144706 45.371765 
z
" style="fill:#ffd700;stroke:#ffd700;stroke-linejoin:miter;"/>
   </g>
   <g id="patch_57">
    <path clip-path="url(#pc7a6373b9e)" d="M 236.230588 64.457647 
L 255.316471 64.457647 
L 255.316471 45.371765 
L 236.230588 45.371765 
z
" style="fill:#ffd700;stroke:#ffd700;stroke-linejoin:miter;"/>
   </g>
   <g id="patch_58">
    <path clip-path="url(#pc7a6373b9e)" d="M 255.316471 64.457647 
L 274.402353 64.457647 
L 274.402353 45.371765 
L 255.316471 45.371765 
z
" style="fill:#ffd700;stroke:#ffd700;stroke-linejoin:miter;"/>
   </g>
   <g id="patch_59">
    <path clip-path="url(#pc7a6373b9e)" d="M 274.402353 64.457647 
L 293.488235 64.457647 
L 293.488235 45.371765 
L 274.402353 45.371765 
z
" style="fill:#ffd700;stroke:#ffd700;stroke-linejoin:miter;"/>
   </g>
   <g id="patch_60">
    <path clip-path="url(#pc7a6373b9e)" d="M 293.488235 64.457647 
L 312.574118 64.457647 
L 312.574118 45.371765 
L 293.488235 45.371765 
z
" style="fill:#ffd700;stroke:#ffd700;stroke-linejoin:miter;"/>
   </g>
   <g id="patch_61">
    <path clip-path="url(#pc7a6373b9e)" d="M 312.574118 64.457647 
L 331.66 64.457647 
L 331.66 45.371765 
L 312.574118 45.371765 
z
" style="fill:#ffd700;stroke:#ffd700;stroke-linejoin:miter;"/>
   </g>
   <g id="patch_62">
    <path clip-path="url(#pc7a6373b9e)" d="M 331.66 64.457647 
L 350.745882 64.457647 
L 350.745882 45.371765 
L 331.66 45.371765 
z
" style="fill:#ffd700;stroke:#ffd700;stroke-linejoin:miter;"/>
   </g>
   <g id="patch_63">
    <path clip-path="url(#pc7a6373b9e)" d="M 350.745882 64.457647 
L 369.831765 64.457647 
L 369.831765 45.371765 
L 350.745882 45.371765 
z
" style="fill:#ffd700;stroke:#ffd700;stroke-linejoin:miter;"/>
   </g>
   <g id="patch_64">
    <path clip-path="url(#pc7a6373b9e)" d="M 369.831765 64.457647 
L 388.917647 64.457647 
L 388.917647 45.371765 
L 369.831765 45.371765 
z
" style="fill:#ffd700;stroke:#ffd700;stroke-linejoin:miter;"/>
   </g>
   <g id="patch_65">
    <path clip-path="url(#pc7a6373b9e)" d="M 388.917647 64.457647 
L 408.003529 64.457647 
L 408.003529 45.371765 
L 388.917647 45.371765 
z
" style="fill:#ffd700;stroke:#ffd700;stroke-linejoin:miter;"/>
   </g>
   <g id="patch_66">
    <path clip-path="url(#pc7a6373b9e)" d="M 7.2 83.543529 
L 26.285882 83.543529 
L 26.285882 64.457647 
L 7.2 64.457647 
z
" style="fill:#ffd700;stroke:#ffd700;stroke-linejoin:miter;"/>
   </g>
   <g id="patch_67">
    <path clip-path="url(#pc7a6373b9e)" d="M 26.285882 83.543529 
L 45.371765 83.543529 
L 45.371765 64.457647 
L 26.285882 64.457647 
z
" style="fill:#ffd700;stroke:#ffd700;stroke-linejoin:miter;"/>
   </g>
   <g id="patch_68">
    <path clip-path="url(#pc7a6373b9e)" d="M 45.371765 83.543529 
L 64.457647 83.543529 
L 64.457647 64.457647 
L 45.371765 64.457647 
z
" style="fill:#ffd700;stroke:#ffd700;stroke-linejoin:miter;"/>
   </g>
   <g id="patch_69">
    <path clip-path="url(#pc7a6373b9e)" d="M 64.457647 83.543529 
L 83.543529 83.543529 
L 83.543529 64.457647 
L 64.457647 64.457647 
z
" style="fill:#ffd700;stroke:#ffd700;stroke-linejoin:miter;"/>
   </g>
   <g id="patch_70">
    <path clip-path="url(#pc7a6373b9e)" d="M 83.543529 83.543529 
L 102.629412 83.543529 
L 102.629412 64.457647 
L 83.543529 64.457647 
z
" style="fill:#ffd700;stroke:#ffd700;stroke-linejoin:miter;"/>
   </g>
   <g id="patch_71">
    <path clip-path="url(#pc7a6373b9e)" d="M 102.629412 83.543529 
L 121.715294 83.543529 
L 121.715294 64.457647 
L 102.629412 64.457647 
z
" style="fill:#ffd700;stroke:#ffd700;stroke-linejoin:miter;"/>
   </g>
   <g id="patch_72">
    <path clip-path="url(#pc7a6373b9e)" d="M 121.715294 83.543529 
L 140.801176 83.543529 
L 140.801176 64.457647 
L 121.715294 64.457647 
z
" style="fill:#ffd700;stroke:#ffd700;stroke-linejoin:miter;"/>
   </g>
   <g id="patch_73">
    <path clip-path="url(#pc7a6373b9e)" d="M 140.801176 83.543529 
L 159.887059 83.543529 
L 159.887059 64.457647 
L 140.801176 64.457647 
z
" style="fill:#ffd700;stroke:#ffd700;stroke-linejoin:miter;"/>
   </g>
   <g id="patch_74">
    <path clip-path="url(#pc7a6373b9e)" d="M 159.887059 83.543529 
L 178.972941 83.543529 
L 178.972941 64.457647 
L 159.887059 64.457647 
z
" style="fill:#ffd700;stroke:#ffd700;stroke-linejoin:miter;"/>
   </g>
   <g id="patch_75">
    <path clip-path="url(#pc7a6373b9e)" d="M 178.972941 83.543529 
L 198.058824 83.543529 
L 198.058824 64.457647 
L 178.972941 64.457647 
z
" style="fill:#ffd700;stroke:#ffd700;stroke-linejoin:miter;"/>
   </g>
   <g id="patch_76">
    <path clip-path="url(#pc7a6373b9e)" d="M 198.058824 83.543529 
L 217.144706 83.543529 
L 217.144706 64.457647 
L 198.058824 64.457647 
z
" style="fill:#ffd700;stroke:#ffd700;stroke-linejoin:miter;"/>
   </g>
   <g id="patch_77">
    <path clip-path="url(#pc7a6373b9e)" d="M 217.144706 83.543529 
L 236.230588 83.543529 
L 236.230588 64.457647 
L 217.144706 64.457647 
z
" style="fill:#ffd700;stroke:#ffd700;stroke-linejoin:miter;"/>
   </g>
   <g id="patch_78">
    <path clip-path="url(#pc7a6373b9e)" d="M 236.230588 83.543529 
L 255.316471 83.543529 
L 255.316471 64.457647 
L 236.230588 64.457647 
z
" style="fill:#ffd700;stroke:#ffd700;stroke-linejoin:miter;"/>
   </g>
   <g id="patch_79">
    <path clip-path="url(#pc7a6373b9e)" d="M 255.316471 83.543529 
L 274.402353 83.543529 
L 274.402353 64.457647 
L 255.316471 64.457647 
z
" style="fill:#ffd700;stroke:#ffd700;stroke-linejoin:miter;"/>
   </g>
   <g id="patch_80">
    <path clip-path="url(#pc7a6373b9e)" d="M 274.402353 83.543529 
L 293.488235 83.543529 
L 293.488235 64.457647 
L 274.402353 64.457647 
z
" style="fill:#ffd700;stroke:#ffd700;stroke-linejoin:miter;"/>
   </g>
   <g id="patch_81">
    <path clip-path="url(#pc7a6373b9e)" d="M 293.488235 83.543529 
L 312.574118 83.543529 
L 312.574118 64.457647 
L 293.488235 64.457647 
z
" style="fill:#ffd700;stroke:#ffd700;stroke-linejoin:miter;"/>
   </g>
   <g id="patch_82">
    <path clip-path="url(#pc7a6373b9e)" d="M 312.574118 83.543529 
L 331.66 83.543529 
L 331.66 64.457647 
L 312.574118 64.457647 
z
" style="fill:#ffd700;stroke:#ffd700;stroke-linejoin:miter;"/>
   </g>
   <g id="patch_83">
    <path clip-path="url(#pc7a6373b9e)" d="M 331.66 83.543529 
L 350.745882 83.543529 
L 350.745882 64.457647 
L 331.66 64.457647 
z
" style="fill:#ffd700;stroke:#ffd700;stroke-linejoin:miter;"/>
   </g>
   <g id="patch_84">
    <path clip-path="url(#pc7a6373b9e)" d="M 350.745882 83.543529 
L 369.831765 83.543529 
L 369.831765 64.457647 
L 350.745882 64.457647 
z
" style="fill:#ffd700;stroke:#ffd700;stroke-linejoin:miter;"/>
   </g>
   <g id="patch_85">
    <path clip-path="url(#pc7a6373b9e)" d="M 369.831765 83.543529 
L 388.917647 83.543529 
L 388.917647 64.457647 
L 369.831765 64.457647 
z
" style="fill:#ffd700;stroke:#ffd700;stroke-linejoin:miter;"/>
   </g>
   <g id="patch_86">
    <path clip-path="url(#pc7a6373b9e)" d="M 388.917647 83.543529 
L 408.003529 83.543529 
L 408.003529 64.457647 
L 388.917647 64.457647 
z
" style="fill:#ffd700;stroke:#ffd700;stroke-linejoin:miter;"/>
   </g>
   <g id="patch_87">
    <path clip-path="url(#pc7a6373b9e)" d="M 7.2 102.629412 
L 26.285882 102.629412 
L 26.285882 83.543529 
L 7.2 83.543529 
z
" style="fill:#ffd700;stroke:#ffd700;stroke-linejoin:miter;"/>
   </g>
   <g id="patch_88">
    <path clip-path="url(#pc7a6373b9e)" d="M 26.285882 102.629412 
L 45.371765 102.629412 
L 45.371765 83.543529 
L 26.285882 83.543529 
z
" style="fill:#ffd700;stroke:#ffd700;stroke-linejoin:miter;"/>
   </g>
   <g id="patch_89">
    <path clip-path="url(#pc7a6373b9e)" d="M 45.371765 102.629412 
L 64.457647 102.629412 
L 64.457647 83.543529 
L 45.371765 83.543529 
z
" style="fill:#ffd700;stroke:#ffd700;stroke-linejoin:miter;"/>
   </g>
   <g id="patch_90">
    <path clip-path="url(#pc7a6373b9e)" d="M 64.457647 102.629412 
L 83.543529 102.629412 
L 83.543529 83.543529 
L 64.457647 83.543529 
z
" style="fill:#ffd700;stroke:#ffd700;stroke-linejoin:miter;"/>
   </g>
   <g id="patch_91">
    <path clip-path="url(#pc7a6373b9e)" d="M 83.543529 102.629412 
L 102.629412 102.629412 
L 102.629412 83.543529 
L 83.543529 83.543529 
z
" style="fill:#ffd700;stroke:#ffd700;stroke-linejoin:miter;"/>
   </g>
   <g id="patch_92">
    <path clip-path="url(#pc7a6373b9e)" d="M 102.629412 102.629412 
L 121.715294 102.629412 
L 121.715294 83.543529 
L 102.629412 83.543529 
z
" style="fill:#ffd700;stroke:#ffd700;stroke-linejoin:miter;"/>
   </g>
   <g id="patch_93">
    <path clip-path="url(#pc7a6373b9e)" d="M 121.715294 102.629412 
L 140.801176 102.629412 
L 140.801176 83.543529 
L 121.715294 83.543529 
z
" style="fill:#ffd700;stroke:#ffd700;stroke-linejoin:miter;"/>
   </g>
   <g id="patch_94">
    <path clip-path="url(#pc7a6373b9e)" d="M 140.801176 102.629412 
L 159.887059 102.629412 
L 159.887059 83.543529 
L 140.801176 83.543529 
z
" style="fill:#ffd700;stroke:#ffd700;stroke-linejoin:miter;"/>
   </g>
   <g id="patch_95">
    <path clip-path="url(#pc7a6373b9e)" d="M 159.887059 102.629412 
L 178.972941 102.629412 
L 178.972941 83.543529 
L 159.887059 83.543529 
z
" style="fill:#ffd700;stroke:#ffd700;stroke-linejoin:miter;"/>
   </g>
   <g id="patch_96">
    <path clip-path="url(#pc7a6373b9e)" d="M 178.972941 102.629412 
L 198.058824 102.629412 
L 198.058824 83.543529 
L 178.972941 83.543529 
z
" style="fill:#ffd700;stroke:#ffd700;stroke-linejoin:miter;"/>
   </g>
   <g id="patch_97">
    <path clip-path="url(#pc7a6373b9e)" d="M 198.058824 102.629412 
L 217.144706 102.629412 
L 217.144706 83.543529 
L 198.058824 83.543529 
z
" style="fill:#ffd700;stroke:#ffd700;stroke-linejoin:miter;"/>
   </g>
   <g id="patch_98">
    <path clip-path="url(#pc7a6373b9e)" d="M 217.144706 102.629412 
L 236.230588 102.629412 
L 236.230588 83.543529 
L 217.144706 83.543529 
z
" style="fill:#ffd700;stroke:#ffd700;stroke-linejoin:miter;"/>
   </g>
   <g id="patch_99">
    <path clip-path="url(#pc7a6373b9e)" d="M 236.230588 102.629412 
L 255.316471 102.629412 
L 255.316471 83.543529 
L 236.230588 83.543529 
z
" style="fill:#ffd700;stroke:#ffd700;stroke-linejoin:miter;"/>
   </g>
   <g id="patch_100">
    <path clip-path="url(#pc7a6373b9e)" d="M 255.316471 102.629412 
L 274.402353 102.629412 
L 274.402353 83.543529 
L 255.316471 83.543529 
z
" style="fill:#ffd700;stroke:#ffd700;stroke-linejoin:miter;"/>
   </g>
   <g id="patch_101">
    <path clip-path="url(#pc7a6373b9e)" d="M 274.402353 102.629412 
L 293.488235 102.629412 
L 293.488235 83.543529 
L 274.402353 83.543529 
z
" style="fill:#ffd700;stroke:#ffd700;stroke-linejoin:miter;"/>
   </g>
   <g id="patch_102">
    <path clip-path="url(#pc7a6373b9e)" d="M 293.488235 102.629412 
L 312.574118 102.629412 
L 312.574118 83.543529 
L 293.488235 83.543529 
z
" style="fill:#ffd700;stroke:#ffd700;stroke-linejoin:miter;"/>
   </g>
   <g id="patch_103">
    <path clip-path="url(#pc7a6373b9e)" d="M 312.574118 102.629412 
L 331.66 102.629412 
L 331.66 83.543529 
L 312.574118 83.543529 
z
" style="fill:#ffd700;stroke:#ffd700;stroke-linejoin:miter;"/>
   </g>
   <g id="patch_104">
    <path clip-path="url(#pc7a6373b9e)" d="M 331.66 102.629412 
L 350.745882 102.629412 
L 350.745882 83.543529 
L 331.66 83.543529 
z
" style="fill:#ffd700;stroke:#ffd700;stroke-linejoin:miter;"/>
   </g>
   <g id="patch_105">
    <path clip-path="url(#pc7a6373b9e)" d="M 350.745882 102.629412 
L 369.831765 102.629412 
L 369.831765 83.543529 
L 350.745882 83.543529 
z
" style="fill:#ffd700;stroke:#ffd700;stroke-linejoin:miter;"/>
   </g>
   <g id="patch_106">
    <path clip-path="url(#pc7a6373b9e)" d="M 369.831765 102.629412 
L 388.917647 102.629412 
L 388.917647 83.543529 
L 369.831765 83.543529 
z
" style="fill:#ffd700;stroke:#ffd700;stroke-linejoin:miter;"/>
   </g>
   <g id="patch_107">
    <path clip-path="url(#pc7a6373b9e)" d="M 388.917647 102.629412 
L 408.003529 102.629412 
L 408.003529 83.543529 
L 388.917647 83.543529 
z
" style="fill:#ffd700;stroke:#ffd700;stroke-linejoin:miter;"/>
   </g>
   <g id="patch_108">
    <path clip-path="url(#pc7a6373b9e)" d="M 7.2 121.715294 
L 26.285882 121.715294 
L 26.285882 102.629412 
L 7.2 102.629412 
z
" style="fill:#ffd700;stroke:#ffd700;stroke-linejoin:miter;"/>
   </g>
   <g id="patch_109">
    <path clip-path="url(#pc7a6373b9e)" d="M 26.285882 121.715294 
L 45.371765 121.715294 
L 45.371765 102.629412 
L 26.285882 102.629412 
z
" style="fill:#ffd700;stroke:#ffd700;stroke-linejoin:miter;"/>
   </g>
   <g id="patch_110">
    <path clip-path="url(#pc7a6373b9e)" d="M 45.371765 121.715294 
L 64.457647 121.715294 
L 64.457647 102.629412 
L 45.371765 102.629412 
z
" style="fill:#ffd700;stroke:#ffd700;stroke-linejoin:miter;"/>
   </g>
   <g id="patch_111">
    <path clip-path="url(#pc7a6373b9e)" d="M 64.457647 121.715294 
L 83.543529 121.715294 
L 83.543529 102.629412 
L 64.457647 102.629412 
z
" style="fill:#ffd700;stroke:#ffd700;stroke-linejoin:miter;"/>
   </g>
   <g id="patch_112">
    <path clip-path="url(#pc7a6373b9e)" d="M 83.543529 121.715294 
L 102.629412 121.715294 
L 102.629412 102.629412 
L 83.543529 102.629412 
z
" style="fill:#ffd700;stroke:#ffd700;stroke-linejoin:miter;"/>
   </g>
   <g id="patch_113">
    <path clip-path="url(#pc7a6373b9e)" d="M 102.629412 121.715294 
L 121.715294 121.715294 
L 121.715294 102.629412 
L 102.629412 102.629412 
z
" style="fill:#ffd700;stroke:#ffd700;stroke-linejoin:miter;"/>
   </g>
   <g id="patch_114">
    <path clip-path="url(#pc7a6373b9e)" d="M 121.715294 121.715294 
L 140.801176 121.715294 
L 140.801176 102.629412 
L 121.715294 102.629412 
z
" style="fill:#ffd700;stroke:#ffd700;stroke-linejoin:miter;"/>
   </g>
   <g id="patch_115">
    <path clip-path="url(#pc7a6373b9e)" d="M 140.801176 121.715294 
L 159.887059 121.715294 
L 159.887059 102.629412 
L 140.801176 102.629412 
z
" style="fill:#ffd700;stroke:#ffd700;stroke-linejoin:miter;"/>
   </g>
   <g id="patch_116">
    <path clip-path="url(#pc7a6373b9e)" d="M 159.887059 121.715294 
L 178.972941 121.715294 
L 178.972941 102.629412 
L 159.887059 102.629412 
z
" style="fill:#ffd700;stroke:#ffd700;stroke-linejoin:miter;"/>
   </g>
   <g id="patch_117">
    <path clip-path="url(#pc7a6373b9e)" d="M 178.972941 121.715294 
L 198.058824 121.715294 
L 198.058824 102.629412 
L 178.972941 102.629412 
z
" style="fill:#ffd700;stroke:#ffd700;stroke-linejoin:miter;"/>
   </g>
   <g id="patch_118">
    <path clip-path="url(#pc7a6373b9e)" d="M 198.058824 121.715294 
L 217.144706 121.715294 
L 217.144706 102.629412 
L 198.058824 102.629412 
z
" style="fill:#ffd700;stroke:#ffd700;stroke-linejoin:miter;"/>
   </g>
   <g id="patch_119">
    <path clip-path="url(#pc7a6373b9e)" d="M 217.144706 121.715294 
L 236.230588 121.715294 
L 236.230588 102.629412 
L 217.144706 102.629412 
z
" style="fill:#ffd700;stroke:#ffd700;stroke-linejoin:miter;"/>
   </g>
   <g id="patch_120">
    <path clip-path="url(#pc7a6373b9e)" d="M 236.230588 121.715294 
L 255.316471 121.715294 
L 255.316471 102.629412 
L 236.230588 102.629412 
z
" style="fill:#ffd700;stroke:#ffd700;stroke-linejoin:miter;"/>
   </g>
   <g id="patch_121">
    <path clip-path="url(#pc7a6373b9e)" d="M 255.316471 121.715294 
L 274.402353 121.715294 
L 274.402353 102.629412 
L 255.316471 102.629412 
z
" style="fill:#ffd700;stroke:#ffd700;stroke-linejoin:miter;"/>
   </g>
   <g id="patch_122">
    <path clip-path="url(#pc7a6373b9e)" d="M 274.402353 121.715294 
L 293.488235 121.715294 
L 293.488235 102.629412 
L 274.402353 102.629412 
z
" style="fill:#fffafa;stroke:#fffafa;stroke-linejoin:miter;"/>
   </g>
   <g id="patch_123">
    <path clip-path="url(#pc7a6373b9e)" d="M 293.488235 121.715294 
L 312.574118 121.715294 
L 312.574118 102.629412 
L 293.488235 102.629412 
z
" style="fill:#ffd700;stroke:#ffd700;stroke-linejoin:miter;"/>
   </g>
   <g id="patch_124">
    <path clip-path="url(#pc7a6373b9e)" d="M 312.574118 121.715294 
L 331.66 121.715294 
L 331.66 102.629412 
L 312.574118 102.629412 
z
" style="fill:#fffafa;stroke:#fffafa;stroke-linejoin:miter;"/>
   </g>
   <g id="patch_125">
    <path clip-path="url(#pc7a6373b9e)" d="M 331.66 121.715294 
L 350.745882 121.715294 
L 350.745882 102.629412 
L 331.66 102.629412 
z
" style="fill:#fffafa;stroke:#fffafa;stroke-linejoin:miter;"/>
   </g>
   <g id="patch_126">
    <path clip-path="url(#pc7a6373b9e)" d="M 350.745882 121.715294 
L 369.831765 121.715294 
L 369.831765 102.629412 
L 350.745882 102.629412 
z
" style="fill:#ffd700;stroke:#ffd700;stroke-linejoin:miter;"/>
   </g>
   <g id="patch_127">
    <path clip-path="url(#pc7a6373b9e)" d="M 369.831765 121.715294 
L 388.917647 121.715294 
L 388.917647 102.629412 
L 369.831765 102.629412 
z
" style="fill:#fffafa;stroke:#fffafa;stroke-linejoin:miter;"/>
   </g>
   <g id="patch_128">
    <path clip-path="url(#pc7a6373b9e)" d="M 388.917647 121.715294 
L 408.003529 121.715294 
L 408.003529 102.629412 
L 388.917647 102.629412 
z
" style="fill:#ffd700;stroke:#ffd700;stroke-linejoin:miter;"/>
   </g>
   <g id="patch_129">
    <path clip-path="url(#pc7a6373b9e)" d="M 7.2 140.801176 
L 26.285882 140.801176 
L 26.285882 121.715294 
L 7.2 121.715294 
z
" style="fill:#ffd700;stroke:#ffd700;stroke-linejoin:miter;"/>
   </g>
   <g id="patch_130">
    <path clip-path="url(#pc7a6373b9e)" d="M 26.285882 140.801176 
L 45.371765 140.801176 
L 45.371765 121.715294 
L 26.285882 121.715294 
z
" style="fill:#ffd700;stroke:#ffd700;stroke-linejoin:miter;"/>
   </g>
   <g id="patch_131">
    <path clip-path="url(#pc7a6373b9e)" d="M 45.371765 140.801176 
L 64.457647 140.801176 
L 64.457647 121.715294 
L 45.371765 121.715294 
z
" style="fill:#ffd700;stroke:#ffd700;stroke-linejoin:miter;"/>
   </g>
   <g id="patch_132">
    <path clip-path="url(#pc7a6373b9e)" d="M 64.457647 140.801176 
L 83.543529 140.801176 
L 83.543529 121.715294 
L 64.457647 121.715294 
z
" style="fill:#ffd700;stroke:#ffd700;stroke-linejoin:miter;"/>
   </g>
   <g id="patch_133">
    <path clip-path="url(#pc7a6373b9e)" d="M 83.543529 140.801176 
L 102.629412 140.801176 
L 102.629412 121.715294 
L 83.543529 121.715294 
z
" style="fill:#ffd700;stroke:#ffd700;stroke-linejoin:miter;"/>
   </g>
   <g id="patch_134">
    <path clip-path="url(#pc7a6373b9e)" d="M 102.629412 140.801176 
L 121.715294 140.801176 
L 121.715294 121.715294 
L 102.629412 121.715294 
z
" style="fill:#ffd700;stroke:#ffd700;stroke-linejoin:miter;"/>
   </g>
   <g id="patch_135">
    <path clip-path="url(#pc7a6373b9e)" d="M 121.715294 140.801176 
L 140.801176 140.801176 
L 140.801176 121.715294 
L 121.715294 121.715294 
z
" style="fill:#ffd700;stroke:#ffd700;stroke-linejoin:miter;"/>
   </g>
   <g id="patch_136">
    <path clip-path="url(#pc7a6373b9e)" d="M 140.801176 140.801176 
L 159.887059 140.801176 
L 159.887059 121.715294 
L 140.801176 121.715294 
z
" style="fill:#ffd700;stroke:#ffd700;stroke-linejoin:miter;"/>
   </g>
   <g id="patch_137">
    <path clip-path="url(#pc7a6373b9e)" d="M 159.887059 140.801176 
L 178.972941 140.801176 
L 178.972941 121.715294 
L 159.887059 121.715294 
z
" style="fill:#ffd700;stroke:#ffd700;stroke-linejoin:miter;"/>
   </g>
   <g id="patch_138">
    <path clip-path="url(#pc7a6373b9e)" d="M 178.972941 140.801176 
L 198.058824 140.801176 
L 198.058824 121.715294 
L 178.972941 121.715294 
z
" style="fill:#ffd700;stroke:#ffd700;stroke-linejoin:miter;"/>
   </g>
   <g id="patch_139">
    <path clip-path="url(#pc7a6373b9e)" d="M 198.058824 140.801176 
L 217.144706 140.801176 
L 217.144706 121.715294 
L 198.058824 121.715294 
z
" style="fill:#ffd700;stroke:#ffd700;stroke-linejoin:miter;"/>
   </g>
   <g id="patch_140">
    <path clip-path="url(#pc7a6373b9e)" d="M 217.144706 140.801176 
L 236.230588 140.801176 
L 236.230588 121.715294 
L 217.144706 121.715294 
z
" style="fill:#ffd700;stroke:#ffd700;stroke-linejoin:miter;"/>
   </g>
   <g id="patch_141">
    <path clip-path="url(#pc7a6373b9e)" d="M 236.230588 140.801176 
L 255.316471 140.801176 
L 255.316471 121.715294 
L 236.230588 121.715294 
z
" style="fill:#ffd700;stroke:#ffd700;stroke-linejoin:miter;"/>
   </g>
   <g id="patch_142">
    <path clip-path="url(#pc7a6373b9e)" d="M 255.316471 140.801176 
L 274.402353 140.801176 
L 274.402353 121.715294 
L 255.316471 121.715294 
z
" style="fill:#ffd700;stroke:#ffd700;stroke-linejoin:miter;"/>
   </g>
   <g id="patch_143">
    <path clip-path="url(#pc7a6373b9e)" d="M 274.402353 140.801176 
L 293.488235 140.801176 
L 293.488235 121.715294 
L 274.402353 121.715294 
z
" style="fill:#fffafa;stroke:#fffafa;stroke-linejoin:miter;"/>
   </g>
   <g id="patch_144">
    <path clip-path="url(#pc7a6373b9e)" d="M 293.488235 140.801176 
L 312.574118 140.801176 
L 312.574118 121.715294 
L 293.488235 121.715294 
z
" style="fill:#ffd700;stroke:#ffd700;stroke-linejoin:miter;"/>
   </g>
   <g id="patch_145">
    <path clip-path="url(#pc7a6373b9e)" d="M 312.574118 140.801176 
L 331.66 140.801176 
L 331.66 121.715294 
L 312.574118 121.715294 
z
" style="fill:#fffafa;stroke:#fffafa;stroke-linejoin:miter;"/>
   </g>
   <g id="patch_146">
    <path clip-path="url(#pc7a6373b9e)" d="M 331.66 140.801176 
L 350.745882 140.801176 
L 350.745882 121.715294 
L 331.66 121.715294 
z
" style="fill:#fffafa;stroke:#fffafa;stroke-linejoin:miter;"/>
   </g>
   <g id="patch_147">
    <path clip-path="url(#pc7a6373b9e)" d="M 350.745882 140.801176 
L 369.831765 140.801176 
L 369.831765 121.715294 
L 350.745882 121.715294 
z
" style="fill:#ffd700;stroke:#ffd700;stroke-linejoin:miter;"/>
   </g>
   <g id="patch_148">
    <path clip-path="url(#pc7a6373b9e)" d="M 369.831765 140.801176 
L 388.917647 140.801176 
L 388.917647 121.715294 
L 369.831765 121.715294 
z
" style="fill:#fffafa;stroke:#fffafa;stroke-linejoin:miter;"/>
   </g>
   <g id="patch_149">
    <path clip-path="url(#pc7a6373b9e)" d="M 388.917647 140.801176 
L 408.003529 140.801176 
L 408.003529 121.715294 
L 388.917647 121.715294 
z
" style="fill:#ffd700;stroke:#ffd700;stroke-linejoin:miter;"/>
   </g>
   <g id="patch_150">
    <path clip-path="url(#pc7a6373b9e)" d="M 7.2 159.887059 
L 26.285882 159.887059 
L 26.285882 140.801176 
L 7.2 140.801176 
z
" style="fill:#ffd700;stroke:#ffd700;stroke-linejoin:miter;"/>
   </g>
   <g id="patch_151">
    <path clip-path="url(#pc7a6373b9e)" d="M 26.285882 159.887059 
L 45.371765 159.887059 
L 45.371765 140.801176 
L 26.285882 140.801176 
z
" style="fill:#ffd700;stroke:#ffd700;stroke-linejoin:miter;"/>
   </g>
   <g id="patch_152">
    <path clip-path="url(#pc7a6373b9e)" d="M 45.371765 159.887059 
L 64.457647 159.887059 
L 64.457647 140.801176 
L 45.371765 140.801176 
z
" style="fill:#ffd700;stroke:#ffd700;stroke-linejoin:miter;"/>
   </g>
   <g id="patch_153">
    <path clip-path="url(#pc7a6373b9e)" d="M 64.457647 159.887059 
L 83.543529 159.887059 
L 83.543529 140.801176 
L 64.457647 140.801176 
z
" style="fill:#ffd700;stroke:#ffd700;stroke-linejoin:miter;"/>
   </g>
   <g id="patch_154">
    <path clip-path="url(#pc7a6373b9e)" d="M 83.543529 159.887059 
L 102.629412 159.887059 
L 102.629412 140.801176 
L 83.543529 140.801176 
z
" style="fill:#ffd700;stroke:#ffd700;stroke-linejoin:miter;"/>
   </g>
   <g id="patch_155">
    <path clip-path="url(#pc7a6373b9e)" d="M 102.629412 159.887059 
L 121.715294 159.887059 
L 121.715294 140.801176 
L 102.629412 140.801176 
z
" style="fill:#ffd700;stroke:#ffd700;stroke-linejoin:miter;"/>
   </g>
   <g id="patch_156">
    <path clip-path="url(#pc7a6373b9e)" d="M 121.715294 159.887059 
L 140.801176 159.887059 
L 140.801176 140.801176 
L 121.715294 140.801176 
z
" style="fill:#ffd700;stroke:#ffd700;stroke-linejoin:miter;"/>
   </g>
   <g id="patch_157">
    <path clip-path="url(#pc7a6373b9e)" d="M 140.801176 159.887059 
L 159.887059 159.887059 
L 159.887059 140.801176 
L 140.801176 140.801176 
z
" style="fill:#ffd700;stroke:#ffd700;stroke-linejoin:miter;"/>
   </g>
   <g id="patch_158">
    <path clip-path="url(#pc7a6373b9e)" d="M 159.887059 159.887059 
L 178.972941 159.887059 
L 178.972941 140.801176 
L 159.887059 140.801176 
z
" style="fill:#ffd700;stroke:#ffd700;stroke-linejoin:miter;"/>
   </g>
   <g id="patch_159">
    <path clip-path="url(#pc7a6373b9e)" d="M 178.972941 159.887059 
L 198.058824 159.887059 
L 198.058824 140.801176 
L 178.972941 140.801176 
z
" style="fill:#ffd700;stroke:#ffd700;stroke-linejoin:miter;"/>
   </g>
   <g id="patch_160">
    <path clip-path="url(#pc7a6373b9e)" d="M 198.058824 159.887059 
L 217.144706 159.887059 
L 217.144706 140.801176 
L 198.058824 140.801176 
z
" style="fill:#ffd700;stroke:#ffd700;stroke-linejoin:miter;"/>
   </g>
   <g id="patch_161">
    <path clip-path="url(#pc7a6373b9e)" d="M 217.144706 159.887059 
L 236.230588 159.887059 
L 236.230588 140.801176 
L 217.144706 140.801176 
z
" style="fill:#ffd700;stroke:#ffd700;stroke-linejoin:miter;"/>
   </g>
   <g id="patch_162">
    <path clip-path="url(#pc7a6373b9e)" d="M 236.230588 159.887059 
L 255.316471 159.887059 
L 255.316471 140.801176 
L 236.230588 140.801176 
z
" style="fill:#ffd700;stroke:#ffd700;stroke-linejoin:miter;"/>
   </g>
   <g id="patch_163">
    <path clip-path="url(#pc7a6373b9e)" d="M 255.316471 159.887059 
L 274.402353 159.887059 
L 274.402353 140.801176 
L 255.316471 140.801176 
z
" style="fill:#ffd700;stroke:#ffd700;stroke-linejoin:miter;"/>
   </g>
   <g id="patch_164">
    <path clip-path="url(#pc7a6373b9e)" d="M 274.402353 159.887059 
L 293.488235 159.887059 
L 293.488235 140.801176 
L 274.402353 140.801176 
z
" style="fill:#ffd700;stroke:#ffd700;stroke-linejoin:miter;"/>
   </g>
   <g id="patch_165">
    <path clip-path="url(#pc7a6373b9e)" d="M 293.488235 159.887059 
L 312.574118 159.887059 
L 312.574118 140.801176 
L 293.488235 140.801176 
z
" style="fill:#fffafa;stroke:#fffafa;stroke-linejoin:miter;"/>
   </g>
   <g id="patch_166">
    <path clip-path="url(#pc7a6373b9e)" d="M 312.574118 159.887059 
L 331.66 159.887059 
L 331.66 140.801176 
L 312.574118 140.801176 
z
" style="fill:#ffd700;stroke:#ffd700;stroke-linejoin:miter;"/>
   </g>
   <g id="patch_167">
    <path clip-path="url(#pc7a6373b9e)" d="M 331.66 159.887059 
L 350.745882 159.887059 
L 350.745882 140.801176 
L 331.66 140.801176 
z
" style="fill:#ffd700;stroke:#ffd700;stroke-linejoin:miter;"/>
   </g>
   <g id="patch_168">
    <path clip-path="url(#pc7a6373b9e)" d="M 350.745882 159.887059 
L 369.831765 159.887059 
L 369.831765 140.801176 
L 350.745882 140.801176 
z
" style="fill:#fffafa;stroke:#fffafa;stroke-linejoin:miter;"/>
   </g>
   <g id="patch_169">
    <path clip-path="url(#pc7a6373b9e)" d="M 369.831765 159.887059 
L 388.917647 159.887059 
L 388.917647 140.801176 
L 369.831765 140.801176 
z
" style="fill:#ffd700;stroke:#ffd700;stroke-linejoin:miter;"/>
   </g>
   <g id="patch_170">
    <path clip-path="url(#pc7a6373b9e)" d="M 388.917647 159.887059 
L 408.003529 159.887059 
L 408.003529 140.801176 
L 388.917647 140.801176 
z
" style="fill:#ffd700;stroke:#ffd700;stroke-linejoin:miter;"/>
   </g>
   <g id="patch_171">
    <path clip-path="url(#pc7a6373b9e)" d="M 7.2 178.972941 
L 26.285882 178.972941 
L 26.285882 159.887059 
L 7.2 159.887059 
z
" style="fill:#ffd700;stroke:#ffd700;stroke-linejoin:miter;"/>
   </g>
   <g id="patch_172">
    <path clip-path="url(#pc7a6373b9e)" d="M 26.285882 178.972941 
L 45.371765 178.972941 
L 45.371765 159.887059 
L 26.285882 159.887059 
z
" style="fill:#ffd700;stroke:#ffd700;stroke-linejoin:miter;"/>
   </g>
   <g id="patch_173">
    <path clip-path="url(#pc7a6373b9e)" d="M 45.371765 178.972941 
L 64.457647 178.972941 
L 64.457647 159.887059 
L 45.371765 159.887059 
z
" style="fill:#ffd700;stroke:#ffd700;stroke-linejoin:miter;"/>
   </g>
   <g id="patch_174">
    <path clip-path="url(#pc7a6373b9e)" d="M 64.457647 178.972941 
L 83.543529 178.972941 
L 83.543529 159.887059 
L 64.457647 159.887059 
z
" style="fill:#ffd700;stroke:#ffd700;stroke-linejoin:miter;"/>
   </g>
   <g id="patch_175">
    <path clip-path="url(#pc7a6373b9e)" d="M 83.543529 178.972941 
L 102.629412 178.972941 
L 102.629412 159.887059 
L 83.543529 159.887059 
z
" style="fill:#ffd700;stroke:#ffd700;stroke-linejoin:miter;"/>
   </g>
   <g id="patch_176">
    <path clip-path="url(#pc7a6373b9e)" d="M 102.629412 178.972941 
L 121.715294 178.972941 
L 121.715294 159.887059 
L 102.629412 159.887059 
z
" style="fill:#ffd700;stroke:#ffd700;stroke-linejoin:miter;"/>
   </g>
   <g id="patch_177">
    <path clip-path="url(#pc7a6373b9e)" d="M 121.715294 178.972941 
L 140.801176 178.972941 
L 140.801176 159.887059 
L 121.715294 159.887059 
z
" style="fill:#ffd700;stroke:#ffd700;stroke-linejoin:miter;"/>
   </g>
   <g id="patch_178">
    <path clip-path="url(#pc7a6373b9e)" d="M 140.801176 178.972941 
L 159.887059 178.972941 
L 159.887059 159.887059 
L 140.801176 159.887059 
z
" style="fill:#ffd700;stroke:#ffd700;stroke-linejoin:miter;"/>
   </g>
   <g id="patch_179">
    <path clip-path="url(#pc7a6373b9e)" d="M 159.887059 178.972941 
L 178.972941 178.972941 
L 178.972941 159.887059 
L 159.887059 159.887059 
z
" style="fill:#ffd700;stroke:#ffd700;stroke-linejoin:miter;"/>
   </g>
   <g id="patch_180">
    <path clip-path="url(#pc7a6373b9e)" d="M 178.972941 178.972941 
L 198.058824 178.972941 
L 198.058824 159.887059 
L 178.972941 159.887059 
z
" style="fill:#ffd700;stroke:#ffd700;stroke-linejoin:miter;"/>
   </g>
   <g id="patch_181">
    <path clip-path="url(#pc7a6373b9e)" d="M 198.058824 178.972941 
L 217.144706 178.972941 
L 217.144706 159.887059 
L 198.058824 159.887059 
z
" style="fill:#ffd700;stroke:#ffd700;stroke-linejoin:miter;"/>
   </g>
   <g id="patch_182">
    <path clip-path="url(#pc7a6373b9e)" d="M 217.144706 178.972941 
L 236.230588 178.972941 
L 236.230588 159.887059 
L 217.144706 159.887059 
z
" style="fill:#ffd700;stroke:#ffd700;stroke-linejoin:miter;"/>
   </g>
   <g id="patch_183">
    <path clip-path="url(#pc7a6373b9e)" d="M 236.230588 178.972941 
L 255.316471 178.972941 
L 255.316471 159.887059 
L 236.230588 159.887059 
z
" style="fill:#ffd700;stroke:#ffd700;stroke-linejoin:miter;"/>
   </g>
   <g id="patch_184">
    <path clip-path="url(#pc7a6373b9e)" d="M 255.316471 178.972941 
L 274.402353 178.972941 
L 274.402353 159.887059 
L 255.316471 159.887059 
z
" style="fill:#ffd700;stroke:#ffd700;stroke-linejoin:miter;"/>
   </g>
   <g id="patch_185">
    <path clip-path="url(#pc7a6373b9e)" d="M 274.402353 178.972941 
L 293.488235 178.972941 
L 293.488235 159.887059 
L 274.402353 159.887059 
z
" style="fill:#fffafa;stroke:#fffafa;stroke-linejoin:miter;"/>
   </g>
   <g id="patch_186">
    <path clip-path="url(#pc7a6373b9e)" d="M 293.488235 178.972941 
L 312.574118 178.972941 
L 312.574118 159.887059 
L 293.488235 159.887059 
z
" style="fill:#fffafa;stroke:#fffafa;stroke-linejoin:miter;"/>
   </g>
   <g id="patch_187">
    <path clip-path="url(#pc7a6373b9e)" d="M 312.574118 178.972941 
L 331.66 178.972941 
L 331.66 159.887059 
L 312.574118 159.887059 
z
" style="fill:#fffafa;stroke:#fffafa;stroke-linejoin:miter;"/>
   </g>
   <g id="patch_188">
    <path clip-path="url(#pc7a6373b9e)" d="M 331.66 178.972941 
L 350.745882 178.972941 
L 350.745882 159.887059 
L 331.66 159.887059 
z
" style="fill:#fffafa;stroke:#fffafa;stroke-linejoin:miter;"/>
   </g>
   <g id="patch_189">
    <path clip-path="url(#pc7a6373b9e)" d="M 350.745882 178.972941 
L 369.831765 178.972941 
L 369.831765 159.887059 
L 350.745882 159.887059 
z
" style="fill:#fffafa;stroke:#fffafa;stroke-linejoin:miter;"/>
   </g>
   <g id="patch_190">
    <path clip-path="url(#pc7a6373b9e)" d="M 369.831765 178.972941 
L 388.917647 178.972941 
L 388.917647 159.887059 
L 369.831765 159.887059 
z
" style="fill:#fffafa;stroke:#fffafa;stroke-linejoin:miter;"/>
   </g>
   <g id="patch_191">
    <path clip-path="url(#pc7a6373b9e)" d="M 388.917647 178.972941 
L 408.003529 178.972941 
L 408.003529 159.887059 
L 388.917647 159.887059 
z
" style="fill:#ffd700;stroke:#ffd700;stroke-linejoin:miter;"/>
   </g>
   <g id="patch_192">
    <path clip-path="url(#pc7a6373b9e)" d="M 7.2 198.058824 
L 26.285882 198.058824 
L 26.285882 178.972941 
L 7.2 178.972941 
z
" style="fill:#ffd700;stroke:#ffd700;stroke-linejoin:miter;"/>
   </g>
   <g id="patch_193">
    <path clip-path="url(#pc7a6373b9e)" d="M 26.285882 198.058824 
L 45.371765 198.058824 
L 45.371765 178.972941 
L 26.285882 178.972941 
z
" style="fill:#ffd700;stroke:#ffd700;stroke-linejoin:miter;"/>
   </g>
   <g id="patch_194">
    <path clip-path="url(#pc7a6373b9e)" d="M 45.371765 198.058824 
L 64.457647 198.058824 
L 64.457647 178.972941 
L 45.371765 178.972941 
z
" style="fill:#ffd700;stroke:#ffd700;stroke-linejoin:miter;"/>
   </g>
   <g id="patch_195">
    <path clip-path="url(#pc7a6373b9e)" d="M 64.457647 198.058824 
L 83.543529 198.058824 
L 83.543529 178.972941 
L 64.457647 178.972941 
z
" style="fill:#ffd700;stroke:#ffd700;stroke-linejoin:miter;"/>
   </g>
   <g id="patch_196">
    <path clip-path="url(#pc7a6373b9e)" d="M 83.543529 198.058824 
L 102.629412 198.058824 
L 102.629412 178.972941 
L 83.543529 178.972941 
z
" style="fill:#ffd700;stroke:#ffd700;stroke-linejoin:miter;"/>
   </g>
   <g id="patch_197">
    <path clip-path="url(#pc7a6373b9e)" d="M 102.629412 198.058824 
L 121.715294 198.058824 
L 121.715294 178.972941 
L 102.629412 178.972941 
z
" style="fill:#ffd700;stroke:#ffd700;stroke-linejoin:miter;"/>
   </g>
   <g id="patch_198">
    <path clip-path="url(#pc7a6373b9e)" d="M 121.715294 198.058824 
L 140.801176 198.058824 
L 140.801176 178.972941 
L 121.715294 178.972941 
z
" style="fill:#ffd700;stroke:#ffd700;stroke-linejoin:miter;"/>
   </g>
   <g id="patch_199">
    <path clip-path="url(#pc7a6373b9e)" d="M 140.801176 198.058824 
L 159.887059 198.058824 
L 159.887059 178.972941 
L 140.801176 178.972941 
z
" style="fill:#ffd700;stroke:#ffd700;stroke-linejoin:miter;"/>
   </g>
   <g id="patch_200">
    <path clip-path="url(#pc7a6373b9e)" d="M 159.887059 198.058824 
L 178.972941 198.058824 
L 178.972941 178.972941 
L 159.887059 178.972941 
z
" style="fill:#ffd700;stroke:#ffd700;stroke-linejoin:miter;"/>
   </g>
   <g id="patch_201">
    <path clip-path="url(#pc7a6373b9e)" d="M 178.972941 198.058824 
L 198.058824 198.058824 
L 198.058824 178.972941 
L 178.972941 178.972941 
z
" style="fill:#ffd700;stroke:#ffd700;stroke-linejoin:miter;"/>
   </g>
   <g id="patch_202">
    <path clip-path="url(#pc7a6373b9e)" d="M 198.058824 198.058824 
L 217.144706 198.058824 
L 217.144706 178.972941 
L 198.058824 178.972941 
z
" style="fill:#ffd700;stroke:#ffd700;stroke-linejoin:miter;"/>
   </g>
   <g id="patch_203">
    <path clip-path="url(#pc7a6373b9e)" d="M 217.144706 198.058824 
L 236.230588 198.058824 
L 236.230588 178.972941 
L 217.144706 178.972941 
z
" style="fill:#ffd700;stroke:#ffd700;stroke-linejoin:miter;"/>
   </g>
   <g id="patch_204">
    <path clip-path="url(#pc7a6373b9e)" d="M 236.230588 198.058824 
L 255.316471 198.058824 
L 255.316471 178.972941 
L 236.230588 178.972941 
z
" style="fill:#ffd700;stroke:#ffd700;stroke-linejoin:miter;"/>
   </g>
   <g id="patch_205">
    <path clip-path="url(#pc7a6373b9e)" d="M 255.316471 198.058824 
L 274.402353 198.058824 
L 274.402353 178.972941 
L 255.316471 178.972941 
z
" style="fill:#ffd700;stroke:#ffd700;stroke-linejoin:miter;"/>
   </g>
   <g id="patch_206">
    <path clip-path="url(#pc7a6373b9e)" d="M 274.402353 198.058824 
L 293.488235 198.058824 
L 293.488235 178.972941 
L 274.402353 178.972941 
z
" style="fill:#fffafa;stroke:#fffafa;stroke-linejoin:miter;"/>
   </g>
   <g id="patch_207">
    <path clip-path="url(#pc7a6373b9e)" d="M 293.488235 198.058824 
L 312.574118 198.058824 
L 312.574118 178.972941 
L 293.488235 178.972941 
z
" style="fill:#ffd700;stroke:#ffd700;stroke-linejoin:miter;"/>
   </g>
   <g id="patch_208">
    <path clip-path="url(#pc7a6373b9e)" d="M 312.574118 198.058824 
L 331.66 198.058824 
L 331.66 178.972941 
L 312.574118 178.972941 
z
" style="fill:#fffafa;stroke:#fffafa;stroke-linejoin:miter;"/>
   </g>
   <g id="patch_209">
    <path clip-path="url(#pc7a6373b9e)" d="M 331.66 198.058824 
L 350.745882 198.058824 
L 350.745882 178.972941 
L 331.66 178.972941 
z
" style="fill:#fffafa;stroke:#fffafa;stroke-linejoin:miter;"/>
   </g>
   <g id="patch_210">
    <path clip-path="url(#pc7a6373b9e)" d="M 350.745882 198.058824 
L 369.831765 198.058824 
L 369.831765 178.972941 
L 350.745882 178.972941 
z
" style="fill:#ffd700;stroke:#ffd700;stroke-linejoin:miter;"/>
   </g>
   <g id="patch_211">
    <path clip-path="url(#pc7a6373b9e)" d="M 369.831765 198.058824 
L 388.917647 198.058824 
L 388.917647 178.972941 
L 369.831765 178.972941 
z
" style="fill:#fffafa;stroke:#fffafa;stroke-linejoin:miter;"/>
   </g>
   <g id="patch_212">
    <path clip-path="url(#pc7a6373b9e)" d="M 388.917647 198.058824 
L 408.003529 198.058824 
L 408.003529 178.972941 
L 388.917647 178.972941 
z
" style="fill:#ffd700;stroke:#ffd700;stroke-linejoin:miter;"/>
   </g>
   <g id="patch_213">
    <path clip-path="url(#pc7a6373b9e)" d="M 7.2 217.144706 
L 26.285882 217.144706 
L 26.285882 198.058824 
L 7.2 198.058824 
z
" style="fill:#ffd700;stroke:#ffd700;stroke-linejoin:miter;"/>
   </g>
   <g id="patch_214">
    <path clip-path="url(#pc7a6373b9e)" d="M 26.285882 217.144706 
L 45.371765 217.144706 
L 45.371765 198.058824 
L 26.285882 198.058824 
z
" style="fill:#ffd700;stroke:#ffd700;stroke-linejoin:miter;"/>
   </g>
   <g id="patch_215">
    <path clip-path="url(#pc7a6373b9e)" d="M 45.371765 217.144706 
L 64.457647 217.144706 
L 64.457647 198.058824 
L 45.371765 198.058824 
z
" style="fill:#ffd700;stroke:#ffd700;stroke-linejoin:miter;"/>
   </g>
   <g id="patch_216">
    <path clip-path="url(#pc7a6373b9e)" d="M 64.457647 217.144706 
L 83.543529 217.144706 
L 83.543529 198.058824 
L 64.457647 198.058824 
z
" style="fill:#ffd700;stroke:#ffd700;stroke-linejoin:miter;"/>
   </g>
   <g id="patch_217">
    <path clip-path="url(#pc7a6373b9e)" d="M 83.543529 217.144706 
L 102.629412 217.144706 
L 102.629412 198.058824 
L 83.543529 198.058824 
z
" style="fill:#ffd700;stroke:#ffd700;stroke-linejoin:miter;"/>
   </g>
   <g id="patch_218">
    <path clip-path="url(#pc7a6373b9e)" d="M 102.629412 217.144706 
L 121.715294 217.144706 
L 121.715294 198.058824 
L 102.629412 198.058824 
z
" style="fill:#ffd700;stroke:#ffd700;stroke-linejoin:miter;"/>
   </g>
   <g id="patch_219">
    <path clip-path="url(#pc7a6373b9e)" d="M 121.715294 217.144706 
L 140.801176 217.144706 
L 140.801176 198.058824 
L 121.715294 198.058824 
z
" style="fill:#ffd700;stroke:#ffd700;stroke-linejoin:miter;"/>
   </g>
   <g id="patch_220">
    <path clip-path="url(#pc7a6373b9e)" d="M 140.801176 217.144706 
L 159.887059 217.144706 
L 159.887059 198.058824 
L 140.801176 198.058824 
z
" style="fill:#ffd700;stroke:#ffd700;stroke-linejoin:miter;"/>
   </g>
   <g id="patch_221">
    <path clip-path="url(#pc7a6373b9e)" d="M 159.887059 217.144706 
L 178.972941 217.144706 
L 178.972941 198.058824 
L 159.887059 198.058824 
z
" style="fill:#ffd700;stroke:#ffd700;stroke-linejoin:miter;"/>
   </g>
   <g id="patch_222">
    <path clip-path="url(#pc7a6373b9e)" d="M 178.972941 217.144706 
L 198.058824 217.144706 
L 198.058824 198.058824 
L 178.972941 198.058824 
z
" style="fill:#ffd700;stroke:#ffd700;stroke-linejoin:miter;"/>
   </g>
   <g id="patch_223">
    <path clip-path="url(#pc7a6373b9e)" d="M 198.058824 217.144706 
L 217.144706 217.144706 
L 217.144706 198.058824 
L 198.058824 198.058824 
z
" style="fill:#ffd700;stroke:#ffd700;stroke-linejoin:miter;"/>
   </g>
   <g id="patch_224">
    <path clip-path="url(#pc7a6373b9e)" d="M 217.144706 217.144706 
L 236.230588 217.144706 
L 236.230588 198.058824 
L 217.144706 198.058824 
z
" style="fill:#ffd700;stroke:#ffd700;stroke-linejoin:miter;"/>
   </g>
   <g id="patch_225">
    <path clip-path="url(#pc7a6373b9e)" d="M 236.230588 217.144706 
L 255.316471 217.144706 
L 255.316471 198.058824 
L 236.230588 198.058824 
z
" style="fill:#ffd700;stroke:#ffd700;stroke-linejoin:miter;"/>
   </g>
   <g id="patch_226">
    <path clip-path="url(#pc7a6373b9e)" d="M 255.316471 217.144706 
L 274.402353 217.144706 
L 274.402353 198.058824 
L 255.316471 198.058824 
z
" style="fill:#ffd700;stroke:#ffd700;stroke-linejoin:miter;"/>
   </g>
   <g id="patch_227">
    <path clip-path="url(#pc7a6373b9e)" d="M 274.402353 217.144706 
L 293.488235 217.144706 
L 293.488235 198.058824 
L 274.402353 198.058824 
z
" style="fill:#ffd700;stroke:#ffd700;stroke-linejoin:miter;"/>
   </g>
   <g id="patch_228">
    <path clip-path="url(#pc7a6373b9e)" d="M 293.488235 217.144706 
L 312.574118 217.144706 
L 312.574118 198.058824 
L 293.488235 198.058824 
z
" style="fill:#fffafa;stroke:#fffafa;stroke-linejoin:miter;"/>
   </g>
   <g id="patch_229">
    <path clip-path="url(#pc7a6373b9e)" d="M 312.574118 217.144706 
L 331.66 217.144706 
L 331.66 198.058824 
L 312.574118 198.058824 
z
" style="fill:#ffd700;stroke:#ffd700;stroke-linejoin:miter;"/>
   </g>
   <g id="patch_230">
    <path clip-path="url(#pc7a6373b9e)" d="M 331.66 217.144706 
L 350.745882 217.144706 
L 350.745882 198.058824 
L 331.66 198.058824 
z
" style="fill:#ffd700;stroke:#ffd700;stroke-linejoin:miter;"/>
   </g>
   <g id="patch_231">
    <path clip-path="url(#pc7a6373b9e)" d="M 350.745882 217.144706 
L 369.831765 217.144706 
L 369.831765 198.058824 
L 350.745882 198.058824 
z
" style="fill:#fffafa;stroke:#fffafa;stroke-linejoin:miter;"/>
   </g>
   <g id="patch_232">
    <path clip-path="url(#pc7a6373b9e)" d="M 369.831765 217.144706 
L 388.917647 217.144706 
L 388.917647 198.058824 
L 369.831765 198.058824 
z
" style="fill:#ffd700;stroke:#ffd700;stroke-linejoin:miter;"/>
   </g>
   <g id="patch_233">
    <path clip-path="url(#pc7a6373b9e)" d="M 388.917647 217.144706 
L 408.003529 217.144706 
L 408.003529 198.058824 
L 388.917647 198.058824 
z
" style="fill:#ffd700;stroke:#ffd700;stroke-linejoin:miter;"/>
   </g>
   <g id="patch_234">
    <path clip-path="url(#pc7a6373b9e)" d="M 7.2 236.230588 
L 26.285882 236.230588 
L 26.285882 217.144706 
L 7.2 217.144706 
z
" style="fill:#ffd700;stroke:#ffd700;stroke-linejoin:miter;"/>
   </g>
   <g id="patch_235">
    <path clip-path="url(#pc7a6373b9e)" d="M 26.285882 236.230588 
L 45.371765 236.230588 
L 45.371765 217.144706 
L 26.285882 217.144706 
z
" style="fill:#ffd700;stroke:#ffd700;stroke-linejoin:miter;"/>
   </g>
   <g id="patch_236">
    <path clip-path="url(#pc7a6373b9e)" d="M 45.371765 236.230588 
L 64.457647 236.230588 
L 64.457647 217.144706 
L 45.371765 217.144706 
z
" style="fill:#ffd700;stroke:#ffd700;stroke-linejoin:miter;"/>
   </g>
   <g id="patch_237">
    <path clip-path="url(#pc7a6373b9e)" d="M 64.457647 236.230588 
L 83.543529 236.230588 
L 83.543529 217.144706 
L 64.457647 217.144706 
z
" style="fill:#ffd700;stroke:#ffd700;stroke-linejoin:miter;"/>
   </g>
   <g id="patch_238">
    <path clip-path="url(#pc7a6373b9e)" d="M 83.543529 236.230588 
L 102.629412 236.230588 
L 102.629412 217.144706 
L 83.543529 217.144706 
z
" style="fill:#ffd700;stroke:#ffd700;stroke-linejoin:miter;"/>
   </g>
   <g id="patch_239">
    <path clip-path="url(#pc7a6373b9e)" d="M 102.629412 236.230588 
L 121.715294 236.230588 
L 121.715294 217.144706 
L 102.629412 217.144706 
z
" style="fill:#ffd700;stroke:#ffd700;stroke-linejoin:miter;"/>
   </g>
   <g id="patch_240">
    <path clip-path="url(#pc7a6373b9e)" d="M 121.715294 236.230588 
L 140.801176 236.230588 
L 140.801176 217.144706 
L 121.715294 217.144706 
z
" style="fill:#ffd700;stroke:#ffd700;stroke-linejoin:miter;"/>
   </g>
   <g id="patch_241">
    <path clip-path="url(#pc7a6373b9e)" d="M 140.801176 236.230588 
L 159.887059 236.230588 
L 159.887059 217.144706 
L 140.801176 217.144706 
z
" style="fill:#ffd700;stroke:#ffd700;stroke-linejoin:miter;"/>
   </g>
   <g id="patch_242">
    <path clip-path="url(#pc7a6373b9e)" d="M 159.887059 236.230588 
L 178.972941 236.230588 
L 178.972941 217.144706 
L 159.887059 217.144706 
z
" style="fill:#ffd700;stroke:#ffd700;stroke-linejoin:miter;"/>
   </g>
   <g id="patch_243">
    <path clip-path="url(#pc7a6373b9e)" d="M 178.972941 236.230588 
L 198.058824 236.230588 
L 198.058824 217.144706 
L 178.972941 217.144706 
z
" style="fill:#ffd700;stroke:#ffd700;stroke-linejoin:miter;"/>
   </g>
   <g id="patch_244">
    <path clip-path="url(#pc7a6373b9e)" d="M 198.058824 236.230588 
L 217.144706 236.230588 
L 217.144706 217.144706 
L 198.058824 217.144706 
z
" style="fill:#ffd700;stroke:#ffd700;stroke-linejoin:miter;"/>
   </g>
   <g id="patch_245">
    <path clip-path="url(#pc7a6373b9e)" d="M 217.144706 236.230588 
L 236.230588 236.230588 
L 236.230588 217.144706 
L 217.144706 217.144706 
z
" style="fill:#ffd700;stroke:#ffd700;stroke-linejoin:miter;"/>
   </g>
   <g id="patch_246">
    <path clip-path="url(#pc7a6373b9e)" d="M 236.230588 236.230588 
L 255.316471 236.230588 
L 255.316471 217.144706 
L 236.230588 217.144706 
z
" style="fill:#ffd700;stroke:#ffd700;stroke-linejoin:miter;"/>
   </g>
   <g id="patch_247">
    <path clip-path="url(#pc7a6373b9e)" d="M 255.316471 236.230588 
L 274.402353 236.230588 
L 274.402353 217.144706 
L 255.316471 217.144706 
z
" style="fill:#ffd700;stroke:#ffd700;stroke-linejoin:miter;"/>
   </g>
   <g id="patch_248">
    <path clip-path="url(#pc7a6373b9e)" d="M 274.402353 236.230588 
L 293.488235 236.230588 
L 293.488235 217.144706 
L 274.402353 217.144706 
z
" style="fill:#fffafa;stroke:#fffafa;stroke-linejoin:miter;"/>
   </g>
   <g id="patch_249">
    <path clip-path="url(#pc7a6373b9e)" d="M 293.488235 236.230588 
L 312.574118 236.230588 
L 312.574118 217.144706 
L 293.488235 217.144706 
z
" style="fill:#fffafa;stroke:#fffafa;stroke-linejoin:miter;"/>
   </g>
   <g id="patch_250">
    <path clip-path="url(#pc7a6373b9e)" d="M 312.574118 236.230588 
L 331.66 236.230588 
L 331.66 217.144706 
L 312.574118 217.144706 
z
" style="fill:#fffafa;stroke:#fffafa;stroke-linejoin:miter;"/>
   </g>
   <g id="patch_251">
    <path clip-path="url(#pc7a6373b9e)" d="M 331.66 236.230588 
L 350.745882 236.230588 
L 350.745882 217.144706 
L 331.66 217.144706 
z
" style="fill:#fffafa;stroke:#fffafa;stroke-linejoin:miter;"/>
   </g>
   <g id="patch_252">
    <path clip-path="url(#pc7a6373b9e)" d="M 350.745882 236.230588 
L 369.831765 236.230588 
L 369.831765 217.144706 
L 350.745882 217.144706 
z
" style="fill:#fffafa;stroke:#fffafa;stroke-linejoin:miter;"/>
   </g>
   <g id="patch_253">
    <path clip-path="url(#pc7a6373b9e)" d="M 369.831765 236.230588 
L 388.917647 236.230588 
L 388.917647 217.144706 
L 369.831765 217.144706 
z
" style="fill:#fffafa;stroke:#fffafa;stroke-linejoin:miter;"/>
   </g>
   <g id="patch_254">
    <path clip-path="url(#pc7a6373b9e)" d="M 388.917647 236.230588 
L 408.003529 236.230588 
L 408.003529 217.144706 
L 388.917647 217.144706 
z
" style="fill:#ffd700;stroke:#ffd700;stroke-linejoin:miter;"/>
   </g>
   <g id="patch_255">
    <path clip-path="url(#pc7a6373b9e)" d="M 7.2 255.316471 
L 26.285882 255.316471 
L 26.285882 236.230588 
L 7.2 236.230588 
z
" style="fill:#ffd700;stroke:#ffd700;stroke-linejoin:miter;"/>
   </g>
   <g id="patch_256">
    <path clip-path="url(#pc7a6373b9e)" d="M 26.285882 255.316471 
L 45.371765 255.316471 
L 45.371765 236.230588 
L 26.285882 236.230588 
z
" style="fill:#ffd700;stroke:#ffd700;stroke-linejoin:miter;"/>
   </g>
   <g id="patch_257">
    <path clip-path="url(#pc7a6373b9e)" d="M 45.371765 255.316471 
L 64.457647 255.316471 
L 64.457647 236.230588 
L 45.371765 236.230588 
z
" style="fill:#ffd700;stroke:#ffd700;stroke-linejoin:miter;"/>
   </g>
   <g id="patch_258">
    <path clip-path="url(#pc7a6373b9e)" d="M 64.457647 255.316471 
L 83.543529 255.316471 
L 83.543529 236.230588 
L 64.457647 236.230588 
z
" style="fill:#ffd700;stroke:#ffd700;stroke-linejoin:miter;"/>
   </g>
   <g id="patch_259">
    <path clip-path="url(#pc7a6373b9e)" d="M 83.543529 255.316471 
L 102.629412 255.316471 
L 102.629412 236.230588 
L 83.543529 236.230588 
z
" style="fill:#ffd700;stroke:#ffd700;stroke-linejoin:miter;"/>
   </g>
   <g id="patch_260">
    <path clip-path="url(#pc7a6373b9e)" d="M 102.629412 255.316471 
L 121.715294 255.316471 
L 121.715294 236.230588 
L 102.629412 236.230588 
z
" style="fill:#ffd700;stroke:#ffd700;stroke-linejoin:miter;"/>
   </g>
   <g id="patch_261">
    <path clip-path="url(#pc7a6373b9e)" d="M 121.715294 255.316471 
L 140.801176 255.316471 
L 140.801176 236.230588 
L 121.715294 236.230588 
z
" style="fill:#ffd700;stroke:#ffd700;stroke-linejoin:miter;"/>
   </g>
   <g id="patch_262">
    <path clip-path="url(#pc7a6373b9e)" d="M 140.801176 255.316471 
L 159.887059 255.316471 
L 159.887059 236.230588 
L 140.801176 236.230588 
z
" style="fill:#ffd700;stroke:#ffd700;stroke-linejoin:miter;"/>
   </g>
   <g id="patch_263">
    <path clip-path="url(#pc7a6373b9e)" d="M 159.887059 255.316471 
L 178.972941 255.316471 
L 178.972941 236.230588 
L 159.887059 236.230588 
z
" style="fill:#ffd700;stroke:#ffd700;stroke-linejoin:miter;"/>
   </g>
   <g id="patch_264">
    <path clip-path="url(#pc7a6373b9e)" d="M 178.972941 255.316471 
L 198.058824 255.316471 
L 198.058824 236.230588 
L 178.972941 236.230588 
z
" style="fill:#ffd700;stroke:#ffd700;stroke-linejoin:miter;"/>
   </g>
   <g id="patch_265">
    <path clip-path="url(#pc7a6373b9e)" d="M 198.058824 255.316471 
L 217.144706 255.316471 
L 217.144706 236.230588 
L 198.058824 236.230588 
z
" style="fill:#ffd700;stroke:#ffd700;stroke-linejoin:miter;"/>
   </g>
   <g id="patch_266">
    <path clip-path="url(#pc7a6373b9e)" d="M 217.144706 255.316471 
L 236.230588 255.316471 
L 236.230588 236.230588 
L 217.144706 236.230588 
z
" style="fill:#ffd700;stroke:#ffd700;stroke-linejoin:miter;"/>
   </g>
   <g id="patch_267">
    <path clip-path="url(#pc7a6373b9e)" d="M 236.230588 255.316471 
L 255.316471 255.316471 
L 255.316471 236.230588 
L 236.230588 236.230588 
z
" style="fill:#ffd700;stroke:#ffd700;stroke-linejoin:miter;"/>
   </g>
   <g id="patch_268">
    <path clip-path="url(#pc7a6373b9e)" d="M 255.316471 255.316471 
L 274.402353 255.316471 
L 274.402353 236.230588 
L 255.316471 236.230588 
z
" style="fill:#ffd700;stroke:#ffd700;stroke-linejoin:miter;"/>
   </g>
   <g id="patch_269">
    <path clip-path="url(#pc7a6373b9e)" d="M 274.402353 255.316471 
L 293.488235 255.316471 
L 293.488235 236.230588 
L 274.402353 236.230588 
z
" style="fill:#ffd700;stroke:#ffd700;stroke-linejoin:miter;"/>
   </g>
   <g id="patch_270">
    <path clip-path="url(#pc7a6373b9e)" d="M 293.488235 255.316471 
L 312.574118 255.316471 
L 312.574118 236.230588 
L 293.488235 236.230588 
z
" style="fill:#ffd700;stroke:#ffd700;stroke-linejoin:miter;"/>
   </g>
   <g id="patch_271">
    <path clip-path="url(#pc7a6373b9e)" d="M 312.574118 255.316471 
L 331.66 255.316471 
L 331.66 236.230588 
L 312.574118 236.230588 
z
" style="fill:#ffd700;stroke:#ffd700;stroke-linejoin:miter;"/>
   </g>
   <g id="patch_272">
    <path clip-path="url(#pc7a6373b9e)" d="M 331.66 255.316471 
L 350.745882 255.316471 
L 350.745882 236.230588 
L 331.66 236.230588 
z
" style="fill:#ffd700;stroke:#ffd700;stroke-linejoin:miter;"/>
   </g>
   <g id="patch_273">
    <path clip-path="url(#pc7a6373b9e)" d="M 350.745882 255.316471 
L 369.831765 255.316471 
L 369.831765 236.230588 
L 350.745882 236.230588 
z
" style="fill:#ffd700;stroke:#ffd700;stroke-linejoin:miter;"/>
   </g>
   <g id="patch_274">
    <path clip-path="url(#pc7a6373b9e)" d="M 369.831765 255.316471 
L 388.917647 255.316471 
L 388.917647 236.230588 
L 369.831765 236.230588 
z
" style="fill:#ffd700;stroke:#ffd700;stroke-linejoin:miter;"/>
   </g>
   <g id="patch_275">
    <path clip-path="url(#pc7a6373b9e)" d="M 388.917647 255.316471 
L 408.003529 255.316471 
L 408.003529 236.230588 
L 388.917647 236.230588 
z
" style="fill:#ffd700;stroke:#ffd700;stroke-linejoin:miter;"/>
   </g>
   <g id="patch_276">
    <path clip-path="url(#pc7a6373b9e)" d="M 7.2 274.402353 
L 26.285882 274.402353 
L 26.285882 255.316471 
L 7.2 255.316471 
z
" style="fill:#ffd700;stroke:#ffd700;stroke-linejoin:miter;"/>
   </g>
   <g id="patch_277">
    <path clip-path="url(#pc7a6373b9e)" d="M 26.285882 274.402353 
L 45.371765 274.402353 
L 45.371765 255.316471 
L 26.285882 255.316471 
z
" style="fill:#ffd700;stroke:#ffd700;stroke-linejoin:miter;"/>
   </g>
   <g id="patch_278">
    <path clip-path="url(#pc7a6373b9e)" d="M 45.371765 274.402353 
L 64.457647 274.402353 
L 64.457647 255.316471 
L 45.371765 255.316471 
z
" style="fill:#ffd700;stroke:#ffd700;stroke-linejoin:miter;"/>
   </g>
   <g id="patch_279">
    <path clip-path="url(#pc7a6373b9e)" d="M 64.457647 274.402353 
L 83.543529 274.402353 
L 83.543529 255.316471 
L 64.457647 255.316471 
z
" style="fill:#ffd700;stroke:#ffd700;stroke-linejoin:miter;"/>
   </g>
   <g id="patch_280">
    <path clip-path="url(#pc7a6373b9e)" d="M 83.543529 274.402353 
L 102.629412 274.402353 
L 102.629412 255.316471 
L 83.543529 255.316471 
z
" style="fill:#ffd700;stroke:#ffd700;stroke-linejoin:miter;"/>
   </g>
   <g id="patch_281">
    <path clip-path="url(#pc7a6373b9e)" d="M 102.629412 274.402353 
L 121.715294 274.402353 
L 121.715294 255.316471 
L 102.629412 255.316471 
z
" style="fill:#ffd700;stroke:#ffd700;stroke-linejoin:miter;"/>
   </g>
   <g id="patch_282">
    <path clip-path="url(#pc7a6373b9e)" d="M 121.715294 274.402353 
L 140.801176 274.402353 
L 140.801176 255.316471 
L 121.715294 255.316471 
z
" style="fill:#ffd700;stroke:#ffd700;stroke-linejoin:miter;"/>
   </g>
   <g id="patch_283">
    <path clip-path="url(#pc7a6373b9e)" d="M 140.801176 274.402353 
L 159.887059 274.402353 
L 159.887059 255.316471 
L 140.801176 255.316471 
z
" style="fill:#ffd700;stroke:#ffd700;stroke-linejoin:miter;"/>
   </g>
   <g id="patch_284">
    <path clip-path="url(#pc7a6373b9e)" d="M 159.887059 274.402353 
L 178.972941 274.402353 
L 178.972941 255.316471 
L 159.887059 255.316471 
z
" style="fill:#ffd700;stroke:#ffd700;stroke-linejoin:miter;"/>
   </g>
   <g id="patch_285">
    <path clip-path="url(#pc7a6373b9e)" d="M 178.972941 274.402353 
L 198.058824 274.402353 
L 198.058824 255.316471 
L 178.972941 255.316471 
z
" style="fill:#ffd700;stroke:#ffd700;stroke-linejoin:miter;"/>
   </g>
   <g id="patch_286">
    <path clip-path="url(#pc7a6373b9e)" d="M 198.058824 274.402353 
L 217.144706 274.402353 
L 217.144706 255.316471 
L 198.058824 255.316471 
z
" style="fill:#ffd700;stroke:#ffd700;stroke-linejoin:miter;"/>
   </g>
   <g id="patch_287">
    <path clip-path="url(#pc7a6373b9e)" d="M 217.144706 274.402353 
L 236.230588 274.402353 
L 236.230588 255.316471 
L 217.144706 255.316471 
z
" style="fill:#ffd700;stroke:#ffd700;stroke-linejoin:miter;"/>
   </g>
   <g id="patch_288">
    <path clip-path="url(#pc7a6373b9e)" d="M 236.230588 274.402353 
L 255.316471 274.402353 
L 255.316471 255.316471 
L 236.230588 255.316471 
z
" style="fill:#ffd700;stroke:#ffd700;stroke-linejoin:miter;"/>
   </g>
   <g id="patch_289">
    <path clip-path="url(#pc7a6373b9e)" d="M 255.316471 274.402353 
L 274.402353 274.402353 
L 274.402353 255.316471 
L 255.316471 255.316471 
z
" style="fill:#ffd700;stroke:#ffd700;stroke-linejoin:miter;"/>
   </g>
   <g id="patch_290">
    <path clip-path="url(#pc7a6373b9e)" d="M 274.402353 274.402353 
L 293.488235 274.402353 
L 293.488235 255.316471 
L 274.402353 255.316471 
z
" style="fill:#ffd700;stroke:#ffd700;stroke-linejoin:miter;"/>
   </g>
   <g id="patch_291">
    <path clip-path="url(#pc7a6373b9e)" d="M 293.488235 274.402353 
L 312.574118 274.402353 
L 312.574118 255.316471 
L 293.488235 255.316471 
z
" style="fill:#ffd700;stroke:#ffd700;stroke-linejoin:miter;"/>
   </g>
   <g id="patch_292">
    <path clip-path="url(#pc7a6373b9e)" d="M 312.574118 274.402353 
L 331.66 274.402353 
L 331.66 255.316471 
L 312.574118 255.316471 
z
" style="fill:#ffd700;stroke:#ffd700;stroke-linejoin:miter;"/>
   </g>
   <g id="patch_293">
    <path clip-path="url(#pc7a6373b9e)" d="M 331.66 274.402353 
L 350.745882 274.402353 
L 350.745882 255.316471 
L 331.66 255.316471 
z
" style="fill:#ffd700;stroke:#ffd700;stroke-linejoin:miter;"/>
   </g>
   <g id="patch_294">
    <path clip-path="url(#pc7a6373b9e)" d="M 350.745882 274.402353 
L 369.831765 274.402353 
L 369.831765 255.316471 
L 350.745882 255.316471 
z
" style="fill:#ffd700;stroke:#ffd700;stroke-linejoin:miter;"/>
   </g>
   <g id="patch_295">
    <path clip-path="url(#pc7a6373b9e)" d="M 369.831765 274.402353 
L 388.917647 274.402353 
L 388.917647 255.316471 
L 369.831765 255.316471 
z
" style="fill:#ffd700;stroke:#ffd700;stroke-linejoin:miter;"/>
   </g>
   <g id="patch_296">
    <path clip-path="url(#pc7a6373b9e)" d="M 388.917647 274.402353 
L 408.003529 274.402353 
L 408.003529 255.316471 
L 388.917647 255.316471 
z
" style="fill:#ffd700;stroke:#ffd700;stroke-linejoin:miter;"/>
   </g>
   <g id="patch_297">
    <path clip-path="url(#pc7a6373b9e)" d="M 7.2 293.488235 
L 26.285882 293.488235 
L 26.285882 274.402353 
L 7.2 274.402353 
z
" style="fill:#ffd700;stroke:#ffd700;stroke-linejoin:miter;"/>
   </g>
   <g id="patch_298">
    <path clip-path="url(#pc7a6373b9e)" d="M 26.285882 293.488235 
L 45.371765 293.488235 
L 45.371765 274.402353 
L 26.285882 274.402353 
z
" style="fill:#ffd700;stroke:#ffd700;stroke-linejoin:miter;"/>
   </g>
   <g id="patch_299">
    <path clip-path="url(#pc7a6373b9e)" d="M 45.371765 293.488235 
L 64.457647 293.488235 
L 64.457647 274.402353 
L 45.371765 274.402353 
z
" style="fill:#ffd700;stroke:#ffd700;stroke-linejoin:miter;"/>
   </g>
   <g id="patch_300">
    <path clip-path="url(#pc7a6373b9e)" d="M 64.457647 293.488235 
L 83.543529 293.488235 
L 83.543529 274.402353 
L 64.457647 274.402353 
z
" style="fill:#ffd700;stroke:#ffd700;stroke-linejoin:miter;"/>
   </g>
   <g id="patch_301">
    <path clip-path="url(#pc7a6373b9e)" d="M 83.543529 293.488235 
L 102.629412 293.488235 
L 102.629412 274.402353 
L 83.543529 274.402353 
z
" style="fill:#ffd700;stroke:#ffd700;stroke-linejoin:miter;"/>
   </g>
   <g id="patch_302">
    <path clip-path="url(#pc7a6373b9e)" d="M 102.629412 293.488235 
L 121.715294 293.488235 
L 121.715294 274.402353 
L 102.629412 274.402353 
z
" style="fill:#ffd700;stroke:#ffd700;stroke-linejoin:miter;"/>
   </g>
   <g id="patch_303">
    <path clip-path="url(#pc7a6373b9e)" d="M 121.715294 293.488235 
L 140.801176 293.488235 
L 140.801176 274.402353 
L 121.715294 274.402353 
z
" style="fill:#ffd700;stroke:#ffd700;stroke-linejoin:miter;"/>
   </g>
   <g id="patch_304">
    <path clip-path="url(#pc7a6373b9e)" d="M 140.801176 293.488235 
L 159.887059 293.488235 
L 159.887059 274.402353 
L 140.801176 274.402353 
z
" style="fill:#ffd700;stroke:#ffd700;stroke-linejoin:miter;"/>
   </g>
   <g id="patch_305">
    <path clip-path="url(#pc7a6373b9e)" d="M 159.887059 293.488235 
L 178.972941 293.488235 
L 178.972941 274.402353 
L 159.887059 274.402353 
z
" style="fill:#ffd700;stroke:#ffd700;stroke-linejoin:miter;"/>
   </g>
   <g id="patch_306">
    <path clip-path="url(#pc7a6373b9e)" d="M 178.972941 293.488235 
L 198.058824 293.488235 
L 198.058824 274.402353 
L 178.972941 274.402353 
z
" style="fill:#ffd700;stroke:#ffd700;stroke-linejoin:miter;"/>
   </g>
   <g id="patch_307">
    <path clip-path="url(#pc7a6373b9e)" d="M 198.058824 293.488235 
L 217.144706 293.488235 
L 217.144706 274.402353 
L 198.058824 274.402353 
z
" style="fill:#ffd700;stroke:#ffd700;stroke-linejoin:miter;"/>
   </g>
   <g id="patch_308">
    <path clip-path="url(#pc7a6373b9e)" d="M 217.144706 293.488235 
L 236.230588 293.488235 
L 236.230588 274.402353 
L 217.144706 274.402353 
z
" style="fill:#ffd700;stroke:#ffd700;stroke-linejoin:miter;"/>
   </g>
   <g id="patch_309">
    <path clip-path="url(#pc7a6373b9e)" d="M 236.230588 293.488235 
L 255.316471 293.488235 
L 255.316471 274.402353 
L 236.230588 274.402353 
z
" style="fill:#ffd700;stroke:#ffd700;stroke-linejoin:miter;"/>
   </g>
   <g id="patch_310">
    <path clip-path="url(#pc7a6373b9e)" d="M 255.316471 293.488235 
L 274.402353 293.488235 
L 274.402353 274.402353 
L 255.316471 274.402353 
z
" style="fill:#ffd700;stroke:#ffd700;stroke-linejoin:miter;"/>
   </g>
   <g id="patch_311">
    <path clip-path="url(#pc7a6373b9e)" d="M 274.402353 293.488235 
L 293.488235 293.488235 
L 293.488235 274.402353 
L 274.402353 274.402353 
z
" style="fill:#ffd700;stroke:#ffd700;stroke-linejoin:miter;"/>
   </g>
   <g id="patch_312">
    <path clip-path="url(#pc7a6373b9e)" d="M 293.488235 293.488235 
L 312.574118 293.488235 
L 312.574118 274.402353 
L 293.488235 274.402353 
z
" style="fill:#ffd700;stroke:#ffd700;stroke-linejoin:miter;"/>
   </g>
   <g id="patch_313">
    <path clip-path="url(#pc7a6373b9e)" d="M 312.574118 293.488235 
L 331.66 293.488235 
L 331.66 274.402353 
L 312.574118 274.402353 
z
" style="fill:#ffd700;stroke:#ffd700;stroke-linejoin:miter;"/>
   </g>
   <g id="patch_314">
    <path clip-path="url(#pc7a6373b9e)" d="M 331.66 293.488235 
L 350.745882 293.488235 
L 350.745882 274.402353 
L 331.66 274.402353 
z
" style="fill:#ffd700;stroke:#ffd700;stroke-linejoin:miter;"/>
   </g>
   <g id="patch_315">
    <path clip-path="url(#pc7a6373b9e)" d="M 350.745882 293.488235 
L 369.831765 293.488235 
L 369.831765 274.402353 
L 350.745882 274.402353 
z
" style="fill:#ffd700;stroke:#ffd700;stroke-linejoin:miter;"/>
   </g>
   <g id="patch_316">
    <path clip-path="url(#pc7a6373b9e)" d="M 369.831765 293.488235 
L 388.917647 293.488235 
L 388.917647 274.402353 
L 369.831765 274.402353 
z
" style="fill:#ffd700;stroke:#ffd700;stroke-linejoin:miter;"/>
   </g>
   <g id="patch_317">
    <path clip-path="url(#pc7a6373b9e)" d="M 388.917647 293.488235 
L 408.003529 293.488235 
L 408.003529 274.402353 
L 388.917647 274.402353 
z
" style="fill:#ffd700;stroke:#ffd700;stroke-linejoin:miter;"/>
   </g>
   <g id="patch_318">
    <path clip-path="url(#pc7a6373b9e)" d="M 7.2 312.574118 
L 26.285882 312.574118 
L 26.285882 293.488235 
L 7.2 293.488235 
z
" style="fill:#ffd700;stroke:#ffd700;stroke-linejoin:miter;"/>
   </g>
   <g id="patch_319">
    <path clip-path="url(#pc7a6373b9e)" d="M 26.285882 312.574118 
L 45.371765 312.574118 
L 45.371765 293.488235 
L 26.285882 293.488235 
z
" style="fill:#ffd700;stroke:#ffd700;stroke-linejoin:miter;"/>
   </g>
   <g id="patch_320">
    <path clip-path="url(#pc7a6373b9e)" d="M 45.371765 312.574118 
L 64.457647 312.574118 
L 64.457647 293.488235 
L 45.371765 293.488235 
z
" style="fill:#ffd700;stroke:#ffd700;stroke-linejoin:miter;"/>
   </g>
   <g id="patch_321">
    <path clip-path="url(#pc7a6373b9e)" d="M 64.457647 312.574118 
L 83.543529 312.574118 
L 83.543529 293.488235 
L 64.457647 293.488235 
z
" style="fill:#ffd700;stroke:#ffd700;stroke-linejoin:miter;"/>
   </g>
   <g id="patch_322">
    <path clip-path="url(#pc7a6373b9e)" d="M 83.543529 312.574118 
L 102.629412 312.574118 
L 102.629412 293.488235 
L 83.543529 293.488235 
z
" style="fill:#ffd700;stroke:#ffd700;stroke-linejoin:miter;"/>
   </g>
   <g id="patch_323">
    <path clip-path="url(#pc7a6373b9e)" d="M 102.629412 312.574118 
L 121.715294 312.574118 
L 121.715294 293.488235 
L 102.629412 293.488235 
z
" style="fill:#ffd700;stroke:#ffd700;stroke-linejoin:miter;"/>
   </g>
   <g id="patch_324">
    <path clip-path="url(#pc7a6373b9e)" d="M 121.715294 312.574118 
L 140.801176 312.574118 
L 140.801176 293.488235 
L 121.715294 293.488235 
z
" style="fill:#ffd700;stroke:#ffd700;stroke-linejoin:miter;"/>
   </g>
   <g id="patch_325">
    <path clip-path="url(#pc7a6373b9e)" d="M 140.801176 312.574118 
L 159.887059 312.574118 
L 159.887059 293.488235 
L 140.801176 293.488235 
z
" style="fill:#ffd700;stroke:#ffd700;stroke-linejoin:miter;"/>
   </g>
   <g id="patch_326">
    <path clip-path="url(#pc7a6373b9e)" d="M 159.887059 312.574118 
L 178.972941 312.574118 
L 178.972941 293.488235 
L 159.887059 293.488235 
z
" style="fill:#ffd700;stroke:#ffd700;stroke-linejoin:miter;"/>
   </g>
   <g id="patch_327">
    <path clip-path="url(#pc7a6373b9e)" d="M 178.972941 312.574118 
L 198.058824 312.574118 
L 198.058824 293.488235 
L 178.972941 293.488235 
z
" style="fill:#ffd700;stroke:#ffd700;stroke-linejoin:miter;"/>
   </g>
   <g id="patch_328">
    <path clip-path="url(#pc7a6373b9e)" d="M 198.058824 312.574118 
L 217.144706 312.574118 
L 217.144706 293.488235 
L 198.058824 293.488235 
z
" style="fill:#ffd700;stroke:#ffd700;stroke-linejoin:miter;"/>
   </g>
   <g id="patch_329">
    <path clip-path="url(#pc7a6373b9e)" d="M 217.144706 312.574118 
L 236.230588 312.574118 
L 236.230588 293.488235 
L 217.144706 293.488235 
z
" style="fill:#ffd700;stroke:#ffd700;stroke-linejoin:miter;"/>
   </g>
   <g id="patch_330">
    <path clip-path="url(#pc7a6373b9e)" d="M 236.230588 312.574118 
L 255.316471 312.574118 
L 255.316471 293.488235 
L 236.230588 293.488235 
z
" style="fill:#ffd700;stroke:#ffd700;stroke-linejoin:miter;"/>
   </g>
   <g id="patch_331">
    <path clip-path="url(#pc7a6373b9e)" d="M 255.316471 312.574118 
L 274.402353 312.574118 
L 274.402353 293.488235 
L 255.316471 293.488235 
z
" style="fill:#ffd700;stroke:#ffd700;stroke-linejoin:miter;"/>
   </g>
   <g id="patch_332">
    <path clip-path="url(#pc7a6373b9e)" d="M 274.402353 312.574118 
L 293.488235 312.574118 
L 293.488235 293.488235 
L 274.402353 293.488235 
z
" style="fill:#ffd700;stroke:#ffd700;stroke-linejoin:miter;"/>
   </g>
   <g id="patch_333">
    <path clip-path="url(#pc7a6373b9e)" d="M 293.488235 312.574118 
L 312.574118 312.574118 
L 312.574118 293.488235 
L 293.488235 293.488235 
z
" style="fill:#ffd700;stroke:#ffd700;stroke-linejoin:miter;"/>
   </g>
   <g id="patch_334">
    <path clip-path="url(#pc7a6373b9e)" d="M 312.574118 312.574118 
L 331.66 312.574118 
L 331.66 293.488235 
L 312.574118 293.488235 
z
" style="fill:#ffd700;stroke:#ffd700;stroke-linejoin:miter;"/>
   </g>
   <g id="patch_335">
    <path clip-path="url(#pc7a6373b9e)" d="M 331.66 312.574118 
L 350.745882 312.574118 
L 350.745882 293.488235 
L 331.66 293.488235 
z
" style="fill:#ffd700;stroke:#ffd700;stroke-linejoin:miter;"/>
   </g>
   <g id="patch_336">
    <path clip-path="url(#pc7a6373b9e)" d="M 350.745882 312.574118 
L 369.831765 312.574118 
L 369.831765 293.488235 
L 350.745882 293.488235 
z
" style="fill:#ffd700;stroke:#ffd700;stroke-linejoin:miter;"/>
   </g>
   <g id="patch_337">
    <path clip-path="url(#pc7a6373b9e)" d="M 369.831765 312.574118 
L 388.917647 312.574118 
L 388.917647 293.488235 
L 369.831765 293.488235 
z
" style="fill:#ffd700;stroke:#ffd700;stroke-linejoin:miter;"/>
   </g>
   <g id="patch_338">
    <path clip-path="url(#pc7a6373b9e)" d="M 388.917647 312.574118 
L 408.003529 312.574118 
L 408.003529 293.488235 
L 388.917647 293.488235 
z
" style="fill:#ffd700;stroke:#ffd700;stroke-linejoin:miter;"/>
   </g>
   <g id="patch_339">
    <path clip-path="url(#pc7a6373b9e)" d="M 7.2 331.66 
L 26.285882 331.66 
L 26.285882 312.574118 
L 7.2 312.574118 
z
" style="fill:#ffd700;stroke:#ffd700;stroke-linejoin:miter;"/>
   </g>
   <g id="patch_340">
    <path clip-path="url(#pc7a6373b9e)" d="M 26.285882 331.66 
L 45.371765 331.66 
L 45.371765 312.574118 
L 26.285882 312.574118 
z
" style="fill:#ffd700;stroke:#ffd700;stroke-linejoin:miter;"/>
   </g>
   <g id="patch_341">
    <path clip-path="url(#pc7a6373b9e)" d="M 45.371765 331.66 
L 64.457647 331.66 
L 64.457647 312.574118 
L 45.371765 312.574118 
z
" style="fill:#ffd700;stroke:#ffd700;stroke-linejoin:miter;"/>
   </g>
   <g id="patch_342">
    <path clip-path="url(#pc7a6373b9e)" d="M 64.457647 331.66 
L 83.543529 331.66 
L 83.543529 312.574118 
L 64.457647 312.574118 
z
" style="fill:#ffd700;stroke:#ffd700;stroke-linejoin:miter;"/>
   </g>
   <g id="patch_343">
    <path clip-path="url(#pc7a6373b9e)" d="M 83.543529 331.66 
L 102.629412 331.66 
L 102.629412 312.574118 
L 83.543529 312.574118 
z
" style="fill:#ffd700;stroke:#ffd700;stroke-linejoin:miter;"/>
   </g>
   <g id="patch_344">
    <path clip-path="url(#pc7a6373b9e)" d="M 102.629412 331.66 
L 121.715294 331.66 
L 121.715294 312.574118 
L 102.629412 312.574118 
z
" style="fill:#ffd700;stroke:#ffd700;stroke-linejoin:miter;"/>
   </g>
   <g id="patch_345">
    <path clip-path="url(#pc7a6373b9e)" d="M 121.715294 331.66 
L 140.801176 331.66 
L 140.801176 312.574118 
L 121.715294 312.574118 
z
" style="fill:#ffd700;stroke:#ffd700;stroke-linejoin:miter;"/>
   </g>
   <g id="patch_346">
    <path clip-path="url(#pc7a6373b9e)" d="M 140.801176 331.66 
L 159.887059 331.66 
L 159.887059 312.574118 
L 140.801176 312.574118 
z
" style="fill:#ffd700;stroke:#ffd700;stroke-linejoin:miter;"/>
   </g>
   <g id="patch_347">
    <path clip-path="url(#pc7a6373b9e)" d="M 159.887059 331.66 
L 178.972941 331.66 
L 178.972941 312.574118 
L 159.887059 312.574118 
z
" style="fill:#ffd700;stroke:#ffd700;stroke-linejoin:miter;"/>
   </g>
   <g id="patch_348">
    <path clip-path="url(#pc7a6373b9e)" d="M 178.972941 331.66 
L 198.058824 331.66 
L 198.058824 312.574118 
L 178.972941 312.574118 
z
" style="fill:#ffd700;stroke:#ffd700;stroke-linejoin:miter;"/>
   </g>
   <g id="patch_349">
    <path clip-path="url(#pc7a6373b9e)" d="M 198.058824 331.66 
L 217.144706 331.66 
L 217.144706 312.574118 
L 198.058824 312.574118 
z
" style="fill:#ffd700;stroke:#ffd700;stroke-linejoin:miter;"/>
   </g>
   <g id="patch_350">
    <path clip-path="url(#pc7a6373b9e)" d="M 217.144706 331.66 
L 236.230588 331.66 
L 236.230588 312.574118 
L 217.144706 312.574118 
z
" style="fill:#ffd700;stroke:#ffd700;stroke-linejoin:miter;"/>
   </g>
   <g id="patch_351">
    <path clip-path="url(#pc7a6373b9e)" d="M 236.230588 331.66 
L 255.316471 331.66 
L 255.316471 312.574118 
L 236.230588 312.574118 
z
" style="fill:#ffd700;stroke:#ffd700;stroke-linejoin:miter;"/>
   </g>
   <g id="patch_352">
    <path clip-path="url(#pc7a6373b9e)" d="M 255.316471 331.66 
L 274.402353 331.66 
L 274.402353 312.574118 
L 255.316471 312.574118 
z
" style="fill:#ffd700;stroke:#ffd700;stroke-linejoin:miter;"/>
   </g>
   <g id="patch_353">
    <path clip-path="url(#pc7a6373b9e)" d="M 274.402353 331.66 
L 293.488235 331.66 
L 293.488235 312.574118 
L 274.402353 312.574118 
z
" style="fill:#ffd700;stroke:#ffd700;stroke-linejoin:miter;"/>
   </g>
   <g id="patch_354">
    <path clip-path="url(#pc7a6373b9e)" d="M 293.488235 331.66 
L 312.574118 331.66 
L 312.574118 312.574118 
L 293.488235 312.574118 
z
" style="fill:#ffd700;stroke:#ffd700;stroke-linejoin:miter;"/>
   </g>
   <g id="patch_355">
    <path clip-path="url(#pc7a6373b9e)" d="M 312.574118 331.66 
L 331.66 331.66 
L 331.66 312.574118 
L 312.574118 312.574118 
z
" style="fill:#ffd700;stroke:#ffd700;stroke-linejoin:miter;"/>
   </g>
   <g id="patch_356">
    <path clip-path="url(#pc7a6373b9e)" d="M 331.66 331.66 
L 350.745882 331.66 
L 350.745882 312.574118 
L 331.66 312.574118 
z
" style="fill:#ffd700;stroke:#ffd700;stroke-linejoin:miter;"/>
   </g>
   <g id="patch_357">
    <path clip-path="url(#pc7a6373b9e)" d="M 350.745882 331.66 
L 369.831765 331.66 
L 369.831765 312.574118 
L 350.745882 312.574118 
z
" style="fill:#ffd700;stroke:#ffd700;stroke-linejoin:miter;"/>
   </g>
   <g id="patch_358">
    <path clip-path="url(#pc7a6373b9e)" d="M 369.831765 331.66 
L 388.917647 331.66 
L 388.917647 312.574118 
L 369.831765 312.574118 
z
" style="fill:#ffd700;stroke:#ffd700;stroke-linejoin:miter;"/>
   </g>
   <g id="patch_359">
    <path clip-path="url(#pc7a6373b9e)" d="M 388.917647 331.66 
L 408.003529 331.66 
L 408.003529 312.574118 
L 388.917647 312.574118 
z
" style="fill:#ffd700;stroke:#ffd700;stroke-linejoin:miter;"/>
   </g>
   <g id="matplotlib.axis_1">
    <g id="xtick_1">
     <g id="line2d_1">
      <path clip-path="url(#pc7a6373b9e)" d="M 7.2 331.66 
L 7.2 7.2 
" style="fill:none;stroke:#000000;stroke-linecap:square;stroke-width:2;"/>
     </g>
    </g>
    <g id="xtick_2">
     <g id="line2d_2">
      <path clip-path="url(#pc7a6373b9e)" d="M 26.285882 331.66 
L 26.285882 7.2 
" style="fill:none;stroke:#000000;stroke-linecap:square;stroke-width:2;"/>
     </g>
    </g>
    <g id="xtick_3">
     <g id="line2d_3">
      <path clip-path="url(#pc7a6373b9e)" d="M 45.371765 331.66 
L 45.371765 7.2 
" style="fill:none;stroke:#000000;stroke-linecap:square;stroke-width:2;"/>
     </g>
    </g>
    <g id="xtick_4">
     <g id="line2d_4">
      <path clip-path="url(#pc7a6373b9e)" d="M 64.457647 331.66 
L 64.457647 7.2 
" style="fill:none;stroke:#000000;stroke-linecap:square;stroke-width:2;"/>
     </g>
    </g>
    <g id="xtick_5">
     <g id="line2d_5">
      <path clip-path="url(#pc7a6373b9e)" d="M 83.543529 331.66 
L 83.543529 7.2 
" style="fill:none;stroke:#000000;stroke-linecap:square;stroke-width:2;"/>
     </g>
    </g>
    <g id="xtick_6">
     <g id="line2d_6">
      <path clip-path="url(#pc7a6373b9e)" d="M 102.629412 331.66 
L 102.629412 7.2 
" style="fill:none;stroke:#000000;stroke-linecap:square;stroke-width:2;"/>
     </g>
    </g>
    <g id="xtick_7">
     <g id="line2d_7">
      <path clip-path="url(#pc7a6373b9e)" d="M 121.715294 331.66 
L 121.715294 7.2 
" style="fill:none;stroke:#000000;stroke-linecap:square;stroke-width:2;"/>
     </g>
    </g>
    <g id="xtick_8">
     <g id="line2d_8">
      <path clip-path="url(#pc7a6373b9e)" d="M 140.801176 331.66 
L 140.801176 7.2 
" style="fill:none;stroke:#000000;stroke-linecap:square;stroke-width:2;"/>
     </g>
    </g>
    <g id="xtick_9">
     <g id="line2d_9">
      <path clip-path="url(#pc7a6373b9e)" d="M 159.887059 331.66 
L 159.887059 7.2 
" style="fill:none;stroke:#000000;stroke-linecap:square;stroke-width:2;"/>
     </g>
    </g>
    <g id="xtick_10">
     <g id="line2d_10">
      <path clip-path="url(#pc7a6373b9e)" d="M 178.972941 331.66 
L 178.972941 7.2 
" style="fill:none;stroke:#000000;stroke-linecap:square;stroke-width:2;"/>
     </g>
    </g>
    <g id="xtick_11">
     <g id="line2d_11">
      <path clip-path="url(#pc7a6373b9e)" d="M 198.058824 331.66 
L 198.058824 7.2 
" style="fill:none;stroke:#000000;stroke-linecap:square;stroke-width:2;"/>
     </g>
    </g>
    <g id="xtick_12">
     <g id="line2d_12">
      <path clip-path="url(#pc7a6373b9e)" d="M 217.144706 331.66 
L 217.144706 7.2 
" style="fill:none;stroke:#000000;stroke-linecap:square;stroke-width:2;"/>
     </g>
    </g>
    <g id="xtick_13">
     <g id="line2d_13">
      <path clip-path="url(#pc7a6373b9e)" d="M 236.230588 331.66 
L 236.230588 7.2 
" style="fill:none;stroke:#000000;stroke-linecap:square;stroke-width:2;"/>
     </g>
    </g>
    <g id="xtick_14">
     <g id="line2d_14">
      <path clip-path="url(#pc7a6373b9e)" d="M 255.316471 331.66 
L 255.316471 7.2 
" style="fill:none;stroke:#000000;stroke-linecap:square;stroke-width:2;"/>
     </g>
    </g>
    <g id="xtick_15">
     <g id="line2d_15">
      <path clip-path="url(#pc7a6373b9e)" d="M 274.402353 331.66 
L 274.402353 7.2 
" style="fill:none;stroke:#000000;stroke-linecap:square;stroke-width:2;"/>
     </g>
    </g>
    <g id="xtick_16">
     <g id="line2d_16">
      <path clip-path="url(#pc7a6373b9e)" d="M 293.488235 331.66 
L 293.488235 7.2 
" style="fill:none;stroke:#000000;stroke-linecap:square;stroke-width:2;"/>
     </g>
    </g>
    <g id="xtick_17">
     <g id="line2d_17">
      <path clip-path="url(#pc7a6373b9e)" d="M 312.574118 331.66 
L 312.574118 7.2 
" style="fill:none;stroke:#000000;stroke-linecap:square;stroke-width:2;"/>
     </g>
    </g>
    <g id="xtick_18">
     <g id="line2d_18">
      <path clip-path="url(#pc7a6373b9e)" d="M 331.66 331.66 
L 331.66 7.2 
" style="fill:none;stroke:#000000;stroke-linecap:square;stroke-width:2;"/>
     </g>
    </g>
    <g id="xtick_19">
     <g id="line2d_19">
      <path clip-path="url(#pc7a6373b9e)" d="M 350.745882 331.66 
L 350.745882 7.2 
" style="fill:none;stroke:#000000;stroke-linecap:square;stroke-width:2;"/>
     </g>
    </g>
    <g id="xtick_20">
     <g id="line2d_20">
      <path clip-path="url(#pc7a6373b9e)" d="M 369.831765 331.66 
L 369.831765 7.2 
" style="fill:none;stroke:#000000;stroke-linecap:square;stroke-width:2;"/>
     </g>
    </g>
    <g id="xtick_21">
     <g id="line2d_21">
      <path clip-path="url(#pc7a6373b9e)" d="M 388.917647 331.66 
L 388.917647 7.2 
" style="fill:none;stroke:#000000;stroke-linecap:square;stroke-width:2;"/>
     </g>
    </g>
    <g id="xtick_22">
     <g id="line2d_22">
      <path clip-path="url(#pc7a6373b9e)" d="M 408.003529 331.66 
L 408.003529 7.2 
" style="fill:none;stroke:#000000;stroke-linecap:square;stroke-width:2;"/>
     </g>
    </g>
   </g>
   <g id="matplotlib.axis_2">
    <g id="ytick_1">
     <g id="line2d_23">
      <path clip-path="url(#pc7a6373b9e)" d="M 7.2 331.66 
L 408.003529 331.66 
" style="fill:none;stroke:#000000;stroke-linecap:square;stroke-width:2;"/>
     </g>
    </g>
    <g id="ytick_2">
     <g id="line2d_24">
      <path clip-path="url(#pc7a6373b9e)" d="M 7.2 312.574118 
L 408.003529 312.574118 
" style="fill:none;stroke:#000000;stroke-linecap:square;stroke-width:2;"/>
     </g>
    </g>
    <g id="ytick_3">
     <g id="line2d_25">
      <path clip-path="url(#pc7a6373b9e)" d="M 7.2 293.488235 
L 408.003529 293.488235 
" style="fill:none;stroke:#000000;stroke-linecap:square;stroke-width:2;"/>
     </g>
    </g>
    <g id="ytick_4">
     <g id="line2d_26">
      <path clip-path="url(#pc7a6373b9e)" d="M 7.2 274.402353 
L 408.003529 274.402353 
" style="fill:none;stroke:#000000;stroke-linecap:square;stroke-width:2;"/>
     </g>
    </g>
    <g id="ytick_5">
     <g id="line2d_27">
      <path clip-path="url(#pc7a6373b9e)" d="M 7.2 255.316471 
L 408.003529 255.316471 
" style="fill:none;stroke:#000000;stroke-linecap:square;stroke-width:2;"/>
     </g>
    </g>
    <g id="ytick_6">
     <g id="line2d_28">
      <path clip-path="url(#pc7a6373b9e)" d="M 7.2 236.230588 
L 408.003529 236.230588 
" style="fill:none;stroke:#000000;stroke-linecap:square;stroke-width:2;"/>
     </g>
    </g>
    <g id="ytick_7">
     <g id="line2d_29">
      <path clip-path="url(#pc7a6373b9e)" d="M 7.2 217.144706 
L 408.003529 217.144706 
" style="fill:none;stroke:#000000;stroke-linecap:square;stroke-width:2;"/>
     </g>
    </g>
    <g id="ytick_8">
     <g id="line2d_30">
      <path clip-path="url(#pc7a6373b9e)" d="M 7.2 198.058824 
L 408.003529 198.058824 
" style="fill:none;stroke:#000000;stroke-linecap:square;stroke-width:2;"/>
     </g>
    </g>
    <g id="ytick_9">
     <g id="line2d_31">
      <path clip-path="url(#pc7a6373b9e)" d="M 7.2 178.972941 
L 408.003529 178.972941 
" style="fill:none;stroke:#000000;stroke-linecap:square;stroke-width:2;"/>
     </g>
    </g>
    <g id="ytick_10">
     <g id="line2d_32">
      <path clip-path="url(#pc7a6373b9e)" d="M 7.2 159.887059 
L 408.003529 159.887059 
" style="fill:none;stroke:#000000;stroke-linecap:square;stroke-width:2;"/>
     </g>
    </g>
    <g id="ytick_11">
     <g id="line2d_33">
      <path clip-path="url(#pc7a6373b9e)" d="M 7.2 140.801176 
L 408.003529 140.801176 
" style="fill:none;stroke:#000000;stroke-linecap:square;stroke-width:2;"/>
     </g>
    </g>
    <g id="ytick_12">
     <g id="line2d_34">
      <path clip-path="url(#pc7a6373b9e)" d="M 7.2 121.715294 
L 408.003529 121.715294 
" style="fill:none;stroke:#000000;stroke-linecap:square;stroke-width:2;"/>
     </g>
    </g>
    <g id="ytick_13">
     <g id="line2d_35">
      <path clip-path="url(#pc7a6373b9e)" d="M 7.2 102.629412 
L 408.003529 102.629412 
" style="fill:none;stroke:#000000;stroke-linecap:square;stroke-width:2;"/>
     </g>
    </g>
    <g id="ytick_14">
     <g id="line2d_36">
      <path clip-path="url(#pc7a6373b9e)" d="M 7.2 83.543529 
L 408.003529 83.543529 
" style="fill:none;stroke:#000000;stroke-linecap:square;stroke-width:2;"/>
     </g>
    </g>
    <g id="ytick_15">
     <g id="line2d_37">
      <path clip-path="url(#pc7a6373b9e)" d="M 7.2 64.457647 
L 408.003529 64.457647 
" style="fill:none;stroke:#000000;stroke-linecap:square;stroke-width:2;"/>
     </g>
    </g>
    <g id="ytick_16">
     <g id="line2d_38">
      <path clip-path="url(#pc7a6373b9e)" d="M 7.2 45.371765 
L 408.003529 45.371765 
" style="fill:none;stroke:#000000;stroke-linecap:square;stroke-width:2;"/>
     </g>
    </g>
    <g id="ytick_17">
     <g id="line2d_39">
      <path clip-path="url(#pc7a6373b9e)" d="M 7.2 26.285882 
L 408.003529 26.285882 
" style="fill:none;stroke:#000000;stroke-linecap:square;stroke-width:2;"/>
     </g>
    </g>
    <g id="ytick_18">
     <g id="line2d_40">
      <path clip-path="url(#pc7a6373b9e)" d="M 7.2 7.2 
L 408.003529 7.2 
" style="fill:none;stroke:#000000;stroke-linecap:square;stroke-width:2;"/>
     </g>
    </g>
   </g>
   <g id="patch_360">
    <path d="M 7.2 331.66 
L 7.2 7.2 
" style="fill:none;stroke:#000000;stroke-linecap:square;stroke-linejoin:miter;stroke-width:2;"/>
   </g>
   <g id="patch_361">
    <path d="M 408.003529 331.66 
L 408.003529 7.2 
" style="fill:none;stroke:#000000;stroke-linecap:square;stroke-linejoin:miter;stroke-width:2;"/>
   </g>
   <g id="patch_362">
    <path d="M 7.2 331.66 
L 408.003529 331.66 
" style="fill:none;stroke:#000000;stroke-linecap:square;stroke-linejoin:miter;stroke-width:2;"/>
   </g>
   <g id="patch_363">
    <path d="M 7.2 7.2 
L 408.003529 7.2 
" style="fill:none;stroke:#000000;stroke-linecap:square;stroke-linejoin:miter;stroke-width:2;"/>
   </g>
  </g>
 </g>
 <defs>
  <clipPath id="pc7a6373b9e">
   <rect height="324.46" width="400.803529" x="7.2" y="7.2"/>
  </clipPath>
 </defs>
</svg>
